Qashib.glyphspackage
{
glyphname = exclam;
layers = (
{
layerId = m01;
shapes = (
{
closed = 1;
nodes = (
(78,178,l),
(89,770,l),
(19,770,l),
(28,178,l)
);
},
{
ref = period;
}
);
width = 125;
}
);
metricLeft = "=period";
metricRight = "=period";
metricWidth = "=period";
unicode = 33;
}
{
glyphname = quotesingle;
layers = (
{
layerId = m01;
shapes = (
{
closed = 1;
nodes = (
(78,575,l),
(82,770,l),
(40,770,l),
(44,575,l)
);
}
);
width = 122;
}
);
metricLeft = "=|quoteleft";
metricRight = "=quoteleft";
unicode = 39;
}
{
glyphname = parenleft;
layers = (
{
layerId = m01;
shapes = (
{
closed = 1;
nodes = (
(150,-83,l),
(97,4,o),
(60,125,o),
(60,260,cs),
(60,396,o),
(97,516,o),
(150,603,c),
(141,610,l),
(61,532,o),
(0,404,o),
(0,260,cs),
(0,117,o),
(61,-12,o),
(141,-90,c)
);
}
);
width = 170;
},
{
associatedMasterId = m01;
layerId = "1E7CD8CC-280C-4178-AABC-BCA6642E6CD0";
name = "5 Jul 25 at 08:34";
shapes = (
{
closed = 1;
nodes = (
(230,-93,l),
(120,91,o),
(120,309,o),
(230,493,c),
(221,500,l),
(150,425,o),
(100,305,o),
(100,200,cs),
(100,95,o),
(150,-25,o),
(221,-100,c)
);
}
);
width = 280;
},
{
associatedMasterId = m01;
layerId = "C361AD56-0810-4C3B-BF5C-5F3B57A8ABE1";
name = "22 Feb 26 at 00:43";
shapes = (
{
closed = 1;
nodes = (
(186,-55,l),
(164,-104,l),
(103,-16,o),
(60,114,o),
(60,260,cs),
(60,407,o),
(103,536,o),
(164,624,c),
(186,575,l),
(141,610,l),
(61,532,o),
(0,404,o),
(0,260,cs),
(0,117,o),
(61,-12,o),
(141,-90,c)
);
}
);
width = 170;
}
);
metricLeft = "=0";
metricRight = "=20";
unicode = 40;
}
{
glyphname = parenright;
layers = (
{
layerId = m01;
shapes = (
{
closed = 1;
nodes = (
(89,-12,o),
(150,116,o),
(150,260,cs),
(150,403,o),
(89,532,o),
(9,610,c),
(0,603,l),
(53,516,o),
(90,395,o),
(90,260,cs),
(90,124,o),
(53,4,o),
(0,-83,c),
(9,-90,l)
);
}
);
width = 170;
},
{
associatedMasterId = m01;
layerId = "533EDA3E-C268-454D-B07F-04E6DEA248AC";
name = "22 Feb 26 at 00:43";
shapes = (
{
angle = 180;
pos = (150,520);
ref = parenleft;
}
);
width = 170;
}
);
metricLeft = "=parenleft";
metricRight = "=parenleft";
metricWidth = "=parenleft";
unicode = 41;
}
{
glyphname = hyphen;
layers = (
{
layerId = m01;
shapes = (
{
closed = 1;
nodes = (
(220,295,l),
(220,345,l),
(0,345,l),
(0,295,l)
);
}
);
width = 240;
}
);
metricLeft = "=0";
metricRight = "=20";
unicode = 45;
}
{
glyphname = period;
layers = (
{
layerId = m01;
shapes = (
{
closed = 1;
nodes = (
(81,0,o),
(105,24,o),
(105,53,cs),
(105,81,o),
(81,105,o),
(53,105,cs),
(24,105,o),
(0,81,o),
(0,53,cs),
(0,24,o),
(24,0,o),
(53,0,cs)
);
}
);
width = 125;
}
);
metricRight = "=20";
unicode = 46;
}
{
glyphname = slash;
layers = (
{
layerId = m01;
shapes = (
{
closed = 1;
nodes = (
(260,760,l),
(211,770,l),
(0,-220,l),
(50,-230,l)
);
}
);
width = 280;
}
);
metricLeft = "=0";
metricRight = "=20";
unicode = 47;
}
{
glyphname = bracketleft;
layers = (
{
layerId = m01;
shapes = (
{
closed = 1;
nodes = (
(150,-90,l),
(150,-40,l),
(50,-40,l),
(50,560,l),
(150,560,l),
(150,610,l),
(0,610,l),
(0,-90,l)
);
}
);
width = 190;
}
);
metricLeft = "=parenleft";
metricRight = "=parenleft";
unicode = 91;
}
{
glyphname = backslash;
layers = (
{
layerId = m01;
shapes = (
{
closed = 1;
nodes = (
(250,-116,l),
(99,594,l),
(50,584,l),
(201,-126,l)
);
}
);
width = 300;
},
{
associatedMasterId = m01;
layerId = "0242F232-9826-455F-BDE3-AA9E7E728D76";
name = "22 Feb 26 at 00:43";
shapes = (
{
pos = (0,468);
ref = slash;
scale = (1,-1);
}
);
width = 300;
}
);
metricLeft = "=|slash";
metricRight = "=|slash";
metricWidth = "=slash";
unicode = 92;
}
{
glyphname = underscore;
layers = (
{
layerId = m01;
shapes = (
{
closed = 1;
nodes = (
(320,-209,l),
(320,-159,l),
(0,-159,l),
(0,-209,l)
);
}
);
width = 300;
}
);
metricLeft = "=0";
metricRight = "=-20";
metricWidth = "=endash";
unicode = 95;
}
{
glyphname = braceleft;
layers = (
{
layerId = m01;
shapes = (
{
closed = 1;
nodes = (
(32,275,o),
(167,320,o),
(167,456,cs),
(167,502,o),
(139,585,o),
(139,631,cs),
(139,756,o),
(202,756,o),
(237,756,c),
(237,770,l),
(205,770,o),
(70,767,o),
(70,631,cs),
(70,585,o),
(97,502,o),
(97,456,cs),
(97,331,o),
(35,289,o),
(0,289,c),
(0,275,l)
);
},
{
closed = 1;
nodes = (
(237,-192,l),
(202,-192,o),
(139,-192,o),
(139,-67,cs),
(139,-21,o),
(167,62,o),
(167,108,cs),
(167,244,o),
(32,289,o),
(0,289,c),
(0,275,l),
(35,275,o),
(97,233,o),
(97,108,cs),
(97,62,o),
(70,-21,o),
(70,-67,cs),
(70,-203,o),
(205,-206,o),
(237,-206,c)
);
}
);
width = 257;
},
{
associatedMasterId = m01;
layerId = "836F5949-E087-42A8-8E00-BDC88C795C25";
name = "2 Jul 25 at 01:03";
shapes = (
{
closed = 1;
nodes = (
(230,-93,l),
(120,91,o),
(120,309,o),
(230,493,c),
(221,500,l),
(150,425,o),
(100,305,o),
(100,200,cs),
(100,95,o),
(150,-25,o),
(221,-100,c)
);
}
);
width = 400;
}
);
metricLeft = "=bracketleft";
metricRight = "=parenleft";
unicode = 123;
}
{
glyphname = bar;
layers = (
{
layerId = m01;
shapes = (
{
closed = 1;
nodes = (
(50,-150,l),
(50,550,l),
(0,550,l),
(0,-150,l)
);
}
);
width = 70;
}
);
metricLeft = "=bracketleft";
metricRight = "=bracketright";
unicode = 124;
}
{
glyphname = braceright;
layers = (
{
layerId = m01;
shapes = (
{
closed = 1;
nodes = (
(63,-90,o),
(160,-88,o),
(160,10,cs),
(160,43,o),
(140,102,o),
(140,135,cs),
(140,225,o),
(185,255,o),
(210,255,c),
(210,265,l),
(185,265,o),
(140,295,o),
(140,385,cs),
(140,418,o),
(160,477,o),
(160,510,cs),
(160,608,o),
(63,610,o),
(40,610,c),
(40,600,l),
(65,600,o),
(110,600,o),
(110,510,cs),
(110,477,o),
(90,418,o),
(90,385,cs),
(90,309,o),
(150,272,o),
(186,260,c),
(150,248,o),
(90,211,o),
(90,135,cs),
(90,102,o),
(110,43,o),
(110,10,cs),
(110,-80,o),
(65,-80,o),
(40,-80,c),
(40,-90,l)
);
}
);
width = 210;
},
{
associatedMasterId = m01;
layerId = "3D0286D0-857A-4092-8EEB-5EA4C0E1F80E";
name = "22 Feb 26 at 00:43";
shapes = (
{
angle = 180;
pos = (170,520);
ref = braceleft;
}
);
width = 190;
}
);
metricLeft = "=|braceleft";
metricRight = "=|braceleft";
metricWidth = "=braceleft";
unicode = 125;
}
{
glyphname = "comma-ar";
layers = (
{
layerId = m01;
shapes = (
{
closed = 1;
nodes = (
(81,0,o),
(105,24,o),
(105,53,cs),
(105,81,o),
(81,105,o),
(53,105,cs),
(38,105,o),
(22,99,o),
(8,84,c),
(44,49,l),
(41,88,o),
(56,144,o),
(106,192,c),
(91,209,l),
(39,167,o),
(0,121,o),
(0,53,cs),
(0,24,o),
(24,0,o),
(53,0,cs)
);
}
);
width = 125;
}
);
metricLeft = "=period";
metricWidth = "=period";
unicode = 1548;
}
{
glyphname = "question-ar";
layers = (
{
layerId = m01;
shapes = (
{
closed = 1;
nodes = (
(193,125,l),
(200,311,l),
(134,280,o),
(50,317,o),
(50,400,cs),
(50,467,o),
(100,500,o),
(144,500,cs),
(177,500,o),
(208,480,o),
(210,446,c),
(228,473,o),
(247,488,o),
(276,499,c),
(236,534,o),
(190,550,o),
(148,550,cs),
(68,550,o),
(0,491,o),
(0,400,cs),
(0,313,o),
(63,249,o),
(151,250,c),
(157,125,l)
);
},
{
pos = (137,0);
ref = period;
}
);
width = 296;
},
{
associatedMasterId = m01;
layerId = "61AE85B2-EC02-409C-80CD-B6A4315BD8C9";
name = "22 Feb 26 at 00:42";
shapes = (
{
closed = 1;
nodes = (
(193,125,l),
(200,311,l),
(185,304,o),
(168,300,o),
(150,300,cs),
(93,300,o),
(50,343,o),
(50,400,cs),
(50,467,o),
(100,500,o),
(144,500,cs),
(189,500,o),
(228,464,o),
(202,405,c),
(193,416,l),
(222,472,o),
(247,494,o),
(305,507,c),
(293,482,l),
(249,529,o),
(196,550,o),
(148,550,cs),
(68,550,o),
(0,491,o),
(0,400,cs),
(0,302,o),
(80,234,o),
(184,253,c),
(150,278,l),
(157,125,l)
);
},
{
pos = (137,0);
ref = period;
}
);
width = 296;
}
);
metricLeft = "=period";
metricRight = "=period";
unicode = 1567;
}
{
category = Letter;
glyphname = "reh-ar";
layers = (
{
anchors = (
{
name = bottom;
pos = (81,-145);
},
{
name = top;
pos = (81,227);
}
);
layerId = m01;
shapes = (
{
closed = 1;
nodes = (
(66,-153,o),
(162,-108,o),
(162,-9,cs),
(162,80,o),
(119,124,o),
(61,229,c),
(83,227,l),
(79,140,o),
(58,109,o),
(18,51,c),
(12,96,l),
(58,68,o),
(76,24,o),
(81,-8,cs),
(92,-67,o),
(51,-117,o),
(0,-118,c)
);
}
);
width = 182;
}
);
metricLeft = "=0";
metricRight = "=20";
script = arabic;
sortName = arL0020;
sortNameKeep = arL0020;
unicode = 1585;
}
{
category = Letter;
color = 9;
glyphname = "kashida-ar";
layers = (
{
anchors = (
{
name = bottom;
pos = (50,-20);
},
{
name = entry;
pos = (100,0);
},
{
name = exit;
},
{
name = top;
pos = (50,120);
}
);
layerId = m01;
shapes = (
{
closed = 1;
nodes = (
(120,0,l),
(120,70,l),
(0,70,l),
(0,0,l)
);
}
);
width = 100;
},
{
anchors = (
{
name = bottom;
pos = (3000,-20);
},
{
name = entry;
pos = (6020,0);
},
{
name = exit;
pos = (20,0);
},
{
name = top;
pos = (3000,120);
}
);
associatedMasterId = m01;
attr = {
coordinates = (
100,
-50
);
};
layerId = "200AAD3F-109F-4B5F-B6CA-7BA661F2BEFA";
name = "17 May 23 at 02:27";
shapes = (
{
closed = 1;
nodes = (
(6020,0,l),
(6020,70,l),
(0,70,l),
(0,0,l)
);
}
);
width = 6000;
}
);
metricLeft = "=0";
metricRight = "=-20";
script = arabic;
sortName = arL0084;
sortNameKeep = arL0084;
unicode = 1600;
}
{
category = Letter;
glyphname = "lam-ar";
kernLeft = lam.fina;
kernRight = lam;
layers = (
{
anchors = (
{
name = top;
pos = (216,780);
}
);
backgroundImage = {
alpha = 80;
imagePath = "images/lam-ar.jpg";
pos = (-378,-514);
scale = (14.67,14.67);
};
layerId = m01;
shapes = (
{
closed = 1;
nodes = (
(-143,-230,l),
(213,-230,ls),
(251,-230,o),
(253,-207,o),
(253,-190,cs),
(248,143,o),
(248,475,o),
(253,808,c),
(284,828,l),
(269,779,o),
(192,683,o),
(142,655,c),
(148,681,l),
(197,651,o),
(179,13,o),
(175,-185,c),
(191,-140,l),
(161,-143,o),
(2,-135,o),
(-16,-105,c),
(12,-109,l),
(-16,-159,o),
(-114,-236,o),
(-163,-251,c)
);
}
);
width = 273;
}
);
metricLeft = "=-120";
metricRight = "=alef-ar";
script = arabic;
sortName = arL0053;
sortNameKeep = arL0053;
unicode = 1604;
}
{
category = Letter;
glyphname = "waw-ar";
layers = (
{
anchors = (
{
name = damma;
pos = (-42,57);
},
{
name = fatha;
pos = (271,498);
},
{
name = hamzaabove;
pos = (58,276);
},
{
name = kasra;
pos = (259,-91);
}
);
layerId = m01;
shapes = (
{
closed = 1;
nodes = (
(526,-21,o),
(528,-6,o),
(534,13,cs),
(563,105,o),
(482,410,o),
(319,410,cs),
(193,410,o),
(117,261,o),
(141,158,cs),
(164,58,o),
(311,60,o),
(413,70,c),
(416,64,o),
(416,63,o),
(416,57,c),
(306,42,o),
(192,44,o),
(124,104,c),
(89,50,o),
(47,26,o),
(0,1,c),
(98,-68,o),
(441,-34,o),
(476,-28,cs)
);
},
{
closed = 1;
nodes = (
(322,224,o),
(318,229,o),
(318,234,cs),
(318,239,o),
(322,243,o),
(328,243,cs),
(333,243,o),
(337,239,o),
(337,234,cs),
(337,229,o),
(333,224,o),
(328,224,cs)
);
}
);
width = 540;
}
);
metricLeft = "=0";
metricRight = "=0";
script = arabic;
sortName = arL0076;
sortNameKeep = arL0076;
unicode = 1608;
}
{
category = Mark;
glyphname = "dammatan-ar";
layers = (
{
anchors = (
{
name = _top;
pos = (66,400);
}
);
layerId = m01;
shapes = (
{
closed = 1;
nodes = (
(43,506,l),
(27,500,o),
(16,508,o),
(17,521,cs),
(17,554,o),
(73,588,o),
(109,568,c),
(116,580,l),
(70,609,o),
(-3,571,o),
(0,518,cs),
(1,494,o),
(21,477,o),
(49,490,c)
);
},
{
closed = 1;
nodes = (
(78,464,o),
(116,493,o),
(116,529,cs),
(116,564,o),
(74,576,o),
(38,538,c),
(78,495,l),
(64,483,o),
(45,473,o),
(25,467,c),
(28,451,l)
);
},
{
closed = 1;
nodes = (
(64,536,l),
(79,547,o),
(98,545,o),
(98,530,cs),
(98,522,o),
(95,515,o),
(90,508,c)
);
}
);
width = 116;
},
{
anchors = (
{
name = _top;
pos = (66,400);
}
);
associatedMasterId = m01;
layerId = "2DE5E1DA-82B1-40E9-9E4A-20133B136E76";
name = "22 Feb 26 at 00:45";
shapes = (
{
closed = 1;
nodes = (
(70,609,o),
(-3,571,o),
(0,518,cs),
(1,494,o),
(21,477,o),
(49,490,c),
(43,506,l),
(27,500,o),
(16,508,o),
(17,521,cs),
(17,554,o),
(73,588,o),
(109,568,c),
(116,580,l)
);
},
{
closed = 1;
nodes = (
(78,464,o),
(116,493,o),
(116,529,cs),
(116,564,o),
(74,576,o),
(38,538,c),
(83,489,l),
(97,501,l),
(64,536,l),
(79,547,o),
(98,545,o),
(98,530,cs),
(98,502,o),
(61,478,o),
(25,467,c),
(28,451,l)
);
}
);
width = 116;
}
);
script = arabic;
sortName = arM1079;
sortNameKeep = arM1079;
subCategory = Nonspacing;
unicode = 1612;
}
{
category = Mark;
glyphname = "kasratan-ar";
layers = (
{
anchors = (
{
name = _bottom;
pos = (75,-100);
}
);
layerId = m01;
shapes = (
{
closed = 1;
nodes = (
(160,-171,l),
(150,-154,l),
(22,-230,l),
(30,-243,l)
);
},
{
closed = 1;
nodes = (
(144,-146,l),
(133,-127,l),
(8,-210,l),
(16,-223,l)
);
}
);
width = 150;
}
);
script = arabic;
sortName = arM1077;
sortNameKeep = arM1077;
subCategory = Nonspacing;
unicode = 1613;
}
{
category = Mark;
glyphname = "damma-ar";
layers = (
{
anchors = (
{
name = _top;
pos = (50,400);
}
);
layerId = m01;
shapes = (
{
closed = 1;
nodes = (
(57,460,o),
(100,491,o),
(100,529,cs),
(100,564,o),
(58,576,o),
(22,538,c),
(67,489,l),
(81,501,l),
(48,536,l),
(63,547,o),
(82,545,o),
(82,530,cs),
(82,500,o),
(38,473,o),
(0,464,c),
(3,449,l)
);
}
);
width = 100;
}
);
script = arabic;
sortName = arM1078;
sortNameKeep = arM1078;
subCategory = Nonspacing;
unicode = 1615;
}
{
category = Mark;
glyphname = "kasra-ar";
layers = (
{
anchors = (
{
name = _bottom;
pos = (75,-100);
}
);
layerId = m01;
shapes = (
{
closed = 1;
nodes = (
(144,-146,l),
(133,-127,l),
(8,-210,l),
(16,-223,l)
);
}
);
width = 150;
}
);
script = arabic;
sortName = arM1076;
sortNameKeep = arM1076;
subCategory = Nonspacing;
unicode = 1616;
}
{
category = Mark;
glyphname = "shadda-ar";
layers = (
{
anchors = (
{
name = _top;
pos = (75,400);
},
{
name = top;
pos = (61,488);
}
);
layerId = m01;
shapes = (
{
closed = 1;
nodes = (
(34,513,l),
(15,502,l),
(24,432,l),
(126,493,l),
(116,563,l),
(98,552,l),
(104,503,l),
(40,465,l)
);
},
{
closed = 1;
nodes = (
(75,538,l),
(56,527,l),
(64,469,l),
(84,468,l)
);
}
);
width = 150;
}
);
script = arabic;
sortName = arM1080;
sortNameKeep = arM1080;
subCategory = Nonspacing;
unicode = 1617;
}
{
category = Mark;
glyphname = "sukun-ar";
layers = (
{
anchors = (
{
name = _top;
pos = (50,390);
}
);
layerId = m01;
shapes = (
{
closed = 1;
nodes = (
(74,461,o),
(94,481,o),
(94,506,cs),
(94,530,o),
(74,550,o),
(50,550,cs),
(25,550,o),
(5,530,o),
(5,506,cs),
(5,481,o),
(25,461,o),
(50,461,cs)
);
},
{
closed = 1;
nodes = (
(35,478,o),
(22,491,o),
(22,506,cs),
(22,520,o),
(35,533,o),
(50,533,cs),
(64,533,o),
(77,520,o),
(77,506,cs),
(77,491,o),
(64,478,o),
(50,478,cs)
);
}
);
width = 100;
}
);
script = arabic;
sortName = arM1081;
sortNameKeep = arM1081;
subCategory = Nonspacing;
unicode = 1618;
}
{
glyphname = "zero-ar";
kernLeft = "zero-ar";
kernRight = "zero-ar";
layers = (
{
layerId = m01;
shapes = (
{
closed = 1;
nodes = (
(360,353,l),
(255,459,l),
(150,353,l),
(255,246,l)
);
}
);
width = 510;
}
);
metricLeft = "=150";
metricRight = "=150";
unicode = (1632,1776);
}
{
glyphname = "one-ar";
kernLeft = "one-ar";
layers = (
{
layerId = m01;
shapes = (
{
closed = 1;
nodes = (
(240,12,l),
(217,187,o),
(176,367,o),
(114,540,c),
(60,516,l),
(119,348,o),
(158,172,o),
(181,0,c)
);
}
);
width = 300;
},
{
associatedMasterId = m01;
layerId = "F56B1598-2763-43B6-95B8-2020382C4744";
name = "4 Jul 25 at 07:11";
shapes = (
{
closed = 1;
nodes = (
(214,10,l),
(192,173,o),
(157,342,o),
(94,500,c),
(50,481,l),
(109,326,o),
(145,160,o),
(166,0,c)
);
}
);
width = 264;
}
);
metricLeft = "=60";
metricRight = "=|";
unicode = (1633,1777);
}
{
glyphname = "two-ar";
kernLeft = "one-ar";
kernRight = "two-ar";
layers = (
{
layerId = m01;
shapes = (
{
ref = "one-ar";
},
{
closed = 1;
nodes = (
(375,566,o),
(309,525,o),
(255,525,cs),
(221,525,o),
(191,540,o),
(179,567,c),
(119,522,l),
(153,477,o),
(204,450,o),
(261,450,cs),
(365,450,o),
(450,537,o),
(450,668,c),
(375,668,l)
);
}
);
width = 525;
}
);
metricLeft = "=one-ar";
metricRight = "=75";
unicode = (1634,1778);
}
{
glyphname = "three-ar";
kernLeft = "one-ar";
kernRight = "two-ar";
layers = (
{
layerId = m01;
shapes = (
{
closed = 1;
nodes = (
(240,12,l),
(224,135,o),
(198,262,o),
(163,386,c),
(209,378,o),
(248,398,o),
(270,432,c),
(290,402,o),
(320,384,o),
(355,384,cs),
(424,384,o),
(468,454,o),
(468,534,c),
(408,534,l),
(408,481,o),
(384,444,o),
(354,444,cs),
(324,444,o),
(300,480,o),
(300,534,c),
(240,534,l),
(240,481,o),
(214,444,o),
(186,444,cs),
(159,444,o),
(144,459,o),
(133,484,c),
(114,540,l),
(60,516,l),
(119,348,o),
(158,172,o),
(181,0,c)
);
}
);
width = 528;
},
{
associatedMasterId = m01;
layerId = "8122C389-3C06-490A-B84D-9FE9A57573E8";
name = "22 Feb 26 at 00:40";
shapes = (
{
closed = 1;
nodes = (
(216,384,o),
(250,402,o),
(270,432,c),
(290,402,o),
(320,384,o),
(355,384,cs),
(424,384,o),
(468,454,o),
(468,534,c),
(408,534,l),
(408,481,o),
(384,444,o),
(354,444,cs),
(324,444,o),
(300,480,o),
(300,534,c),
(240,534,l),
(240,481,o),
(214,444,o),
(186,444,cs),
(158,444,o),
(143,461,o),
(132,487,c),
(79,462,l),
(98,416,o),
(134,384,o),
(181,384,cs)
);
},
{
ref = "one-ar";
}
);
width = 528;
}
);
metricLeft = "=one-ar";
metricRight = "=two-ar";
unicode = (1635,1779);
}
{
glyphname = "four-ar";
layers = (
{
layerId = m01;
shapes = (
{
closed = 1;
nodes = (
(366,59,l),
(192,102,l),
(242,232,ls),
(257,269,o),
(244,296,o),
(206,308,cs),
(124,335,l),
(211,514,l),
(157,540,l),
(68,360,ls),
(48,318,o),
(66,290,o),
(100,280,cs),
(186,252,l),
(133,120,ls),
(116,78,o),
(134,50,o),
(180,40,cs),
(353,0,l)
);
}
);
width = 426;
},
{
associatedMasterId = m01;
layerId = "C10D7589-72E9-410F-855C-981DCFBAD110";
name = "4 Jul 25 at 06:43";
shapes = (
{
ref = "one-ar";
}
);
width = 300;
},
{
associatedMasterId = m01;
layerId = "1DDC8EAF-AE99-4243-B012-796099C4FE01";
name = "4 Jul 25 at 07:37";
shapes = (
{
closed = 1;
nodes = (
(171,66,l),
(228,218,l),
(90,257,l),
(153,396,l),
(108,417,l),
(20,225,l),
(162,185,l),
(102,25,l),
(287,-1,l),
(294,49,l)
);
}
);
width = 314;
},
{
associatedMasterId = m01;
layerId = "91D730BE-4C0B-44E6-8CB7-532AF23740DD";
name = "4 Jul 25 at 07:39";
shapes = (
{
closed = 1;
nodes = (
(276,49,l),
(170,64,ls),
(159,66,o),
(155,72,o),
(159,82,cs),
(190,164,ls),
(203,199,o),
(190,224,o),
(155,234,cs),
(88,253,ls),
(78,256,o),
(75,262,o),
(79,272,cs),
(128,379,l),
(83,400,l),
(27,279,ls),
(11,244,o),
(23,219,o),
(59,209,cs),
(129,189,ls),
(138,186,o),
(141,179,o),
(138,170,cs),
(106,83,ls),
(93,47,o),
(107,21,o),
(145,16,cs),
(269,-1,l)
);
}
);
width = 296;
},
{
associatedMasterId = m01;
layerId = "8CBFB617-7A47-41AC-BA58-2CBA2DDBA6B1";
name = "4 Jul 25 at 07:42";
shapes = (
{
closed = 1;
nodes = (
(275,50,l),
(108,72,l),
(137,24,l),
(191,169,ls),
(202,200,o),
(191,223,o),
(159,233,cs),
(29,271,l),
(53,217,l),
(128,379,l),
(83,400,l),
(27,279,ls),
(11,244,o),
(23,219,o),
(59,209,cs),
(165,179,l),
(154,213,l),
(106,83,ls),
(93,47,o),
(107,21,o),
(145,16,cs),
(268,0,l)
);
}
);
width = 295;
},
{
associatedMasterId = m01;
layerId = "78BC309C-57C0-473C-8E8B-057626DFB41E";
name = "4 Jul 25 at 07:51";
shapes = (
{
closed = 0;
nodes = (
(270,50,l),
(128,83,l),
(174,199,ls),
(187,231,o),
(171,249,o),
(138,259,cs),
(72,279,l),
(144,425,l)
);
},
{
closed = 0;
nodes = (
(101,450,l),
(27,300,ls),
(10,265,o),
(25,242,o),
(53,233,cs),
(125,210,l),
(81,100,ls),
(67,65,o),
(82,42,o),
(120,33,cs),
(265,0,l)
);
}
);
width = 290;
}
);
metricLeft = "=one-ar";
metricRight = "=|";
unicode = 1636;
}
{
glyphname = "five-ar";
kernLeft = "zero-ar";
kernRight = "zero-ar";
layers = (
{
layerId = m01;
shapes = (
{
closed = 1;
nodes = (
(383,188,o),
(450,255,o),
(450,375,cs),
(450,449,o),
(399,563,o),
(263,563,cs),
(126,563,o),
(75,449,o),
(75,375,cs),
(75,255,o),
(143,188,o),
(263,188,cs)
);
},
{
closed = 1;
nodes = (
(188,263,o),
(150,294,o),
(150,375,cs),
(150,422,o),
(180,488,o),
(263,488,cs),
(345,488,o),
(375,422,o),
(375,375,cs),
(375,294,o),
(338,263,o),
(263,263,cs)
);
}
);
width = 525;
}
);
metricLeft = "=75";
metricRight = "=75";
unicode = 1637;
}
{
glyphname = "six-ar";
kernLeft = "six-ar";
kernRight = "eight-ar";
layers = (
{
layerId = m01;
shapes = (
{
closed = 1;
nodes = (
(555,32,l),
(482,242,o),
(455,471,o),
(450,675,c),
(380,626,l),
(384,429,o),
(414,203,o),
(485,0,c)
);
},
{
closed = 1;
nodes = (
(450,675,l),
(326,645,o),
(200,647,o),
(75,675,c),
(75,600,l),
(191,575,o),
(311,570,o),
(428,593,c)
);
}
);
width = 630;
}
);
metricLeft = "=75";
metricRight = "=75";
unicode = 1638;
}
{
glyphname = "seven-ar";
kernLeft = "one-ar";
kernRight = "seven-ar";
layers = (
{
layerId = m01;
shapes = (
{
closed = 1;
nodes = (
(375,0,l),
(429,219,o),
(509,446,o),
(600,660,c),
(534,689,l),
(438,470,o),
(359,239,o),
(303,15,c),
(372,15,l),
(317,239,o),
(237,470,o),
(141,689,c),
(75,660,l),
(167,446,o),
(246,219,o),
(300,0,c)
);
}
);
width = 675;
}
);
metricLeft = "=one-ar";
metricRight = "=|";
unicode = 1639;
}
{
glyphname = "nine-ar";
kernLeft = "six-ar";
kernRight = "eight-ar";
layers = (
{
layerId = m01;
shapes = (
{
closed = 1;
nodes = (
(383,315,o),
(450,383,o),
(450,503,cs),
(449,587,o),
(399,690,o),
(263,690,cs),
(126,690,o),
(75,576,o),
(75,503,cs),
(75,383,o),
(143,315,o),
(263,315,cs)
);
},
{
closed = 1;
nodes = (
(545,32,l),
(492,185,o),
(462,347,o),
(450,503,c),
(372,551,l),
(381,374,o),
(413,179,o),
(474,0,c)
);
},
{
closed = 1;
nodes = (
(188,390,o),
(150,422,o),
(150,503,cs),
(150,549,o),
(180,615,o),
(263,615,cs),
(345,615,o),
(372,557,o),
(375,503,cs),
(375,422,o),
(338,390,o),
(263,390,cs)
);
}
);
width = 620;
}
);
metricLeft = "=five-ar";
metricRight = "=six-ar";
unicode = (1641,1785);
}
{
glyphname = "percent-ar";
layers = (
{
layerId = m01;
shapes = (
{
closed = 1;
nodes = (
(403,607,l),
(357,633,l),
(0,15,l),
(46,-11,l)
);
},
{
pos = (298,0);
ref = period;
},
{
pos = (0,524);
ref = period;
}
);
width = 423;
}
);
metricLeft = "=0";
metricRight = "=20";
unicode = 1642;
}
{
category = Letter;
color = 9;
glyphname = "fehDotless-ar";
kernLeft = beh;
kernRight = dal;
layers = (
{
anchors = (
{
name = bottom;
pos = (761,-18);
},
{
name = bottom.hist;
pos = (911,6);
},
{
name = top;
pos = (722,385);
},
{
name = top.hist;
pos = (653,332);
}
);
layerId = m01;
shapes = (
{
closed = 1;
nodes = (
(-23,0,l),
(670,0,l),
(670,70,l),
(293,70,ls),
(241,70,o),
(120,79,o),
(104,105,c),
(132,121,l),
(104,71,o),
(6,-6,o),
(-43,-21,c)
);
},
{
closed = 1;
nodes = (
(912,127,o),
(850,358,o),
(722,358,cs),
(644,358,o),
(585,264,o),
(585,191,cs),
(585,157,o),
(598,127,o),
(625,111,cs),
(674,81,o),
(795,88,o),
(831,88,c),
(802,138,l),
(813,104,o),
(819,82,o),
(823,43,c),
(836,70,l),
(565,70,l),
(565,0,l),
(884,0,ls),
(918,0,o),
(922,28,o),
(920,43,cs)
);
},
{
closed = 1;
nodes = (
(710,202,o),
(703,209,o),
(703,217,cs),
(703,225,o),
(710,232,o),
(718,232,cs),
(726,232,o),
(733,225,o),
(733,217,cs),
(733,209,o),
(726,202,o),
(718,202,cs)
);
}
);
width = 940;
},
{
anchors = (
{
name = bottom;
pos = (331,-18);
},
{
name = bottom.hist;
pos = (481,6);
},
{
name = top;
pos = (292,385);
},
{
name = top.hist;
pos = (223,332);
}
);
associatedMasterId = m01;
attr = {
coordinates = (
0
);
};
layerId = "32CE617B-9BC0-4F91-998B-D8877494DCA0";
name = "17 May 23 at 17:31";
shapes = (
{
closed = 1;
nodes = (
(-23,0,l),
(340,0,l),
(340,70,l),
(293,70,ls),
(241,70,o),
(120,79,o),
(104,105,c),
(132,121,l),
(104,71,o),
(6,-6,o),
(-43,-21,c)
);
},
{
closed = 1;
nodes = (
(482,127,o),
(420,358,o),
(292,358,cs),
(214,358,o),
(155,264,o),
(155,191,cs),
(155,157,o),
(168,127,o),
(195,111,cs),
(244,81,o),
(365,88,o),
(401,88,c),
(372,138,l),
(383,104,o),
(389,82,o),
(393,43,c),
(406,70,l),
(135,70,l),
(135,0,l),
(454,0,ls),
(488,0,o),
(492,28,o),
(490,43,cs)
);
},
{
closed = 1;
nodes = (
(286,206,o),
(281,211,o),
(281,217,cs),
(281,223,o),
(286,228,o),
(292,228,cs),
(298,228,o),
(303,223,o),
(303,217,cs),
(303,211,o),
(298,206,o),
(292,206,cs)
);
}
);
width = 510;
},
{
anchors = (
{
name = bottom;
pos = (5821,-18);
},
{
name = bottom.hist;
pos = (5971,6);
},
{
name = top;
pos = (5782,385);
},
{
name = top.hist;
pos = (5713,332);
}
);
associatedMasterId = m01;
attr = {
coordinates = (
100
);
};
layerId = "CD47D3D8-91E7-4A64-A046-25B89C87F1C6";
name = "17 May 23 at 17:31";
shapes = (
{
closed = 1;
nodes = (
(-23,0,l),
(5730,0,l),
(5730,70,l),
(293,70,ls),
(241,70,o),
(120,79,o),
(104,105,c),
(132,121,l),
(104,71,o),
(6,-6,o),
(-43,-21,c)
);
},
{
closed = 1;
nodes = (
(5972,127,o),
(5910,358,o),
(5782,358,cs),
(5704,358,o),
(5645,264,o),
(5645,191,cs),
(5645,157,o),
(5658,127,o),
(5685,111,cs),
(5734,81,o),
(5855,88,o),
(5891,88,c),
(5862,138,l),
(5873,104,o),
(5879,82,o),
(5883,43,c),
(5896,70,l),
(5625,70,l),
(5625,0,l),
(5944,0,ls),
(5978,0,o),
(5982,28,o),
(5980,43,cs)
);
},
{
closed = 1;
nodes = (
(5776,206,o),
(5771,211,o),
(5771,217,cs),
(5771,223,o),
(5776,228,o),
(5782,228,cs),
(5788,228,o),
(5793,223,o),
(5793,217,cs),
(5793,211,o),
(5788,206,o),
(5782,206,cs)
);
}
);
width = 6000;
}
);
metricLeft = "=behDotless-ar";
metricRight = "=behDotless-ar";
metricWidth = "=behDotless-ar";
script = arabic;
sortName = arL0039;
sortNameKeep = arL0039;
unicode = 1697;
}
{
category = Letter;
color = 9;
glyphname = "yehbarree-ar";
kernRight = hah;
layers = (
{
anchors = (
{
name = bottom;
pos = (383,-24);
},
{
name = bottom.hist;
pos = (420,-24);
},
{
name = top;
pos = (128,261);
}
);
layerId = m01;
shapes = (
{
closed = 1;
nodes = (
(669,9,l),
(692,27,o),
(726,46,o),
(765,62,c),
(220,62,ls),
(139,62,o),
(102,86,o),
(73,130,c),
(91,140,l),
(157,59,o),
(240,79,o),
(262,180,c),
(247,176,o),
(227,179,o),
(215,191,cs),
(181,224,o),
(158,241,o),
(128,241,cs),
(51,241,o),
(0,176,o),
(0,103,cs),
(0,45,o),
(43,-12,o),
(190,-7,cs)
);
}
);
width = 785;
},
{
anchors = (
{
name = bottom;
pos = (383,-24);
},
{
name = bottom.hist;
pos = (420,-24);
},
{
name = top;
pos = (128,261);
}
);
associatedMasterId = m01;
attr = {
coordinates = (
100,
-50
);
};
layerId = "3444D173-CF51-4DBE-AEC0-B403DA5AE46E";
name = "{100} 22 Feb 26 at 00:38";
shapes = (
{
closed = 1;
nodes = (
(5886,10,l),
(5908,27,o),
(5942,46,o),
(5980,62,c),
(220,62,ls),
(139,62,o),
(102,86,o),
(73,130,c),
(91,140,l),
(157,59,o),
(240,79,o),
(262,180,c),
(247,176,o),
(227,179,o),
(215,191,cs),
(181,224,o),
(158,241,o),
(128,241,cs),
(51,241,o),
(0,176,o),
(0,103,cs),
(0,45,o),
(43,-7,o),
(190,-7,cs)
);
}
);
width = 6000;
},
{
anchors = (
{
name = bottom;
pos = (383,-24);
},
{
name = bottom.hist;
pos = (420,-24);
},
{
name = top;
pos = (128,261);
}
);
associatedMasterId = m01;
layerId = "6F366F50-ADC0-4B6D-9603-CEEBFF83328D";
name = "23 May 23 at 04:23";
shapes = (
{
closed = 1;
nodes = (
(135,55,o),
(237,65,o),
(262,180,c),
(247,176,o),
(227,179,o),
(215,191,cs),
(181,224,o),
(158,241,o),
(128,241,cs),
(51,241,o),
(0,176,o),
(0,103,cs),
(0,45,o),
(43,-7,o),
(190,-7,cs),
(5921,10,l),
(5864,-12,l),
(5882,16,o),
(5946,50,o),
(6012,75,c),
(6025,62,l),
(220,62,ls),
(122,62,o),
(88,97,o),
(55,161,c),
(26,103,l),
(128,161,l),
(66,178,l)
);
}
);
width = 6000;
},
{
anchors = (
{
name = bottom;
pos = (383,-24);
},
{
name = bottom.hist;
pos = (420,-24);
},
{
name = top;
pos = (128,261);
}
);
associatedMasterId = m01;
layerId = "4D33AE57-B3A3-427A-82B8-C3E12B25517B";
name = "22 Feb 26 at 00:38";
shapes = (
{
closed = 1;
nodes = (
(135,55,o),
(237,65,o),
(262,180,c),
(247,176,o),
(227,179,o),
(215,191,cs),
(181,224,o),
(158,241,o),
(128,241,cs),
(51,241,o),
(0,176,o),
(0,103,cs),
(0,45,o),
(43,-12,o),
(190,-7,cs),
(706,10,l),
(649,-12,l),
(667,16,o),
(731,50,o),
(797,75,c),
(810,62,l),
(220,62,ls),
(122,62,o),
(88,97,o),
(55,161,c),
(26,103,l),
(128,161,l),
(66,178,l)
);
}
);
width = 785;
}
);
metricLeft = "=yehbarree-ar.fina";
metricRight = "=yehbarree-ar.fina";
metricWidth = "=yehbarree-ar.fina";
script = arabic;
sortName = arL0081;
sortNameKeep = arL0081;
unicode = 1746;
}
{
category = Punctuation;
glyphname = "endofayah-ar";
layers = (
{
guides = (
{
angle = 90;
pos = (200,152);
},
{
angle = 180;
pos = (200,152);
},
{
angle = 202.5;
pos = (200,152);
},
{
angle = 247.5;
pos = (200,152);
},
{
angle = 225;
pos = (200,152);
}
);
layerId = m01;
shapes = (
{
closed = 1;
nodes = (
(294,-16,o),
(368,60,o),
(368,152,cs),
(368,244,o),
(294,320,o),
(200,320,cs),
(108,320,o),
(32,244,o),
(32,152,cs),
(32,60,o),
(108,-16,o),
(200,-16,cs)
);
},
{
closed = 1;
nodes = (
(147,0,o),
(164,49,o),
(184,96,c),
(180,97,o),
(175,99,o),
(172,101,c),
(154,54,o),
(129,7,o),
(92,44,cs),
(56,81,o),
(102,106,o),
(149,123,c),
(147,126,o),
(145,131,o),
(143,136,c),
(97,115,o),
(48,99,o),
(48,152,cs),
(48,205,o),
(97,188,o),
(144,168,c),
(145,172,o),
(147,177,o),
(149,181,c),
(102,199,o),
(56,223,o),
(92,260,cs),
(130,296,o),
(154,250,o),
(172,202,c),
(175,204,o),
(180,207,o),
(184,208,c),
(164,255,o),
(148,304,o),
(200,304,cs),
(253,304,o),
(237,255,o),
(216,208,c),
(221,207,o),
(225,205,o),
(229,203,c),
(246,250,o),
(271,296,o),
(308,260,cs),
(344,223,o),
(299,198,o),
(251,181,c),
(253,177,o),
(256,172,o),
(256,168,c),
(303,188,o),
(352,204,o),
(352,152,cs),
(352,99,o),
(303,115,o),
(256,136,c),
(255,131,o),
(253,127,o),
(251,123,c),
(299,106,o),
(344,81,o),
(308,44,cs),
(271,8,o),
(246,53,o),
(229,101,c),
(225,99,o),
(221,96,o),
(216,96,c),
(237,49,o),
(253,0,o),
(200,0,cs)
);
},
{
closed = 1;
nodes = (
(222,114,o),
(238,131,o),
(238,152,cs),
(238,172,o),
(222,190,o),
(200,190,cs),
(180,190,o),
(162,172,o),
(162,152,cs),
(162,131,o),
(180,114,o),
(200,114,cs)
);
}
);
width = 400;
},
{
associatedMasterId = m01;
attr = {
colorPalette = 1;
};
layerId = "38461C08-F54E-4BE4-9620-3C6CF5840E38";
shapes = (
{
closed = 1;
nodes = (
(294,-16,o),
(368,60,o),
(368,152,cs),
(368,244,o),
(294,320,o),
(200,320,cs),
(108,320,o),
(32,244,o),
(32,152,cs),
(32,60,o),
(108,-16,o),
(200,-16,cs)
);
}
);
width = 400;
},
{
associatedMasterId = m01;
attr = {
colorPalette = 2;
};
layerId = "A1159DA2-F385-4606-A8B3-A130608730DA";
shapes = (
{
closed = 1;
nodes = (
(294,-16,o),
(368,60,o),
(368,152,cs),
(368,244,o),
(294,320,o),
(200,320,cs),
(108,320,o),
(32,244,o),
(32,152,cs),
(32,60,o),
(108,-16,o),
(200,-16,cs)
);
},
{
closed = 1;
nodes = (
(147,0,o),
(164,49,o),
(184,96,c),
(180,97,o),
(175,99,o),
(172,101,c),
(154,54,o),
(129,7,o),
(92,44,cs),
(56,81,o),
(102,106,o),
(149,123,c),
(147,126,o),
(145,131,o),
(143,136,c),
(97,115,o),
(48,99,o),
(48,152,cs),
(48,205,o),
(97,188,o),
(144,168,c),
(145,172,o),
(147,177,o),
(149,181,c),
(102,199,o),
(56,223,o),
(92,260,cs),
(130,296,o),
(154,250,o),
(172,202,c),
(175,204,o),
(180,207,o),
(184,208,c),
(164,255,o),
(148,304,o),
(200,304,cs),
(253,304,o),
(237,255,o),
(216,208,c),
(221,207,o),
(225,205,o),
(229,203,c),
(246,250,o),
(271,296,o),
(308,260,cs),
(344,223,o),
(299,198,o),
(251,181,c),
(253,177,o),
(256,172,o),
(256,168,c),
(303,188,o),
(352,204,o),
(352,152,cs),
(352,99,o),
(303,115,o),
(256,136,c),
(255,131,o),
(253,127,o),
(251,123,c),
(299,106,o),
(344,81,o),
(308,44,cs),
(271,8,o),
(246,53,o),
(229,101,c),
(225,99,o),
(221,96,o),
(216,96,c),
(237,49,o),
(253,0,o),
(200,0,cs)
);
},
{
closed = 1;
nodes = (
(222,114,o),
(238,131,o),
(238,152,cs),
(238,172,o),
(222,190,o),
(200,190,cs),
(180,190,o),
(162,172,o),
(162,152,cs),
(162,131,o),
(180,114,o),
(200,114,cs)
);
}
);
width = 400;
},
{
associatedMasterId = m01;
attr = {
colorPalette = 0;
};
guides = (
{
angle = 90;
pos = (200,152);
},
{
angle = 180;
pos = (200,152);
},
{
angle = 202.5;
pos = (200,152);
},
{
angle = 247.5;
pos = (200,152);
},
{
angle = 225;
pos = (200,152);
}
);
layerId = "F1582E70-E757-409A-AE56-0C2D8B4714EF";
shapes = (
{
closed = 1;
nodes = (
(153,277,o),
(165,289,o),
(165,304,cs),
(165,320,o),
(153,331,o),
(138,331,cs),
(123,331,o),
(111,320,o),
(111,304,cs),
(111,289,o),
(123,277,o),
(138,277,cs)
);
},
{
closed = 1;
nodes = (
(277,277,o),
(289,289,o),
(289,304,cs),
(289,320,o),
(277,331,o),
(262,331,cs),
(247,331,o),
(235,320,o),
(235,304,cs),
(235,289,o),
(247,277,o),
(262,277,cs)
);
},
{
closed = 1;
nodes = (
(153,-27,o),
(165,-15,o),
(165,0,cs),
(165,16,o),
(153,27,o),
(138,27,cs),
(123,27,o),
(111,16,o),
(111,0,cs),
(111,-15,o),
(123,-27,o),
(138,-27,cs)
);
},
{
closed = 1;
nodes = (
(277,-27,o),
(289,-15,o),
(289,0,cs),
(289,16,o),
(277,27,o),
(262,27,cs),
(247,27,o),
(235,16,o),
(235,0,cs),
(235,-15,o),
(247,-27,o),
(262,-27,cs)
);
},
{
closed = 1;
nodes = (
(62,187,o),
(74,199,o),
(74,214,cs),
(74,229,o),
(62,241,o),
(47,241,cs),
(31,241,o),
(20,229,o),
(20,214,cs),
(20,199,o),
(31,187,o),
(47,187,cs)
);
},
{
closed = 1;
nodes = (
(62,63,o),
(74,74,o),
(74,90,cs),
(74,105,o),
(62,117,o),
(47,117,cs),
(31,117,o),
(20,105,o),
(20,90,cs),
(20,74,o),
(31,63,o),
(47,63,cs)
);
},
{
closed = 1;
nodes = (
(368,187,o),
(380,199,o),
(380,214,cs),
(380,229,o),
(368,241,o),
(353,241,cs),
(337,241,o),
(326,229,o),
(326,214,cs),
(326,199,o),
(337,187,o),
(353,187,cs)
);
},
{
closed = 1;
nodes = (
(368,63,o),
(380,74,o),
(380,90,cs),
(380,105,o),
(368,117,o),
(353,117,cs),
(337,117,o),
(326,105,o),
(326,90,cs),
(326,74,o),
(337,63,o),
(353,63,cs)
);
}
);
width = 400;
}
);
metricRight = "=|";
metricWidth = "=space";
script = arabic;
sortName = arP0989;
sortNameKeep = ar3267;
unicode = 1757;
}
{
glyphname = "fourFarsi-ar";
kernLeft = "one-ar";
kernRight = "two-ar";
layers = (
{
layerId = m01;
shapes = (
{
closed = 1;
nodes = (
(518,456,l),
(395,417,o),
(206,422,o),
(128,495,c),
(122,408,l),
(236,344,o),
(416,345,o),
(540,384,c)
);
},
{
closed = 1;
nodes = (
(260,15,l),
(237,192,o),
(198,374,o),
(144,551,c),
(75,521,l),
(126,348,o),
(164,173,o),
(186,0,c)
);
},
{
closed = 1;
nodes = (
(518,456,l),
(474,441,o),
(405,444,o),
(405,507,cs),
(405,542,o),
(435,576,o),
(497,576,c),
(497,651,l),
(393,651,o),
(330,584,o),
(330,507,cs),
(330,407,o),
(417,362,o),
(506,377,c)
);
}
);
width = 615;
}
);
metricLeft = "=three-ar";
metricRight = "=three-ar";
sortName = ar3139;
sortNameKeep = ar3168;
unicode = 1780;
}
{
glyphname = "fiveFarsi-ar";
layers = (
{
associatedMasterId = m01;
layerId = "A73E18B3-8D34-4249-BF1E-3B9FD53E4F7C";
name = "2 Jul 25 at 01:58";
shapes = (
{
closed = 1;
nodes = (
(308,50,o),
(350,138,o),
(350,236,cs),
(350,360,o),
(284,500,o),
(200,500,cs),
(116,500,o),
(50,360,o),
(50,236,cs),
(50,138,o),
(92,50,o),
(200,50,cs)
);
},
{
closed = 1;
nodes = (
(127,100,o),
(100,161,o),
(100,232,cs),
(100,331,o),
(151,450,o),
(200,450,cs),
(249,450,o),
(300,331,o),
(300,232,cs),
(300,161,o),
(273,100,o),
(200,100,cs)
);
}
);
width = 400;
},
{
associatedMasterId = m01;
layerId = "D2068597-C7E4-49CA-87AD-F5103A06CB77";
name = "4 Jul 25 at 07:58";
shapes = (
{
closed = 1;
nodes = (
(255,125,o),
(300,170,o),
(300,250,cs),
(300,299,o),
(266,375,o),
(175,375,cs),
(84,375,o),
(50,299,o),
(50,250,cs),
(50,170,o),
(95,125,o),
(175,125,cs)
);
},
{
closed = 1;
nodes = (
(125,175,o),
(100,196,o),
(100,250,cs),
(100,281,o),
(120,325,o),
(175,325,cs),
(230,325,o),
(250,281,o),
(250,250,cs),
(250,196,o),
(225,175,o),
(175,175,cs)
);
}
);
width = 400;
},
{
associatedMasterId = m01;
layerId = "F913C020-F221-483A-B121-F28E0F7FF53E";
name = "4 Jul 25 at 08:00";
shapes = (
{
closed = 0;
nodes = (
(152,446,l),
(201,396,o),
(300,321,o),
(300,225,cs),
(300,171,o),
(255,125,o),
(173,125,cs),
(90,125,o),
(50,172,o),
(50,225,cs),
(50,300,o),
(104,356,o),
(162,396,c)
);
}
);
width = 400;
},
{
associatedMasterId = m01;
layerId = "7878FBA3-5BF2-4B1C-8898-46BB9013F48B";
name = "22 Feb 26 at 00:41";
shapes = (
{
closed = 1;
nodes = (
(188,120,o),
(228,157,o),
(228,240,c),
(186,240,l),
(186,157,o),
(227,120,o),
(269,120,cs),
(313,120,o),
(360,164,o),
(360,245,cs),
(360,352,o),
(251,436,o),
(182,504,c),
(139,462,l),
(175,427,ls),
(235,371,o),
(300,307,o),
(300,245,cs),
(300,203,o),
(281,180,o),
(263,180,cs),
(245,180,o),
(228,199,o),
(228,240,c),
(186,240,l),
(186,202,o),
(169,180,o),
(152,180,cs),
(136,180,o),
(120,200,o),
(120,245,cs),
(120,284,o),
(146,338,o),
(228,395,c),
(194,444,l),
(95,376,o),
(60,304,o),
(60,245,cs),
(60,164,o),
(104,120,o),
(148,120,cs)
);
}
);
width = 420;
},
{
associatedMasterId = m01;
layerId = "5379FBE5-F773-4E41-BD52-228AE79A40FE";
name = "19 Apr 26 at 02:27";
shapes = (
{
closed = 1;
nodes = (
(170,120,o),
(192,132,o),
(207,155,c),
(223,131,o),
(246,120,o),
(269,120,cs),
(313,120,o),
(360,164,o),
(360,245,cs),
(360,352,o),
(251,436,o),
(182,504,c),
(139,462,l),
(173,429,l),
(89,365,o),
(60,300,o),
(60,245,cs),
(60,164,o),
(104,120,o),
(148,120,cs)
);
},
{
closed = 1;
nodes = (
(136,180,o),
(120,200,o),
(120,245,cs),
(120,282,o),
(144,333,o),
(217,387,c),
(262,341,o),
(300,293,o),
(300,245,cs),
(300,203,o),
(281,180,o),
(263,180,cs),
(245,180,o),
(228,199,o),
(228,240,c),
(186,240,l),
(186,202,o),
(169,180,o),
(152,180,cs)
);
}
);
width = 420;
},
{
layerId = m01;
name = Regular;
shapes = (
{
closed = 1;
nodes = (
(197,32,o),
(215,52,o),
(215,74,c),
(205,74,l),
(205,52,o),
(223,32,o),
(256,32,cs),
(309,32,o),
(360,88,o),
(360,202,cs),
(360,339,o),
(291,470,o),
(210,470,cs),
(129,470,o),
(60,339,o),
(60,202,cs),
(60,88,o),
(111,32,o),
(164,32,cs)
);
},
{
closed = 1;
nodes = (
(149,92,o),
(120,122,o),
(120,202,cs),
(120,316,o),
(177,410,o),
(210,410,cs),
(243,410,o),
(300,316,o),
(300,202,cs),
(300,122,o),
(271,92,o),
(256,92,cs),
(238,92,o),
(230,115,o),
(230,154,c),
(190,154,l),
(190,115,o),
(182,92,o),
(164,92,cs)
);
}
);
width = 420;
},
{
associatedMasterId = m01;
background = {
shapes = (
{
closed = 1;
nodes = (
(170,0,o),
(192,12,o),
(207,35,c),
(223,11,o),
(246,0,o),
(269,0,cs),
(313,0,o),
(360,44,o),
(360,125,cs),
(360,232,o),
(251,316,o),
(182,384,c),
(139,342,l),
(173,309,l),
(89,245,o),
(60,180,o),
(60,125,cs),
(60,44,o),
(104,0,o),
(148,0,cs)
);
},
{
closed = 1;
nodes = (
(136,60,o),
(120,80,o),
(120,125,cs),
(120,162,o),
(144,213,o),
(217,267,c),
(262,221,o),
(300,173,o),
(300,125,cs),
(300,83,o),
(281,60,o),
(263,60,cs),
(245,60,o),
(228,79,o),
(228,120,c),
(186,120,l),
(186,82,o),
(169,60,o),
(152,60,cs)
);
}
);
};
layerId = "29A9FAB0-EFA8-4155-8AA5-4AB32C9C079F";
name = "19 Apr 26 at 02:30";
shapes = (
{
closed = 1;
nodes = (
(187,0,o),
(207,20,o),
(217,42,c),
(203,42,l),
(213,20,o),
(233,0,o),
(256,0,cs),
(309,0,o),
(360,56,o),
(360,170,cs),
(360,307,o),
(291,438,o),
(210,438,cs),
(129,438,o),
(60,307,o),
(60,170,cs),
(60,56,o),
(111,0,o),
(164,0,cs)
);
},
{
closed = 1;
nodes = (
(133,50,o),
(110,95,o),
(110,170,cs),
(110,269,o),
(161,388,o),
(210,388,cs),
(259,388,o),
(310,269,o),
(310,170,cs),
(310,95,o),
(287,50,o),
(259,50,cs),
(235,50,o),
(215,77,o),
(215,113,c),
(205,113,l),
(205,77,o),
(185,50,o),
(161,50,cs)
);
}
);
width = 420;
}
);
metricLeft = "=five-ar";
metricRight = "=five-ar";
sortName = ar3142;
sortNameKeep = ar3171;
unicode = 1781;
}
{
glyphname = endash;
layers = (
{
layerId = m01;
shapes = (
{
closed = 1;
nodes = (
(280,295,l),
(280,345,l),
(20,345,l),
(20,295,l)
);
}
);
width = 300;
}
);
metricLeft = "=20";
metricRight = "=|";
metricWidth = "=emdash/2";
unicode = 8211;
}
{
glyphname = emdash;
layers = (
{
layerId = m01;
shapes = (
{
closed = 1;
nodes = (
(600,200,l),
(600,250,l),
(0,250,l),
(0,200,l)
);
}
);
width = 600;
}
);
metricLeft = "=0";
metricRight = "=|";
metricWidth = "=600";
unicode = 8212;
}
{
glyphname = guilsinglleft;
layers = (
{
layerId = m01;
shapes = (
{
closed = 1;
nodes = (
(109,-88,l),
(75,-33,o),
(54,36,o),
(54,112,cs),
(54,190,o),
(75,257,o),
(109,313,c),
(90,328,l),
(39,282,o),
(0,203,o),
(0,112,cs),
(0,24,o),
(39,-56,o),
(90,-103,c)
);
}
);
width = 149;
}
);
metricLeft = "=0";
metricRight = "=40";
unicode = 8249;
}
{
glyphname = "parenleft-ar";
layers = (
{
layerId = m01;
shapes = (
{
closed = 1;
nodes = (
(208,343,l),
(153,415,l),
(172,424,o),
(192,426,o),
(218,426,c),
(248,561,o),
(315,678,o),
(398,756,c),
(393,761,l),
(337,672,o),
(285,556,o),
(262,424,c),
(275,422,o),
(286,419,o),
(296,415,c),
(242,343,l),
(261,327,l),
(334,424,l),
(318,436,o),
(301,443,o),
(281,447,c),
(289,430,l),
(310,546,o),
(353,648,o),
(404,731,cs),
(413,745,o),
(412,756,o),
(402,765,cs),
(392,773,o),
(379,772,o),
(367,761,cs),
(290,681,o),
(226,569,o),
(195,438,c),
(214,451,l),
(172,450,o),
(141,441,o),
(116,424,c),
(189,327,l)
);
},
{
closed = 1;
nodes = (
(412,-214,o),
(413,-203,o),
(405,-189,cs),
(354,-107,o),
(312,-3,o),
(289,112,c),
(279,94,l),
(300,100,o),
(318,106,o),
(334,117,c),
(261,214,l),
(242,198,l),
(296,126,l),
(286,122,o),
(275,119,o),
(264,118,c),
(286,-14,o),
(337,-128,o),
(392,-217,c),
(396,-213,l),
(315,-134,o),
(248,-19,o),
(219,115,c),
(192,115,o),
(170,119,o),
(153,126,c),
(206,196,l),
(187,212,l),
(116,117,l),
(141,100,o),
(170,92,o),
(211,90,c),
(195,106,l),
(225,-25,o),
(289,-137,o),
(367,-218,cs),
(379,-229,o),
(392,-231,o),
(402,-223,cs)
);
},
{
closed = 1;
nodes = (
(169,237,l),
(153,254,l),
(80,200,l),
(75,214,o),
(74,228,o),
(72,248,c),
(53,251,o),
(44,259,o),
(33,271,c),
(44,285,o),
(53,291,o),
(72,295,c),
(74,315,o),
(75,329,o),
(80,343,c),
(153,288,l),
(169,306,l),
(70,380,l),
(58,362,o),
(52,337,o),
(49,315,c),
(30,306,o),
(14,292,o),
(0,271,c),
(14,251,o),
(30,237,o),
(49,228,c),
(52,206,o),
(58,181,o),
(70,162,c)
);
},
{
closed = 1;
nodes = (
(218,158,o),
(231,158,o),
(239,171,cs),
(259,200,o),
(296,237,o),
(326,256,cs),
(338,263,o),
(339,278,o),
(326,285,c),
(301,302,o),
(275,318,o),
(239,371,cs),
(231,384,o),
(218,384,o),
(209,371,cs),
(173,323,o),
(172,316,o),
(126,285,cs),
(112,277,o),
(112,264,o),
(125,256,c),
(180,212,o),
(170,226,o),
(209,171,cs)
);
},
{
closed = 1;
nodes = (
(194,215,o),
(169,240,o),
(169,271,cs),
(169,302,o),
(194,327,o),
(225,327,cs),
(256,327,o),
(281,302,o),
(281,271,cs),
(281,240,o),
(256,215,o),
(225,215,cs)
);
},
{
closed = 1;
nodes = (
(392,181,o),
(398,206,o),
(401,228,c),
(420,237,o),
(435,251,o),
(449,271,c),
(435,292,o),
(420,306,o),
(401,315,c),
(398,337,o),
(392,362,o),
(379,380,c),
(284,307,l),
(293,285,l),
(370,343,l),
(374,329,o),
(376,315,o),
(379,295,c),
(396,291,o),
(406,284,o),
(418,271,c),
(406,257,o),
(396,251,o),
(379,248,c),
(376,228,o),
(374,214,o),
(370,200,c),
(296,256,l),
(285,232,l),
(379,162,l)
);
}
);
width = 469;
},
{
associatedMasterId = m01;
layerId = "1ABCF345-F06E-4ECD-B692-EDB8EB3557D5";
name = "5 Jul 25 at 09:11";
shapes = (
{
closed = 1;
nodes = (
(107,244,l),
(152,306,ls),
(155,311,o),
(154,315,o),
(147,318,cs),
(122,326,l),
(140,396,o),
(170,461,o),
(212,523,cs),
(219,535,o),
(220,543,o),
(212,550,cs),
(205,557,o),
(196,555,o),
(186,546,cs),
(124,482,o),
(82,410,o),
(59,331,c),
(40,329,o),
(23,325,o),
(4,317,cs),
(-1,315,o),
(-3,311,o),
(1,306,cs),
(45,245,l),
(55,256,l),
(18,307,l),
(36,312,o),
(53,316,o),
(71,317,c),
(72,323,l),
(94,401,o),
(136,471,o),
(197,535,cs),
(201,539,o),
(204,537,o),
(200,531,cs),
(153,462,o),
(121,390,o),
(104,314,c),
(114,312,o),
(124,310,o),
(134,307,c),
(96,255,l)
);
},
{
closed = 1;
nodes = (
(61,164,o),
(50,169,o),
(42,180,cs),
(37,187,o),
(34,195,o),
(34,204,cs),
(34,217,o),
(40,228,o),
(51,236,cs),
(59,241,o),
(66,244,o),
(75,244,cs),
(88,244,o),
(99,238,o),
(107,227,cs),
(112,220,o),
(115,212,o),
(115,204,cs),
(115,190,o),
(109,179,o),
(98,171,cs),
(91,166,o),
(83,164,o),
(75,164,cs)
);
},
{
closed = 1;
nodes = (
(22,184,l),
(-28,146,l),
(-33,158,o),
(-34,170,o),
(-36,182,c),
(-52,189,o),
(-57,191,o),
(-68,204,c),
(-58,215,o),
(-50,219,o),
(-36,226,c),
(-34,238,o),
(-33,250,o),
(-28,261,c),
(22,224,l),
(34,234,l),
(-27,279,ls),
(-32,283,o),
(-36,282,o),
(-39,276,cs),
(-44,263,o),
(-48,249,o),
(-50,236,c),
(-63,229,o),
(-74,220,o),
(-84,208,c),
(-85,205,o),
(-85,202,o),
(-84,199,c),
(-74,187,o),
(-63,178,o),
(-50,172,c),
(-47,158,o),
(-44,145,o),
(-39,131,c),
(-36,126,o),
(-32,124,o),
(-27,128,cs),
(34,173,l)
);
},
{
closed = 1;
nodes = (
(96,152,l),
(134,100,l),
(124,97,o),
(114,95,o),
(104,93,c),
(121,18,o),
(153,-55,o),
(200,-124,cs),
(204,-130,o),
(201,-132,o),
(197,-127,cs),
(136,-64,o),
(94,6,o),
(72,84,c),
(71,91,l),
(53,91,o),
(36,95,o),
(18,100,c),
(55,151,l),
(45,162,l),
(1,102,ls),
(-3,97,o),
(-1,92,o),
(4,90,cs),
(23,83,o),
(40,78,o),
(58,77,c),
(81,-3,o),
(123,-74,o),
(186,-139,cs),
(196,-149,o),
(204,-151,o),
(212,-144,cs),
(219,-137,o),
(219,-128,o),
(212,-117,cs),
(171,-59,o),
(140,8,o),
(122,81,c),
(147,89,ls),
(154,92,o),
(155,97,o),
(152,102,cs),
(107,163,l)
);
},
{
closed = 1;
nodes = (
(127,224,l),
(177,261,l),
(182,250,o),
(184,238,o),
(186,226,c),
(199,219,o),
(207,215,o),
(217,204,c),
(206,191,o),
(202,188,o),
(186,182,c),
(184,170,o),
(182,158,o),
(177,146,c),
(127,183,l),
(115,173,l),
(177,128,ls),
(180,126,o),
(183,126,o),
(185,127,c),
(190,134,o),
(195,148,o),
(199,172,c),
(212,178,o),
(223,187,o),
(233,199,c),
(234,202,o),
(234,205,o),
(233,208,c),
(223,220,o),
(212,229,o),
(199,236,c),
(197,249,o),
(193,263,o),
(188,276,cs),
(185,282,o),
(182,283,o),
(177,279,cs),
(115,234,l)
);
},
{
closed = 1;
nodes = (
(111,238,o),
(85,276,cs),
(82,281,o),
(78,283,o),
(75,283,cs),
(71,283,o),
(67,281,o),
(64,276,cs),
(38,241,o),
(37,236,o),
(4,214,cs),
(-1,211,o),
(-4,207,o),
(-4,204,cs),
(-4,200,o),
(-2,196,o),
(3,193,cs),
(43,162,o),
(36,171,o),
(64,131,cs),
(67,126,o),
(71,124,o),
(75,124,cs),
(78,124,o),
(82,126,o),
(85,131,cs),
(100,152,o),
(125,179,o),
(146,193,cs),
(151,196,o),
(153,200,o),
(153,204,cs),
(153,207,o),
(152,211,o),
(147,214,cs),
(129,226,o)
);
}
);
width = 250;
}
);
metricLeft = "=parenleft";
metricRight = "=parenleft";
unicode = 64830;
}
{
glyphname = _body.sad;
layers = (
{
anchors = (
{
name = fatha;
pos = (436,270);
},
{
name = kasra;
pos = (436,-90);
},
{
name = top;
pos = (454,270);
}
);
layerId = m01;
shapes = (
{
closed = 1;
nodes = (
(750,0,ls),
(788,0,o),
(792,23,o),
(790,40,cs),
(786,83,o),
(779,108,o),
(767,145,cs),
(763,157,o),
(752,160,o),
(745,160,cs),
(261,160,ls),
(222,160,o),
(123,165,o),
(100,189,c),
(11,52,l),
(-26,125,l),
(-10,99,o),
(111,90,o),
(163,90,cs),
(691,90,l),
(659,145,l),
(671,108,o),
(678,83,o),
(682,40,c),
(697,70,l),
(163,70,ls),
(103,70,o),
(-49,82,o),
(-25,118,c),
(-4,132,l),
(94,0,l)
);
}
);
width = 810;
},
{
anchors = (
{
name = fatha;
pos = (2956,270);
},
{
name = kasra;
pos = (2956,-90);
},
{
name = top;
pos = (2974,270);
}
);
associatedMasterId = m01;
attr = {
coordinates = (
100
);
};
layerId = "342120A2-69CB-4D5B-B997-48E2238AD02F";
name = "{0, 100} 17 May 23 at 01:25";
shapes = (
{
closed = 1;
nodes = (
(5790,0,ls),
(5828,0,o),
(5832,23,o),
(5830,40,cs),
(5826,83,o),
(5819,108,o),
(5807,145,cs),
(5803,157,o),
(5792,160,o),
(5785,160,cs),
(241,160,ls),
(202,160,o),
(103,165,o),
(80,189,c),
(-9,52,l),
(-46,125,l),
(-30,99,o),
(91,90,o),
(143,90,cs),
(5731,90,l),
(5699,145,l),
(5711,108,o),
(5718,83,o),
(5722,40,c),
(5737,70,l),
(143,70,ls),
(83,70,o),
(-69,82,o),
(-45,118,c),
(-24,132,l),
(74,0,l)
);
}
);
width = 5850;
},
{
anchors = (
{
name = fatha;
pos = (286,270);
},
{
name = kasra;
pos = (286,-90);
},
{
name = top;
pos = (304,270);
}
);
associatedMasterId = m01;
attr = {
coordinates = (
0
);
};
layerId = "34FBA313-0584-42D3-83EF-21DA6504D684";
name = "{0} 28 Sep 25 at 20:45";
shapes = (
{
closed = 1;
nodes = (
(280,0,ls),
(318,0,o),
(322,23,o),
(320,40,cs),
(316,83,o),
(309,108,o),
(297,145,cs),
(293,157,o),
(282,160,o),
(275,160,cs),
(241,160,ls),
(202,160,o),
(83,165,o),
(60,189,c),
(-9,52,l),
(-20,105,l),
(31,94,o),
(108,90,o),
(143,90,cs),
(221,90,l),
(189,145,l),
(201,108,o),
(208,83,o),
(212,40,c),
(227,70,l),
(123,70,ls),
(71,70,o),
(-50,79,o),
(-66,105,c),
(-24,132,l),
(64,0,l)
);
}
);
width = 340;
}
);
metricRight = "=20";
}
{
export = 0;
glyphname = _c.beh;
layers = (
{
anchors = (
{
name = entry;
pos = (120,0);
}
);
layerId = m01;
shapes = (
{
closed = 1;
nodes = (
(140,0,l),
(140,70,l),
(102,70,o),
(100,93,o),
(100,110,c),
(20,110,l),
(20,0,l)
);
}
);
width = 140;
}
);
}
{
glyphname = _c.dal;
layers = (
{
anchors = (
{
name = entry;
pos = (102,0);
}
);
layerId = m01;
shapes = (
{
closed = 1;
nodes = (
(122,0,l),
(122,70,l),
(85,70,o),
(77,88,o),
(73,98,c),
(40,98,l),
(40,0,l)
);
}
);
width = 102;
}
);
}
{
glyphname = _dot.circle;
layers = (
{
layerId = m01;
name = Regular;
shapes = (
{
closed = 1;
nodes = (
(112,7,o),
(143,39,o),
(143,75,cs),
(143,112,o),
(112,143,o),
(75,143,cs),
(39,143,o),
(7,112,o),
(7,75,cs),
(7,39,o),
(39,7,o),
(75,7,cs)
);
},
{
closed = 1;
nodes = (
(45,22,o),
(22,45,o),
(22,75,cs),
(22,106,o),
(45,128,o),
(75,128,cs),
(106,128,o),
(128,106,o),
(128,75,cs),
(128,45,o),
(106,22,o),
(75,22,cs)
);
}
);
width = 150;
}
);
metricLeft = "=7";
metricRight = "=7";
}
{
category = Separator;
glyphname = .notdef;
layers = (
{
layerId = m01;
shapes = (
{
closed = 1;
nodes = (
(391,0,l),
(391,625,l),
(49,625,l),
(49,0,l)
);
},
{
closed = 1;
nodes = (
(220,260,l),
(318,49,l),
(122,49,l)
);
},
{
closed = 1;
nodes = (
(98,522,l),
(196,313,l),
(98,103,l)
);
},
{
closed = 1;
nodes = (
(244,313,l),
(342,524,l),
(342,101,l)
);
},
{
closed = 1;
nodes = (
(122,576,l),
(318,576,l),
(220,365,l)
);
}
);
width = 440;
},
{
associatedMasterId = m01;
layerId = "491C2D79-06CA-4F93-88F5-54BB2195BE8A";
name = "22 Feb 26 at 00:42";
shapes = (
{
closed = 1;
nodes = (
(391,0,l),
(391,625,l),
(49,625,l),
(49,0,l)
);
},
{
closed = 1;
nodes = (
(98,576,l),
(342,576,l),
(342,49,l),
(98,49,l)
);
},
{
closed = 1;
nodes = (
(122,49,l),
(366,576,l),
(318,576,l),
(73,49,l)
);
},
{
closed = 1;
nodes = (
(318,49,l),
(366,49,l),
(122,576,l),
(73,576,l)
);
}
);
width = 440;
}
);
}
{
export = 0;
glyphname = _p.heh;
layers = (
{
layerId = m01;
shapes = (
{
closed = 1;
nodes = (
(100,0,l),
(100,70,l),
(-20,70,l),
(-20,0,l)
);
}
);
width = 100;
}
);
metricLeft = "=-20";
metricRight = "=0";
}
{
category = Letter;
glyphname = "ain-ar.fina";
kernRight = ain;
layers = (
{
anchors = (
{
name = bottom;
pos = (197,0);
},
{
name = entry;
pos = (320,0);
},
{
name = top;
pos = (140,313);
}
);
layerId = m01;
shapes = (
{
closed = 1;
nodes = (
(160,-183,o),
(88,-132,o),
(88,-69,cs),
(88,-12,o),
(144,0,o),
(188,0,cs),
(340,0,l),
(340,70,l),
(209,70,l),
(290,190,l),
(262,241,o),
(200,282,o),
(140,282,cs),
(80,282,o),
(18,241,o),
(-10,190,c),
(79,59,l),
(37,40,o),
(0,-4,o),
(0,-60,cs),
(0,-202,o),
(179,-232,o),
(287,-175,c)
);
},
{
closed = 1;
nodes = (
(132,140,o),
(125,147,o),
(125,155,cs),
(125,163,o),
(132,170,o),
(140,170,cs),
(148,170,o),
(155,163,o),
(155,155,cs),
(155,147,o),
(148,140,o),
(140,140,cs)
);
}
);
width = 320;
},
{
anchors = (
{
name = bottom;
pos = (220,-100);
},
{
name = entry;
pos = (320,0);
},
{
name = top;
pos = (140,313);
}
);
associatedMasterId = m01;
layerId = "47783730-4077-46BF-8B57-110BFC9BCC36";
name = "3 Nov 25 at 19:42";
shapes = (
{
closed = 1;
nodes = (
(371,-385,o),
(462,-311,o),
(547,-224,c),
(546,-226,l),
(481,-267,o),
(390,-293,o),
(308,-293,cs),
(201,-293,o),
(109,-249,o),
(109,-160,cs),
(109,-83,o),
(143,-18,o),
(181,56,c),
(145,56,l),
(103,-26,o),
(65,-127,o),
(65,-196,cs),
(65,-330,o),
(140,-385,o),
(241,-385,cs)
);
},
{
closed = 1;
nodes = (
(290,190,l),
(262,241,o),
(200,282,o),
(140,282,cs),
(80,282,o),
(18,241,o),
(-10,190,c),
(147,-41,l),
(77,0,l),
(203,0,l),
(133,-41,l)
);
},
{
closed = 1;
nodes = (
(340,0,l),
(340,70,l),
(137,70,l),
(137,0,l)
);
},
{
closed = 1;
nodes = (
(132,140,o),
(125,147,o),
(125,155,cs),
(125,163,o),
(132,170,o),
(140,170,cs),
(148,170,o),
(155,163,o),
(155,155,cs),
(155,147,o),
(148,140,o),
(140,140,cs)
);
}
);
width = 320;
},
{
anchors = (
{
name = bottom;
pos = (197,0);
},
{
name = entry;
pos = (320,0);
},
{
name = top;
pos = (140,313);
}
);
associatedMasterId = m01;
layerId = "7DCCD7F0-421E-4CA6-A5DB-52D87EADA55C";
name = "22 Feb 26 at 00:21";
shapes = (
{
closed = 1;
nodes = (
(160,-183,o),
(88,-132,o),
(88,-69,cs),
(88,-12,o),
(144,0,o),
(188,0,cs),
(340,0,l),
(340,70,l),
(126,70,ls),
(66,70,o),
(0,16,o),
(0,-60,cs),
(0,-202,o),
(179,-232,o),
(287,-175,c)
);
},
{
closed = 1;
nodes = (
(290,190,l),
(262,241,o),
(200,282,o),
(140,282,cs),
(80,282,o),
(18,241,o),
(-10,190,c),
(147,-41,l),
(77,0,l),
(203,0,l),
(133,-41,l)
);
},
{
closed = 1;
nodes = (
(132,140,o),
(125,147,o),
(125,155,cs),
(125,163,o),
(132,170,o),
(140,170,cs),
(148,170,o),
(155,163,o),
(155,155,cs),
(155,147,o),
(148,140,o),
(140,140,cs)
);
}
);
width = 320;
}
);
metricLeft = "=-10@190";
metricRight = "=-20@10";
script = arabic;
sortName = arL0036;
sortNameKeep = arL0036;
}
{
category = Letter;
color = 7;
glyphname = "ain-ar.fina.hist";
kernRight = beh;
layers = (
{
anchors = (
{
name = entry;
pos = (180,0);
},
{
name = top;
pos = (90,297);
},
{
name = top.hist;
pos = (134,224);
}
);
layerId = m01;
shapes = (
{
closed = 1;
nodes = (
(383,-416,o),
(474,-344,o),
(558,-259,c),
(493,-299,o),
(403,-324,o),
(322,-324,cs),
(215,-324,o),
(123,-280,o),
(123,-166,cs),
(123,-120,o),
(137,-64,o),
(146,0,c),
(200,0,l),
(200,70,l),
(162,70,o),
(160,93,o),
(160,110,cs),
(160,267,l),
(143,229,o),
(119,197,o),
(95,173,c),
(80,195,o),
(63,217,o),
(49,234,c),
(34,194,o),
(24,178,o),
(0,154,c),
(37,110,o),
(95,39,o),
(107,-12,c),
(95,-81,o),
(79,-149,o),
(79,-207,cs),
(79,-347,o),
(134,-416,o),
(255,-416,cs)
);
}
);
width = 180;
},
{
anchors = (
{
name = entry;
pos = (180,0);
},
{
name = top;
pos = (90,297);
},
{
name = top.hist;
pos = (134,224);
}
);
associatedMasterId = m01;
layerId = "463B1540-4C64-4291-83FC-6D869E74FC58";
name = "22 Feb 26 at 00:22";
shapes = (
{
closed = 1;
nodes = (
(385,-416,o),
(476,-342,o),
(561,-255,c),
(560,-257,l),
(495,-298,o),
(404,-324,o),
(322,-324,cs),
(215,-324,o),
(123,-280,o),
(123,-166,cs),
(123,-114,o),
(141,-49,o),
(149,25,cs),
(159,106,o),
(65,214,o),
(26,261,c),
(57,259,l),
(35,191,o),
(25,179,o),
(-14,139,c),
(-14,171,l),
(22,127,o),
(108,28,o),
(109,-28,c),
(113,25,l),
(101,-57,o),
(79,-138,o),
(79,-207,cs),
(79,-347,o),
(134,-416,o),
(255,-416,cs)
);
},
{
closed = 1;
nodes = (
(160,0,l),
(160,291,l),
(165,278,l),
(146,232,o),
(115,191,o),
(86,164,c),
(137,0,l)
);
},
{
closed = 1;
nodes = (
(200,0,l),
(200,70,l),
(162,70,o),
(160,93,o),
(160,110,c),
(120,110,l),
(120,0,l)
);
}
);
width = 180;
}
);
metricLeft = "=0";
metricRight = "=-20@10";
script = arabic;
sortName = arL0036.xhist;
sortNameKeep = arL0036;
}
{
category = Letter;
glyphname = "ain-ar.fina.salt1";
kernRight = ain;
layers = (
{
anchors = (
{
name = bottom;
pos = (144,-90);
},
{
name = entry;
pos = (320,0);
},
{
name = top;
pos = (140,313);
}
);
layerId = m01;
name = Regular;
shapes = (
{
closed = 1;
nodes = (
(224,-90,l),
(245,-72,o),
(274,-44,o),
(318,-20,c),
(86,-20,ls),
(80,-20,o),
(76,-16,o),
(76,-10,cs),
(76,-4,o),
(80,0,o),
(86,0,cs),
(340,0,l),
(340,70,l),
(209,70,l),
(290,190,l),
(262,241,o),
(200,282,o),
(140,282,cs),
(80,282,o),
(18,241,o),
(-10,190,c),
(72,70,l),
(32,66,o),
(0,31,o),
(0,-10,cs),
(0,-54,o),
(36,-90,o),
(80,-90,cs)
);
},
{
closed = 1;
nodes = (
(132,140,o),
(125,147,o),
(125,155,cs),
(125,163,o),
(132,170,o),
(140,170,cs),
(148,170,o),
(155,163,o),
(155,155,cs),
(155,147,o),
(148,140,o),
(140,140,cs)
);
}
);
width = 320;
},
{
anchors = (
{
name = bottom;
pos = (144,-90);
},
{
name = entry;
pos = (320,0);
},
{
name = top;
pos = (140,313);
}
);
associatedMasterId = m01;
layerId = "84F18AFB-4705-45E5-80B2-F85415C229A9";
name = "22 Feb 26 at 00:22";
shapes = (
{
closed = 1;
nodes = (
(290,190,l),
(262,241,o),
(200,282,o),
(140,282,cs),
(80,282,o),
(18,241,o),
(-10,190,c),
(147,-41,l),
(77,0,l),
(203,0,l),
(133,-41,l)
);
},
{
closed = 1;
nodes = (
(240,-78,o),
(277,-38,o),
(339,-9,c),
(363,-20,l),
(86,-20,ls),
(80,-20,o),
(76,-16,o),
(76,-10,cs),
(76,-4,o),
(80,0,o),
(86,0,cs),
(340,0,l),
(340,70,l),
(80,70,ls),
(36,70,o),
(0,34,o),
(0,-10,cs),
(0,-54,o),
(36,-90,o),
(80,-90,cs),
(248,-90,l),
(215,-97,l)
);
},
{
closed = 1;
nodes = (
(132,140,o),
(125,147,o),
(125,155,cs),
(125,163,o),
(132,170,o),
(140,170,cs),
(148,170,o),
(155,163,o),
(155,155,cs),
(155,147,o),
(148,140,o),
(140,140,cs)
);
}
);
width = 320;
}
);
metricLeft = "=-10@190";
metricRight = "=-20@10";
script = arabic;
sortName = arL0036.salt1;
sortNameKeep = arL0036;
}
{
category = Letter;
glyphname = "ain-ar.fina.salt2";
kernRight = ain;
layers = (
{
anchors = (
{
name = bottom;
pos = (220,-100);
},
{
name = entry;
pos = (320,0);
},
{
name = top;
pos = (140,313);
}
);
layerId = m01;
name = Regular;
shapes = (
{
closed = 1;
nodes = (
(371,-385,o),
(462,-311,o),
(547,-224,c),
(546,-226,l),
(481,-267,o),
(390,-293,o),
(308,-293,cs),
(201,-293,o),
(109,-249,o),
(109,-160,cs),
(109,-83,o),
(143,-18,o),
(181,56,c),
(145,56,l),
(103,-26,o),
(65,-127,o),
(65,-196,cs),
(65,-330,o),
(140,-385,o),
(241,-385,cs)
);
},
{
closed = 1;
nodes = (
(290,190,l),
(262,241,o),
(200,282,o),
(140,282,cs),
(80,282,o),
(18,241,o),
(-10,190,c),
(147,-41,l),
(77,0,l),
(203,0,l),
(133,-41,l)
);
},
{
closed = 1;
nodes = (
(340,0,l),
(340,70,l),
(137,70,l),
(137,0,l)
);
},
{
closed = 1;
nodes = (
(132,140,o),
(125,147,o),
(125,155,cs),
(125,163,o),
(132,170,o),
(140,170,cs),
(148,170,o),
(155,163,o),
(155,155,cs),
(155,147,o),
(148,140,o),
(140,140,cs)
);
}
);
width = 320;
}
);
metricLeft = "=-10@190";
metricRight = "=-20@10";
script = arabic;
sortName = arL0036.salt2;
sortNameKeep = arL0036;
}
{
category = Letter;
color = 7;
glyphname = "ain-ar.hist.001";
kernLeft = hah.hist;
kernRight = hah;
layers = (
{
anchors = (
{
name = top.hist;
pos = (207,251);
}
);
layerId = m01;
shapes = (
{
closed = 1;
nodes = (
(368,-78,o),
(405,-38,o),
(467,-9,c),
(491,-20,l),
(86,-20,ls),
(80,-20,o),
(76,-16,o),
(76,-10,cs),
(76,-4,o),
(80,0,o),
(86,0,cs),
(712,0,l),
(483,-7,l),
(508,12,o),
(545,52,o),
(607,81,c),
(801,78,l),
(667,71,o),
(513,52,o),
(390,82,cs),
(279,110,o),
(190,193,o),
(228,234,cs),
(293,307,l),
(285,314,l),
(164,180,ls),
(126,138,o),
(163,65,o),
(255,32,c),
(253,70,l),
(80,70,ls),
(36,70,o),
(0,34,o),
(0,-10,cs),
(0,-54,o),
(36,-90,o),
(80,-90,cs),
(376,-90,l),
(343,-97,l)
);
}
);
width = 598;
}
);
metricLeft = "=0";
metricRight = "=20";
script = arabic;
sortName = arL0035.hist;
sortNameKeep = arL0035;
}
{
category = Letter;
color = 7;
glyphname = "ain-ar.hist";
kernLeft = hah.hist;
kernRight = hah;
layers = (
{
anchors = (
{
name = top.hist;
pos = (252,251);
}
);
layerId = m01;
shapes = (
{
closed = 1;
nodes = (
(757,0,l),
(728,-7,l),
(753,12,o),
(790,52,o),
(852,81,c),
(846,71,l),
(712,64,o),
(558,68,o),
(435,98,cs),
(324,126,o),
(235,216,o),
(273,257,cs),
(338,330,l),
(330,337,l),
(209,203,ls),
(171,161,o),
(208,88,o),
(300,55,c),
(298,73,l),
(234,73,o),
(218,75,o),
(183,118,cs),
(159,151,o),
(137,163,o),
(100,158,cs),
(56,153,o),
(0,99,o),
(0,30,cs),
(0,-31,o),
(28,-66,o),
(83,-85,cs),
(195,-124,o),
(507,-66,o),
(580,-16,c),
(581,-20,l),
(220,-20,ls),
(126,-20,o),
(72,16,o),
(63,79,c),
(26,21,l),
(89,57,l),
(108,18,o),
(154,0,o),
(225,0,cs)
);
}
);
width = 851;
}
);
metricLeft = "=0";
metricRight = "=20";
script = arabic;
sortName = arL0035.hist;
sortNameKeep = arL0035;
}
{
category = Letter;
glyphname = "ain-ar.init";
kernLeft = ain.init;
kernRight = hah;
layers = (
{
anchors = (
{
name = bottom;
pos = (170,-20);
},
{
name = exit;
},
{
name = top;
pos = (102,355);
}
);
layerId = m01;
shapes = (
{
closed = 1;
nodes = (
(441,0,l),
(382,-17,l),
(411,7,o),
(482,64,o),
(557,97,c),
(556,65,l),
(419,65,o),
(317,77,o),
(243,96,cs),
(128,126,o),
(84,184,o),
(84,236,cs),
(84,294,o),
(147,332,o),
(213,350,c),
(64,326,o),
(0,250,o),
(0,180,cs),
(0,126,o),
(39,75,o),
(108,56,c),
(94,70,l),
(-20,70,l),
(-20,0,l)
);
}
);
width = 517;
}
);
metricLeft = "=0@170";
metricRight = "=20";
script = arabic;
sortName = arL0038;
sortNameKeep = arL0038;
}
{
category = Letter;
color = 7;
glyphname = "ain-ar.init.hist";
kernLeft = hah;
kernRight = hah;
layers = (
{
anchors = (
{
name = exit;
},
{
name = top;
pos = (50,313);
},
{
name = top.hist;
pos = (50,243);
}
);
layerId = m01;
name = Regular;
shapes = (
{
closed = 1;
nodes = (
(543,0,l),
(563,17,o),
(592,45,o),
(633,68,c),
(504,62,o),
(358,67,o),
(241,96,cs),
(130,124,o),
(41,214,o),
(79,255,cs),
(144,328,l),
(136,335,l),
(15,201,ls),
(-18,165,o),
(6,106,o),
(72,70,c),
(-20,70,l),
(-20,0,l)
);
}
);
width = 653;
},
{
anchors = (
{
name = exit;
},
{
name = top;
pos = (50,313);
},
{
name = top.hist;
pos = (50,243);
}
);
associatedMasterId = m01;
layerId = "EE63F70B-9D9B-470F-AC29-787D96C1128D";
name = "22 Feb 26 at 00:23";
shapes = (
{
closed = 1;
nodes = (
(563,0,l),
(534,-7,l),
(559,12,o),
(596,52,o),
(658,81,c),
(652,69,l),
(518,62,o),
(364,66,o),
(241,96,cs),
(130,124,o),
(41,214,o),
(79,255,cs),
(144,328,l),
(136,335,l),
(15,201,ls),
(-23,159,o),
(14,88,o),
(106,55,c),
(104,70,l),
(-20,70,l),
(-20,0,l)
);
}
);
width = 653;
}
);
metricLeft = "=0@163";
metricRight = "=20";
script = arabic;
sortName = arL0038.xhist;
sortNameKeep = arL0038;
}
{
category = Letter;
color = 7;
glyphname = "ain-ar.isol.hist";
kernLeft = hah.hist;
kernRight = hah;
layers = (
{
anchors = (
{
name = top;
pos = (252,313);
},
{
name = top.hist;
pos = (252,251);
}
);
layerId = m01;
shapes = (
{
closed = 1;
nodes = (
(192,-123,o),
(491,-69,o),
(574,-20,c),
(220,-20,ls),
(143,-20,o),
(93,3,o),
(72,47,c),
(89,57,l),
(108,18,o),
(154,0,o),
(225,0,cs),
(737,0,l),
(758,18,o),
(787,46,o),
(831,70,c),
(701,64,o),
(553,69,o),
(435,98,cs),
(324,126,o),
(235,216,o),
(273,257,cs),
(338,330,l),
(330,337,l),
(209,203,ls),
(177,168,o),
(198,111,o),
(260,74,c),
(226,76,o),
(209,86,o),
(183,118,cs),
(159,151,o),
(137,163,o),
(100,158,cs),
(56,153,o),
(0,99,o),
(0,30,cs),
(0,-31,o),
(28,-66,o),
(83,-85,cs)
);
}
);
width = 851;
},
{
anchors = (
{
name = top;
pos = (252,313);
},
{
name = top.hist;
pos = (252,251);
}
);
associatedMasterId = m01;
layerId = "33EACEE6-AAED-445B-96B7-0EFF2E452712";
name = "22 Feb 26 at 00:21";
shapes = (
{
closed = 1;
nodes = (
(757,0,l),
(728,-7,l),
(753,12,o),
(790,52,o),
(852,81,c),
(846,71,l),
(712,64,o),
(558,68,o),
(435,98,cs),
(324,126,o),
(235,216,o),
(273,257,cs),
(338,330,l),
(330,337,l),
(209,203,ls),
(171,161,o),
(208,88,o),
(300,55,c),
(298,73,l),
(234,73,o),
(218,75,o),
(183,118,cs),
(159,151,o),
(137,163,o),
(100,158,cs),
(56,153,o),
(0,99,o),
(0,30,cs),
(0,-31,o),
(28,-66,o),
(83,-85,cs),
(195,-124,o),
(507,-66,o),
(580,-16,c),
(581,-20,l),
(220,-20,ls),
(126,-20,o),
(72,16,o),
(63,79,c),
(26,21,l),
(89,57,l),
(108,18,o),
(154,0,o),
(225,0,cs)
);
}
);
width = 851;
}
);
metricLeft = "=0";
metricRight = "=20";
script = arabic;
sortName = arL0035.xhist;
sortNameKeep = arL0035;
}
{
category = Letter;
glyphname = "ain-ar.isol.salt1";
kernRight = hah;
layers = (
{
anchors = (
{
name = top.hist;
pos = (207,251);
}
);
associatedMasterId = m01;
layerId = "6586845E-F585-4A6A-A09D-7950395AAE19";
name = "2 Nov 25 at 00:12";
shapes = (
{
closed = 1;
nodes = (
(368,-78,o),
(405,-38,o),
(467,-9,c),
(491,-20,l),
(86,-20,ls),
(80,-20,o),
(76,-16,o),
(76,-10,cs),
(76,-4,o),
(80,0,o),
(86,0,cs),
(712,0,l),
(483,-7,l),
(508,12,o),
(545,52,o),
(607,81,c),
(801,74,l),
(667,67,o),
(513,44,o),
(382,76,cs),
(236,112,o),
(175,249,o),
(333,307,c),
(139,285,o),
(112,91,o),
(275,32,c),
(253,70,l),
(80,70,ls),
(36,70,o),
(0,34,o),
(0,-10,cs),
(0,-54,o),
(36,-90,o),
(80,-90,cs),
(376,-90,l),
(343,-97,l)
);
}
);
width = 588;
},
{
associatedMasterId = m01;
layerId = "570E1470-2F21-4292-AA42-F1501F691EBA";
name = "2 Nov 25 at 00:12";
shapes = (
{
closed = 1;
nodes = (
(368,-78,o),
(405,-38,o),
(467,-9,c),
(491,-20,l),
(86,-20,ls),
(80,-20,o),
(76,-16,o),
(76,-10,cs),
(76,-4,o),
(80,0,o),
(86,0,cs),
(712,0,l),
(483,-7,l),
(508,12,o),
(545,52,o),
(607,81,c),
(801,78,l),
(667,71,o),
(513,52,o),
(390,82,cs),
(279,110,o),
(190,193,o),
(228,234,cs),
(293,307,l),
(285,314,l),
(164,180,ls),
(126,138,o),
(163,65,o),
(255,32,c),
(253,70,l),
(80,70,ls),
(36,70,o),
(0,34,o),
(0,-10,cs),
(0,-54,o),
(36,-90,o),
(80,-90,cs),
(376,-90,l),
(343,-97,l)
);
}
);
width = 598;
},
{
anchors = (
{
name = bottom;
pos = (160,-100);
},
{
name = top;
pos = (132,325);
}
);
associatedMasterId = m01;
layerId = "64385F55-DB80-4B92-BD71-7FFFE84032F2";
name = "3 Nov 25 at 19:39";
shapes = (
{
closed = 1;
nodes = (
(198,-90,o),
(280,-45,o),
(322,-16,c),
(323,-20,l),
(86,-20,ls),
(80,-20,o),
(76,-16,o),
(76,-10,cs),
(76,-4,o),
(80,0,o),
(86,0,cs),
(584,0,l),
(355,-7,l),
(380,12,o),
(417,52,o),
(479,81,c),
(673,74,l),
(539,67,o),
(385,44,o),
(254,76,cs),
(108,112,o),
(47,249,o),
(205,307,c),
(11,285,o),
(-16,91,o),
(147,32,c),
(125,70,l),
(80,70,ls),
(36,70,o),
(0,34,o),
(0,-10,cs),
(0,-54,o),
(36,-90,o),
(100,-90,cs)
);
}
);
width = 460;
},
{
anchors = (
{
name = bottom;
pos = (160,-100);
},
{
name = top;
pos = (132,325);
}
);
layerId = m01;
name = Regular;
shapes = (
{
closed = 1;
nodes = (
(224,-90,l),
(245,-72,o),
(274,-44,o),
(318,-20,c),
(86,-20,ls),
(80,-20,o),
(76,-16,o),
(76,-10,cs),
(76,-4,o),
(80,0,o),
(86,0,cs),
(364,0,l),
(382,16,o),
(406,39,o),
(440,60,c),
(376,58,o),
(313,62,o),
(254,76,cs),
(108,112,o),
(47,249,o),
(205,307,c),
(43,289,o),
(-2,149,o),
(83,70,c),
(80,70,ls),
(36,70,o),
(0,34,o),
(0,-10,cs),
(0,-54,o),
(36,-90,o),
(80,-90,cs)
);
}
);
width = 460;
},
{
anchors = (
{
name = bottom;
pos = (160,-100);
},
{
name = top;
pos = (132,325);
}
);
associatedMasterId = m01;
layerId = "33D338AC-3B00-481F-9CC0-465C9608B943";
name = "22 Feb 26 at 00:20";
shapes = (
{
closed = 1;
nodes = (
(240,-78,o),
(277,-38,o),
(339,-9,c),
(363,-20,l),
(86,-20,ls),
(80,-20,o),
(76,-16,o),
(76,-10,cs),
(76,-4,o),
(80,0,o),
(86,0,cs),
(584,0,l),
(355,-7,l),
(380,12,o),
(417,52,o),
(479,81,c),
(673,74,l),
(539,67,o),
(385,44,o),
(254,76,cs),
(108,112,o),
(47,249,o),
(205,307,c),
(11,285,o),
(-16,91,o),
(147,32,c),
(125,70,l),
(80,70,ls),
(36,70,o),
(0,34,o),
(0,-10,cs),
(0,-54,o),
(36,-90,o),
(80,-90,cs),
(248,-90,l),
(215,-97,l)
);
}
);
width = 460;
}
);
metricLeft = "=0";
metricRight = "=20";
script = arabic;
sortName = arL0035.salt1;
sortNameKeep = arL0035;
}
{
category = Letter;
glyphname = "ain-ar.isol.salt2";
kernRight = hah;
layers = (
{
anchors = (
{
name = bottom;
pos = (219,-100);
},
{
name = top;
pos = (111,325);
}
);
layerId = m01;
shapes = (
{
closed = 1;
nodes = (
(304,-385,o),
(395,-313,o),
(479,-228,c),
(414,-268,o),
(324,-293,o),
(243,-293,cs),
(136,-293,o),
(44,-249,o),
(44,-160,cs),
(44,-103,o),
(63,-52,o),
(88,0,c),
(274,0,l),
(294,18,o),
(321,40,o),
(357,60,c),
(314,62,o),
(273,66,o),
(233,76,cs),
(87,112,o),
(26,249,o),
(184,307,c),
(10,287,o),
(-30,131,o),
(80,55,c),
(38,-26,o),
(0,-127,o),
(0,-196,cs),
(0,-330,o),
(75,-385,o),
(176,-385,cs)
);
}
);
width = 377;
},
{
anchors = (
{
name = bottom;
pos = (220,-100);
},
{
name = top;
pos = (102,345);
}
);
associatedMasterId = m01;
layerId = "0BE732A0-06C6-4287-9C57-C3AC797E4EF2";
name = "2 Nov 25 at 00:14";
shapes = (
{
closed = 1;
nodes = (
(291,-13,o),
(362,44,o),
(437,77,c),
(556,64,l),
(419,64,o),
(317,76,o),
(243,95,cs),
(128,125,o),
(84,173,o),
(84,225,cs),
(84,283,o),
(147,321,o),
(213,339,c),
(64,315,o),
(0,239,o),
(0,169,cs),
(0,106,o),
(53,38,o),
(146,29,c),
(106,72,l),
(80,0,l),
(441,0,l),
(262,-37,l)
);
},
{
closed = 1;
nodes = (
(307,-385,o),
(398,-311,o),
(483,-224,c),
(482,-226,l),
(417,-267,o),
(326,-293,o),
(244,-293,cs),
(137,-293,o),
(45,-249,o),
(45,-160,cs),
(45,-83,o),
(79,-18,o),
(117,56,c),
(81,56,l),
(39,-26,o),
(1,-127,o),
(1,-196,cs),
(1,-330,o),
(76,-385,o),
(177,-385,cs)
);
}
);
width = 439;
},
{
anchors = (
{
name = bottom;
pos = (219,-100);
},
{
name = top;
pos = (111,325);
}
);
associatedMasterId = m01;
layerId = "88955436-D64B-43E4-8D8B-D1BF91C474DB";
name = "22 Feb 26 at 00:21";
shapes = (
{
closed = 1;
nodes = (
(306,-385,o),
(397,-311,o),
(482,-224,c),
(481,-226,l),
(416,-267,o),
(325,-293,o),
(243,-293,cs),
(136,-293,o),
(44,-249,o),
(44,-160,cs),
(44,-83,o),
(78,-18,o),
(116,56,c),
(80,56,l),
(38,-26,o),
(0,-127,o),
(0,-196,cs),
(0,-330,o),
(75,-385,o),
(176,-385,cs)
);
},
{
closed = 1;
nodes = (
(65,0,l),
(563,0,l),
(254,-17,l),
(279,2,o),
(316,42,o),
(378,71,c),
(652,74,l),
(518,67,o),
(364,44,o),
(233,76,cs),
(87,112,o),
(26,249,o),
(184,307,c),
(-10,285,o),
(-37,91,o),
(126,32,c),
(94,80,l)
);
}
);
width = 377;
}
);
metricLeft = "=0";
metricRight = "=20@60";
script = arabic;
sortName = arL0035.salt2;
sortNameKeep = arL0035;
}
{
category = Letter;
glyphname = "ain-ar.medi";
kernRight = ain;
layers = (
{
anchors = (
{
name = bottom;
pos = (150,-20);
},
{
name = entry;
pos = (330,0);
},
{
name = exit;
},
{
name = top;
pos = (150,312);
}
);
layerId = m01;
shapes = (
{
closed = 1;
nodes = (
(193,33,l),
(300,190,l),
(272,241,o),
(210,282,o),
(150,282,cs),
(90,282,o),
(28,241,o),
(0,190,c),
(107,33,l)
);
},
{
closed = 1;
nodes = (
(350,0,l),
(350,70,l),
(-20,70,l),
(-20,0,l)
);
},
{
closed = 1;
nodes = (
(142,140,o),
(135,147,o),
(135,155,cs),
(135,163,o),
(142,170,o),
(150,170,cs),
(158,170,o),
(165,163,o),
(165,155,cs),
(165,147,o),
(158,140,o),
(150,140,cs)
);
}
);
width = 330;
},
{
anchors = (
{
name = entry;
pos = (236,0);
},
{
name = exit;
},
{
name = top.hist;
pos = (176,230);
}
);
associatedMasterId = m01;
layerId = "E5D3A432-E1B5-43F1-9749-F3874C979307";
name = "28 Sep 25 at 23:31";
shapes = (
{
closed = 1;
nodes = (
(-22,179,c),
(25,122,o),
(105,62,o),
(151,40,c),
(165,70,l),
(-20,70,l),
(-20,0,l),
(256,0,l),
(256,70,l),
(183,70,l),
(216,55,l),
(216,367,l),
(234,291,l),
(140,217,o),
(66,188,o)
);
},
{
closed = 1;
nodes = (
(128,131,o),
(125,134,o),
(125,139,cs),
(125,144,o),
(128,147,o),
(133,147,cs),
(138,147,o),
(141,144,o),
(141,139,cs),
(141,134,o),
(138,131,o),
(133,131,cs)
);
},
{
closed = 1;
nodes = (
(222,14,l),
(165,38,l),
(283,213,l),
(254,264,o),
(192,303,o),
(133,303,cs),
(72,303,o),
(9,262,o),
(-19,208,c),
(190,-101,l),
(66,14,l)
);
}
);
width = 236;
}
);
metricLeft = "=0@190";
metricRight = "=-20@10";
script = arabic;
sortName = arL0037;
sortNameKeep = arL0037;
}
{
category = Letter;
color = 7;
glyphname = "ain-ar.medi.hist.alt";
kernLeft = ain.hist.alt;
kernRight = beh;
layers = (
{
anchors = (
{
name = entry;
pos = (263,0);
},
{
name = exit;
pos = (20,0);
},
{
name = top;
pos = (140,313);
},
{
name = top.hist;
pos = (187,250);
}
);
layerId = m01;
shapes = (
{
closed = 1;
nodes = (
(283,0,l),
(283,70,l),
(243,70,l),
(243,322,l),
(214,278,o),
(169,228,o),
(135,198,c),
(117,213,o),
(102,229,o),
(91,246,c),
(69,216,o),
(45,187,o),
(17,165,c),
(49,130,o),
(90,96,o),
(128,70,c),
(98,70,l),
(65,94,o),
(28,126,o),
(0,157,c),
(0,0,l)
);
}
);
width = 263;
},
{
anchors = (
{
name = entry;
pos = (263,0);
},
{
name = exit;
pos = (20,0);
},
{
name = top;
pos = (140,313);
},
{
name = top.hist;
pos = (187,250);
}
);
associatedMasterId = m01;
layerId = "956059FC-5542-4760-BB43-09507E5102D4";
name = "22 Feb 26 at 00:23";
shapes = (
{
closed = 1;
nodes = (
(283,0,l),
(283,70,l),
(210,70,l),
(243,55,l),
(243,322,l),
(209,271,o),
(152,210,o),
(119,185,c),
(179,166,l),
(141,191,o),
(101,223,o),
(82,262,c),
(111,273,l),
(80,230,o),
(46,184,o),
(5,156,c),
(5,179,l),
(52,122,o),
(132,62,o),
(178,40,c),
(192,70,l),
(0,70,l),
(0,0,l)
);
},
{
closed = 1;
nodes = (
(162,30,l),
(110,55,o),
(14,129,o),
(-28,192,c),
(0,214,l),
(0,30,l)
);
}
);
width = 263;
}
);
metricLeft = "=0";
metricRight = "=beh-ar.medi";
script = arabic;
sortName = arL0037.hist.alt;
sortNameKeep = arL0037;
}
{
category = Letter;
color = 7;
glyphname = "ain-ar.medi.hist";
kernRight = beh;
layers = (
{
anchors = (
{
name = entry;
pos = (236,0);
},
{
name = exit;
},
{
name = top;
pos = (120,313);
},
{
name = top.hist;
pos = (160,250);
}
);
layerId = m01;
shapes = (
{
closed = 1;
nodes = (
(256,0,l),
(256,70,l),
(218,70,o),
(216,93,o),
(216,110,cs),
(216,322,l),
(187,278,o),
(142,228,o),
(108,198,c),
(90,213,o),
(75,229,o),
(64,246,c),
(42,216,o),
(18,187,o),
(-10,165,c),
(22,130,o),
(63,96,o),
(101,70,c),
(-20,70,l),
(-20,0,l)
);
}
);
width = 236;
},
{
anchors = (
{
name = entry;
pos = (236,0);
},
{
name = exit;
},
{
name = top;
pos = (120,313);
},
{
name = top.hist;
pos = (160,250);
}
);
associatedMasterId = m01;
layerId = "507E1257-AC69-4B7F-89B8-CEB7186F0752";
name = "22 Feb 26 at 00:23";
shapes = (
{
closed = 1;
nodes = (
(256,0,l),
(256,70,l),
(183,70,l),
(216,55,l),
(216,322,l),
(182,271,o),
(125,210,o),
(92,185,c),
(152,166,l),
(114,191,o),
(74,223,o),
(55,262,c),
(84,273,l),
(53,230,o),
(19,184,o),
(-22,156,c),
(-22,179,l),
(25,122,o),
(105,62,o),
(151,40,c),
(165,70,l),
(-20,70,l),
(-20,0,l)
);
},
{
closed = 1;
nodes = (
(256,0,l),
(256,70,l),
(218,70,o),
(216,93,o),
(216,110,c),
(176,110,l),
(176,0,l)
);
}
);
width = 236;
}
);
metricLeft = "=-10@165";
metricRight = "=beh-ar.medi";
script = arabic;
sortName = arL0037.xhist;
sortNameKeep = arL0037;
}
{
category = Letter;
color = 6;
glyphname = "ain-ar.medi.salt";
layers = (
{
anchors = (
{
name = bottom;
pos = (138,-20);
},
{
name = entry;
pos = (305,0);
},
{
name = exit;
pos = (1,0);
},
{
name = top;
pos = (138,282);
},
{
name = top.hist;
pos = (138,340);
}
);
layerId = m01;
shapes = (
{
closed = 1;
nodes = (
(325,0,l),
(325,70,l),
(157,70,l),
(236,76,o),
(273,142,o),
(280,219,c),
(198,219,l),
(198,185,o),
(177,151,o),
(138,151,cs),
(99,151,o),
(75,185,o),
(75,219,c),
(-4,219,l),
(2,142,o),
(39,76,o),
(118,70,c),
(-19,70,l),
(-19,0,l)
);
}
);
width = 305;
},
{
anchors = (
{
name = bottom;
pos = (138,-20);
},
{
name = entry;
pos = (305,0);
},
{
name = exit;
pos = (1,0);
},
{
name = top;
pos = (138,282);
},
{
name = top.hist;
pos = (138,340);
}
);
associatedMasterId = m01;
layerId = "8BF796DA-7A9D-4290-B1A7-10C0047C57A4";
name = "22 Feb 26 at 00:23";
shapes = (
{
closed = 1;
nodes = (
(325,0,l),
(325,70,l),
(157,70,l),
(242,77,o),
(279,153,o),
(281,237,c),
(331,219,l),
(198,219,l),
(198,185,o),
(177,151,o),
(138,151,cs),
(99,151,o),
(75,185,o),
(75,219,c),
(-55,219,l),
(-5,237,l),
(-3,153,o),
(33,77,o),
(118,70,c),
(-19,70,l),
(-19,0,l)
);
}
);
width = 305;
}
);
metricLeft = "=0@191";
metricRight = "=beh-ar.medi";
script = arabic;
sortName = arL0037.salt;
sortNameKeep = arL0037;
}
{
category = Letter;
glyphname = "alef-ar.fina";
kernLeft = alef.fina;
kernRight = beh;
layers = (
{
anchors = (
{
name = bottom;
pos = (43,-26);
},
{
name = entry;
pos = (100,0);
},
{
name = top;
pos = (43,780);
},
{
name = tophamza;
pos = (43,781);
}
);
backgroundImage = {
alpha = 80;
imagePath = "images/alef-ar.fina.jpg";
pos = (-183,-215);
scale = (14.67,14.67);
};
guides = (
{
name = "700";
pos = (501,770);
}
);
layerId = m01;
shapes = (
{
closed = 1;
nodes = (
(120,0,l),
(120,70,l),
(85,70,o),
(80,93,o),
(80,110,cs),
(75,330,o),
(75,549,o),
(79,769,c),
(53,730,o),
(15,688,o),
(-16,665,c),
(16,568,o),
(2,85,o),
(0,40,cs),
(-1,23,o),
(2,0,o),
(40,0,cs)
);
}
);
width = 100;
},
{
anchors = (
{
name = bottom;
pos = (43,-26);
},
{
name = entry;
pos = (100,0);
},
{
name = top;
pos = (43,780);
},
{
name = tophamza;
pos = (43,781);
}
);
associatedMasterId = m01;
backgroundImage = {
alpha = 80;
imagePath = "images/alef-ar.fina.jpg";
pos = (-183,-215);
scale = (14.67,14.67);
};
guides = (
{
name = "700";
pos = (501,770);
}
);
layerId = "A6062813-14B2-42C9-BF41-FCE7A21C2E3B";
name = "21 Feb 26 at 23:58";
shapes = (
{
closed = 1;
nodes = (
(120,0,l),
(120,70,l),
(85,70,o),
(80,93,o),
(80,110,cs),
(75,343,o),
(75,575,o),
(80,808,c),
(111,828,l),
(96,779,o),
(19,683,o),
(-31,655,c),
(-25,681,l),
(18,654,o),
(2,89,o),
(0,40,cs),
(-1,23,o),
(2,0,o),
(40,0,cs)
);
}
);
width = 100;
}
);
metricLeft = "=0@40";
metricRight = "=-20";
script = arabic;
sortName = arL0005;
sortNameKeep = arL0005;
}
{
category = Letter;
glyphname = "alef-ar.fina.short";
kernLeft = alef.fina;
kernRight = beh;
layers = (
{
anchors = (
{
name = entry;
pos = (100,0);
}
);
backgroundImage = {
alpha = 80;
imagePath = "images/alef-ar.fina.jpg";
pos = (-183,-215);
scale = (14.67,14.67);
};
layerId = m01;
shapes = (
{
closed = 1;
nodes = (
(120,0,l),
(120,70,l),
(82,70,o),
(80,93,o),
(80,110,cs),
(80,832,l),
(111,852,l),
(96,803,o),
(19,707,o),
(-31,679,c),
(-25,705,l),
(1,689,o),
(0,568,o),
(0,516,cs),
(0,40,ls),
(0,23,o),
(2,0,o),
(40,0,cs)
);
}
);
width = 100;
}
);
metricLeft = "=alef-ar.fina";
metricRight = "=alef-ar.fina";
metricWidth = "=alef-ar.fina";
script = arabic;
sortName = arL0005;
sortNameKeep = arL0005;
}
{
category = Letter;
color = 9;
glyphname = "alef-ar.isol";
layers = (
{
anchors = (
{
name = bottom;
pos = (230,-26);
},
{
name = tophamza;
pos = (203,618);
}
);
guides = (
{
name = "700";
pos = (501,770);
}
);
layerId = m01;
name = Regular;
shapes = (
{
closed = 1;
nodes = (
(343,-6,o),
(475,51,o),
(571,157,c),
(378,25,o),
(67,79,o),
(73,312,cs),
(75,393,o),
(86,561,o),
(85,770,c),
(59,730,o),
(20,684,o),
(-14,658,c),
(14,611,o),
(8,468,o),
(0,267,cs),
(-7,67,o),
(102,-6,o),
(230,-6,cs)
);
}
);
width = 591;
},
{
anchors = (
{
name = bottom;
pos = (111,-20);
},
{
name = tophamza;
pos = (196,618);
}
);
associatedMasterId = m01;
attr = {
coordinates = (
0,
-50
);
};
guides = (
{
name = "700";
pos = (494,770);
}
);
layerId = "710F0A47-135A-462A-9A72-C80AEB5870AE";
name = "{0} 21 Feb 26 at 23:57";
shapes = (
{
closed = 1;
nodes = (
(165,-6,o),
(228,42,o),
(244,141,c),
(189,62,o),
(65,76,o),
(67,184,cs),
(71,380,o),
(79,561,o),
(78,770,c),
(52,729,o),
(12,683,o),
(-22,658,c),
(18,574,o),
(-4,197,o),
(-5,139,cs),
(-7,44,o),
(48,-6,o),
(108,-6,cs)
);
}
);
width = 264;
},
{
anchors = (
{
name = bottom;
pos = (300,-68);
},
{
name = tophamza;
pos = (203,618);
}
);
associatedMasterId = m01;
attr = {
coordinates = (
100,
-50
);
};
backgroundImage = {
alpha = 80;
imagePath = "images/alef-ar.jpg";
locked = 1;
pos = (-352,-221);
scale = (14.67,14.67);
};
guides = (
{
name = "700";
pos = (501,770);
}
);
layerId = "70A950D7-D91E-4F0A-9274-A375E33B6E44";
name = "{100} 21 Feb 26 at 23:57";
shapes = (
{
closed = 1;
nodes = (
(483,-48,o),
(657,44,o),
(747,216,c),
(510,-12,o),
(66,19,o),
(73,312,cs),
(75,393,o),
(86,559,o),
(85,770,c),
(59,730,o),
(20,684,o),
(-14,658,c),
(14,611,o),
(8,468,o),
(0,267,cs),
(-9,38,o),
(139,-48,o),
(300,-48,cs)
);
}
);
width = 767;
},
{
anchors = (
{
name = bottom;
pos = (111,-20);
},
{
name = tophamza;
pos = (196,618);
}
);
associatedMasterId = m01;
guides = (
{
name = "700";
pos = (494,770);
}
);
layerId = "C2AB3AEF-3031-4168-911E-178012456F03";
name = "{0, 700} 29 Sep 25 at 20:31";
shapes = (
{
closed = 1;
nodes = (
(169,-6,o),
(236,48,o),
(247,161,c),
(254,157,l),
(205,61,o),
(65,69,o),
(67,184,cs),
(71,389,o),
(80,578,o),
(78,800,c),
(104,820,l),
(88,771,o),
(11,675,o),
(-39,647,c),
(-33,673,l),
(22,639,o),
(-4,202,o),
(-5,139,cs),
(-7,44,o),
(48,-6,o),
(108,-6,cs)
);
}
);
width = 264;
},
{
anchors = (
{
name = bottom;
pos = (300,-68);
},
{
name = tophamza;
pos = (203,618);
}
);
associatedMasterId = m01;
backgroundImage = {
alpha = 80;
imagePath = "images/alef-ar.jpg";
locked = 1;
pos = (-352,-221);
scale = (14.67,14.67);
};
guides = (
{
name = "700";
pos = (501,770);
}
);
layerId = "975A648C-5DD9-4AC0-8659-2A04A4371785";
name = "{100, 700} 29 Sep 25 at 20:32";
shapes = (
{
closed = 1;
nodes = (
(487,-48,o),
(665,48,o),
(753,228,c),
(756,225,l),
(521,-13,o),
(66,15,o),
(73,312,cs),
(75,397,o),
(87,574,o),
(85,799,c),
(110,819,l),
(95,770,o),
(18,674,o),
(-32,646,c),
(-26,672,l),
(16,646,o),
(9,494,o),
(0,267,cs),
(-9,38,o),
(139,-48,o),
(300,-48,cs)
);
}
);
width = 767;
},
{
anchors = (
{
name = bottom;
pos = (230,-26);
},
{
name = tophamza;
pos = (203,618);
}
);
associatedMasterId = m01;
guides = (
{
name = "700";
pos = (501,770);
}
);
layerId = "311066F4-8D91-43FB-88A1-B0E5DFA6AC2F";
name = "21 Feb 26 at 23:57";
shapes = (
{
closed = 1;
nodes = (
(356,-6,o),
(507,66,o),
(604,197,c),
(607,185,l),
(420,19,o),
(67,64,o),
(73,312,cs),
(75,397,o),
(87,576,o),
(85,799,c),
(110,819,l),
(95,770,o),
(18,674,o),
(-32,646,c),
(-26,672,l),
(16,646,o),
(9,494,o),
(0,267,cs),
(-7,67,o),
(102,-6,o),
(230,-6,cs)
);
}
);
width = 591;
}
);
metricLeft = "=0@267";
metricRight = "=20";
script = arabic;
sortName = arL0004;
sortNameKeep = arL0004;
}
{
category = Letter;
glyphname = "alefMaksura-ar.fina";
kernRight = yeh;
layers = (
{
anchors = (
{
name = bottom;
pos = (130,-198);
},
{
name = bottom.hist;
pos = (274,-167);
},
{
name = entry;
pos = (283,0);
},
{
name = top;
pos = (120,180);
}
);
backgroundImage = {
alpha = 80;
imagePath = "images/CBL-MS-1407-000003.png";
pos = (-546,-856);
scale = (0.9,0.9);
};
layerId = m01;
shapes = (
{
closed = 1;
nodes = (
(86,82,l),
(96,26,o),
(145,0,o),
(230,0,cs),
(303,0,l),
(303,70,l),
(239,70,o),
(223,72,o),
(188,115,cs),
(167,143,o),
(148,160,o),
(120,160,cs),
(62,160,o),
(0,89,o),
(0,20,cs),
(0,-36,o),
(34,-81,o),
(189,-88,c),
(150,-29,l),
(162,-66,o),
(169,-91,o),
(173,-134,c),
(195,-108,l),
(165,-112,o),
(6,-104,o),
(-12,-74,c),
(16,-74,l),
(-12,-124,o),
(-110,-201,o),
(-159,-216,c),
(-139,-178,l),
(242,-178,ls),
(280,-178,o),
(284,-155,o),
(282,-138,cs),
(278,-95,o),
(271,-70,o),
(259,-33,cs),
(255,-21,o),
(244,-18,o),
(237,-18,cs),
(130,-18,o),
(89,8,o),
(64,63,c),
(42,33,l),
(128,81,l)
);
}
);
width = 283;
}
);
metricLeft = "=alefMaksura-ar";
metricRight = "=-20";
script = arabic;
sortName = arL0080a;
sortNameKeep = arL0080a;
}
{
category = Letter;
color = 6;
glyphname = "alefMaksura-ar.fina.salt";
kernRight = yeh;
layers = (
{
anchors = (
{
name = bottom;
pos = (107,-437);
},
{
name = bottom.hist;
pos = (251,-406);
},
{
name = entry;
pos = (274,0);
},
{
name = top;
pos = (120,180);
}
);
backgroundImage = {
alpha = 80;
imagePath = "images/CBL-MS-1407-000004.png";
locked = 1;
pos = (-954,-963);
scale = (0.9,0.9);
};
layerId = m01;
shapes = (
{
closed = 1;
nodes = (
(-62,-417,l),
(219,-417,ls),
(257,-417,o),
(261,-394,o),
(259,-377,c),
(255,-265,o),
(255,-152,o),
(259,-40,cs),
(260,-22,o),
(244,-20,o),
(237,-20,cs),
(130,-20,o),
(89,6,o),
(64,61,c),
(42,33,l),
(128,81,l),
(86,82,l),
(96,26,o),
(145,0,o),
(230,0,cs),
(303,0,l),
(303,70,l),
(239,70,o),
(223,72,o),
(188,115,cs),
(167,143,o),
(148,160,o),
(120,160,cs),
(62,160,o),
(0,87,o),
(0,18,cs),
(0,-45,o),
(43,-94,o),
(252,-91,c),
(194,-65,l),
(199,-167,o),
(199,-270,o),
(194,-372,c),
(212,-347,l),
(142,-351,o),
(83,-343,o),
(65,-313,c),
(93,-313,l),
(65,-363,o),
(-33,-440,o),
(-82,-455,c)
);
}
);
width = 274;
}
);
metricLeft = "=alefMaksura-ar.salt";
metricWidth = "=alefMaksura-ar.salt";
script = arabic;
sortName = arL0080b;
sortNameKeep = arL0080b;
}
{
category = Letter;
glyphname = "alefMaksura-ar.fina.wide";
kernRight = kaf.wide;
layers = (
{
anchors = (
{
name = bottom.hist;
pos = (393,-235);
},
{
name = entry;
pos = (299,0);
}
);
backgroundImage = {
alpha = 80;
imagePath = "images/CBL-MS-1407-000003.png";
pos = (-546,-856);
scale = (0.9,0.9);
};
layerId = m01;
shapes = (
{
closed = 1;
nodes = (
(135,-283,o),
(291,-273,o),
(359,-260,cs),
(399,-252,o),
(415,-224,o),
(406,-167,cs),
(397,-114,o),
(373,-63,o),
(364,-46,cs),
(352,-25,o),
(346,-26,o),
(323,-27,cs),
(242,-31,o),
(164,-20,o),
(139,21,cs),
(122,49,o),
(136,46,o),
(147,35,cs),
(180,4,o),
(224,0,o),
(299,0,c),
(299,118,l),
(257,131,o),
(234,191,o),
(169,192,cs),
(91,194,o),
(0,84,o),
(0,-21,cs),
(0,-113,o),
(86,-153,o),
(250,-144,cs),
(257,-143,o),
(261,-157,o),
(263,-160,c),
(174,-167,o),
(52,-167,o),
(6,-109,cs),
(3,-106,o),
(1,-106,o),
(-1,-109,cs),
(-25,-150,o),
(-64,-178,o),
(-110,-200,cs),
(-113,-202,o),
(-114,-205,o),
(-111,-207,cs),
(-87,-232,o),
(-46,-257,o),
(19,-266,cs)
);
}
);
width = 299;
}
);
metricLeft = "=0@-21";
metricRight = "=0@0";
script = arabic;
sortName = arL0080c;
sortNameKeep = arL0080c;
}
{
category = Letter;
color = 6;
glyphname = "alefMaksura-ar.fina.wide.salt";
layers = (
{
anchors = (
{
name = bottom;
pos = (389,-650);
},
{
name = entry;
pos = (323,0);
}
);
backgroundImage = {
alpha = 80;
imagePath = "images/CBL-MS-1407-000003.png";
locked = 1;
pos = (-1842,-941);
scale = (0.9,0.9);
};
layerId = m01;
shapes = (
{
closed = 1;
nodes = (
(175,0,o),
(223,0,o),
(323,0,c),
(323,117,l),
(269,136,o),
(245,221,o),
(161,222,cs),
(62,222,o),
(0,96,o),
(0,14,cs),
(0,-123,o),
(170,-139,o),
(252,-132,cs),
(280,-129,o),
(284,-148,o),
(289,-189,cs),
(304,-321,o),
(317,-435,o),
(310,-566,c),
(258,-570,o),
(198,-560,o),
(155,-537,cs),
(152,-536,o),
(150,-536,o),
(148,-539,cs),
(119,-575,o),
(71,-624,o),
(38,-639,cs),
(34,-641,o),
(34,-644,o),
(38,-646,cs),
(99,-681,o),
(189,-704,o),
(356,-683,cs),
(378,-681,o),
(393,-672,o),
(393,-648,cs),
(397,-452,o),
(375,-233,o),
(369,-45,cs),
(368,-27,o),
(367,-13,o),
(348,-15,cs),
(263,-25,o),
(163,-22,o),
(109,80,cs),
(104,89,o),
(114,95,o),
(120,86,cs)
);
}
);
width = 323;
}
);
metricLeft = "=0@14";
metricRight = "=0@0";
script = arabic;
sortName = arL0080d;
sortNameKeep = arL0080d;
}
{
category = Letter;
glyphname = "beh-ar.init";
kernLeft = beh;
kernRight = beh.init;
layers = (
{
anchors = (
{
name = bottom;
pos = (40,-20);
},
{
name = bottom.hist;
pos = (40,-10);
},
{
name = exit;
},
{
name = top;
pos = (42,316);
},
{
name = top.hist;
pos = (52,283);
}
);
backgroundImage = {
alpha = 80;
imagePath = "images/behDotless-ar.init.jpg";
locked = 1;
pos = (-443,-546);
scale = (14.67,14.67);
};
layerId = m01;
shapes = (
{
closed = 1;
nodes = (
(40,0,ls),
(78,0,o),
(80,23,o),
(80,40,cs),
(80,312,l),
(53,279,o),
(13,247,o),
(-19,227,c),
(2,200,o),
(0,135,o),
(0,80,cs),
(0,70,l),
(-20,70,l),
(-20,0,l)
);
}
);
width = 100;
},
{
anchors = (
{
name = bottom;
pos = (40,-20);
},
{
name = bottom.hist;
pos = (40,-10);
},
{
name = exit;
},
{
name = top;
pos = (42,316);
},
{
name = top.hist;
pos = (52,283);
}
);
associatedMasterId = m01;
backgroundImage = {
alpha = 80;
imagePath = "images/behDotless-ar.init.jpg";
locked = 1;
pos = (-443,-546);
scale = (14.67,14.67);
};
layerId = "00E648EC-AFCC-44A7-8780-C8F30EE00515";
name = "22 Feb 26 at 00:00";
shapes = (
{
closed = 1;
nodes = (
(78,0,o),
(80,23,o),
(80,40,cs),
(80,342,l),
(111,363,l),
(95,311,o),
(9,239,o),
(-41,215,c),
(-35,238,l),
(3,226,o),
(0,146,o),
(0,80,cs),
(0,40,ls),
(0,23,o),
(2,0,o),
(40,0,cs)
);
},
{
closed = 1;
nodes = (
(40,0,l),
(40,70,l),
(-20,70,l),
(-20,0,l)
);
}
);
width = 100;
}
);
metricLeft = "=-20";
metricRight = "=20";
script = arabic;
sortName = arL0012;
sortNameKeep = arL0012;
}
{
category = Letter;
glyphname = "beh-ar.init.high";
kernLeft = beh;
kernRight = beh.init;
layers = (
{
anchors = (
{
name = bottom;
pos = (40,-20);
},
{
name = bottom.hist;
pos = (40,-10);
},
{
name = exit;
},
{
name = top;
pos = (42,416);
},
{
name = top.hist;
pos = (52,383);
}
);
layerId = m01;
shapes = (
{
closed = 1;
nodes = (
(40,0,ls),
(78,0,o),
(80,23,o),
(80,40,cs),
(80,412,l),
(53,379,o),
(13,347,o),
(-19,327,c),
(2,300,o),
(0,235,o),
(0,180,cs),
(0,70,l),
(-20,70,l),
(-20,0,l)
);
}
);
width = 100;
},
{
anchors = (
{
name = bottom;
pos = (40,-20);
},
{
name = bottom.hist;
pos = (40,-10);
},
{
name = exit;
},
{
name = top;
pos = (42,416);
},
{
name = top.hist;
pos = (52,383);
}
);
associatedMasterId = m01;
layerId = "491E7E6B-664C-40F7-B82B-100D6D392574";
name = "22 Feb 26 at 00:00";
shapes = (
{
closed = 1;
nodes = (
(40,0,l),
(40,70,l),
(-20,70,l),
(-20,0,l)
);
},
{
closed = 1;
nodes = (
(78,0,o),
(80,23,o),
(80,40,cs),
(80,442,l),
(111,463,l),
(96,414,o),
(19,348,o),
(-31,320,c),
(-25,334,l),
(2,312,o),
(0,240,o),
(0,180,cs),
(0,40,ls),
(0,23,o),
(2,0,o),
(40,0,cs)
);
}
);
width = 100;
}
);
metricLeft = "=beh-ar.init";
metricRight = "=beh-ar.init";
metricWidth = "=beh-ar.init";
script = arabic;
sortName = arL0013;
sortNameKeep = arL0013;
}
{
category = Letter;
color = 9;
glyphname = "beh-ar.isol";
kernLeft = beh;
kernRight = dal;
layers = (
{
anchors = (
{
name = bottom;
pos = (470,-20);
},
{
name = bottom.hist;
pos = (911,10);
},
{
name = top;
pos = (470,130);
},
{
name = top.hist;
pos = (768,215);
}
);
backgroundImage = {
alpha = 80;
imagePath = "images/behDotless-ar.jpg";
pos = (-428,-293);
scale = (14.67,14.67);
};
layerId = m01;
shapes = (
{
closed = 1;
nodes = (
(880,0,ls),
(918,0,o),
(920,23,o),
(920,40,cs),
(914,126,o),
(870,220,o),
(821,283,c),
(790,232,o),
(757,199,o),
(709,165,c),
(764,134,o),
(801,99,o),
(812,70,c),
(293,70,ls),
(247,70,o),
(146,77,o),
(113,97,c),
(86,63,o),
(39,24,o),
(0,0,c)
);
}
);
width = 940;
},
{
anchors = (
{
name = bottom;
pos = (240,-20);
},
{
name = bottom.hist;
pos = (480,10);
},
{
name = top;
pos = (240,180);
},
{
name = top.hist;
pos = (327,227);
}
);
associatedMasterId = m01;
attr = {
coordinates = (
0,
-50
);
};
backgroundImage = {
alpha = 80;
imagePath = "images/CBL-MS-1407-000001.png";
locked = 1;
pos = (-3289,-3507);
scale = (3.4,3.4);
};
layerId = "DA668C9A-53EB-4D97-9BC3-AD88F6D47F3E";
metricWidth = "=510";
name = "{0} 21 Feb 26 at 23:58";
shapes = (
{
closed = 1;
nodes = (
(450,0,ls),
(488,0,o),
(490,23,o),
(490,40,cs),
(484,126,o),
(440,220,o),
(391,283,c),
(360,232,o),
(327,199,o),
(279,165,c),
(334,134,o),
(371,99,o),
(382,70,c),
(313,70,ls),
(267,70,o),
(150,77,o),
(113,97,c),
(86,63,o),
(39,24,o),
(0,0,c)
);
}
);
width = 510;
},
{
anchors = (
{
name = bottom;
pos = (3070,-20);
},
{
name = bottom.hist;
pos = (5971,10);
},
{
name = top;
pos = (3070,130);
},
{
name = top.hist;
pos = (5817,227);
}
);
associatedMasterId = m01;
attr = {
coordinates = (
100,
-50
);
};
layerId = "293D9C9B-DBAF-449F-ABEE-92491B3790C9";
metricWidth = "=6000";
name = "{100} 21 Feb 26 at 23:58";
shapes = (
{
closed = 1;
nodes = (
(5940,0,ls),
(5978,0,o),
(5980,23,o),
(5980,40,cs),
(5974,126,o),
(5930,220,o),
(5881,283,c),
(5850,232,o),
(5817,199,o),
(5769,165,c),
(5824,134,o),
(5861,99,o),
(5872,70,c),
(293,70,ls),
(247,70,o),
(146,77,o),
(113,97,c),
(86,63,o),
(39,24,o),
(0,0,c)
);
}
);
width = 6000;
},
{
anchors = (
{
name = bottom;
pos = (240,-20);
},
{
name = bottom.hist;
pos = (480,10);
},
{
name = top;
pos = (240,180);
},
{
name = top.hist;
pos = (327,227);
}
);
associatedMasterId = m01;
backgroundImage = {
alpha = 80;
imagePath = "images/CBL-MS-1407-000001.png";
locked = 1;
pos = (-3289,-3507);
scale = (3.4,3.4);
};
layerId = "E3D62362-D447-4A83-A898-84C06634E39F";
metricWidth = "=510";
name = "{0, 0} 23 Sep 25 at 11:37";
shapes = (
{
closed = 1;
nodes = (
(-23,0,l),
(450,0,ls),
(488,0,o),
(490,23,o),
(490,40,cs),
(483,145,o),
(419,262,o),
(358,321,c),
(431,361,l),
(379,244,o),
(338,203,o),
(247,143,c),
(223,192,l),
(316,152,o),
(374,102,o),
(384,64,c),
(401,70,l),
(313,70,ls),
(261,70,o),
(120,79,o),
(104,105,c),
(130,121,l),
(102,71,o),
(6,-6,o),
(-43,-21,c)
);
}
);
width = 510;
},
{
anchors = (
{
name = bottom;
pos = (3070,-20);
},
{
name = bottom.hist;
pos = (5971,10);
},
{
name = top;
pos = (3070,130);
},
{
name = top.hist;
pos = (5817,227);
}
);
associatedMasterId = m01;
layerId = "307A62E0-5030-4782-86E3-03AB3DF697F9";
metricWidth = "=6000";
name = "17 May 23 at 02:24";
shapes = (
{
closed = 1;
nodes = (
(-23,0,l),
(5940,0,ls),
(5978,0,o),
(5980,23,o),
(5980,40,cs),
(5973,145,o),
(5909,262,o),
(5848,321,c),
(5921,361,l),
(5869,244,o),
(5828,203,o),
(5737,143,c),
(5713,192,l),
(5806,152,o),
(5864,102,o),
(5874,64,c),
(5891,70,l),
(293,70,ls),
(241,70,o),
(120,79,o),
(104,105,c),
(130,121,l),
(102,71,o),
(6,-6,o),
(-43,-21,c)
);
}
);
width = 6000;
},
{
anchors = (
{
name = bottom;
pos = (470,-20);
},
{
name = bottom.hist;
pos = (911,10);
},
{
name = top;
pos = (470,130);
},
{
name = top.hist;
pos = (768,215);
}
);
associatedMasterId = m01;
backgroundImage = {
alpha = 80;
imagePath = "images/behDotless-ar.jpg";
pos = (-428,-293);
scale = (14.67,14.67);
};
layerId = "A73F0372-F900-4D14-9FB6-0247FDA01172";
name = "21 Feb 26 at 23:58";
shapes = (
{
closed = 1;
nodes = (
(-23,0,l),
(880,0,ls),
(918,0,o),
(920,23,o),
(920,40,cs),
(913,145,o),
(849,262,o),
(788,321,c),
(861,361,l),
(809,244,o),
(768,203,o),
(677,143,c),
(653,192,l),
(746,152,o),
(804,102,o),
(814,64,c),
(831,70,l),
(293,70,ls),
(241,70,o),
(120,79,o),
(104,105,c),
(130,121,l),
(102,71,o),
(6,-6,o),
(-43,-21,c)
);
}
);
width = 940;
}
);
metricLeft = "=0";
metricRight = "=20";
metricWidth = "=940";
script = arabic;
sortName = arL0008;
sortNameKeep = arL0008;
}
{
category = Letter;
glyphname = "beh-ar.medi";
kernLeft = beh;
kernRight = beh;
layers = (
{
anchors = (
{
name = bottom;
pos = (40,-20);
},
{
name = bottom.hist;
pos = (40,-10);
},
{
name = entry;
pos = (100,0);
},
{
name = exit;
},
{
name = top;
pos = (42,316);
},
{
name = top.hist;
pos = (52,283);
}
);
layerId = m01;
shapes = (
{
closed = 1;
nodes = (
(120,0,l),
(120,70,l),
(82,70,o),
(80,93,o),
(80,110,cs),
(80,312,l),
(53,279,o),
(13,247,o),
(-19,227,c),
(-2,205,o),
(0,156,o),
(0,110,cs),
(0,70,l),
(-20,70,l),
(-20,0,l)
);
}
);
width = 100;
},
{
anchors = (
{
name = bottom;
pos = (40,-20);
},
{
name = bottom.hist;
pos = (40,-10);
},
{
name = entry;
pos = (100,0);
},
{
name = exit;
},
{
name = top;
pos = (42,316);
},
{
name = top.hist;
pos = (52,283);
}
);
associatedMasterId = m01;
layerId = "15DED934-C0C1-4755-A3BE-199AEEBD2388";
name = "21 Feb 26 at 23:59";
shapes = (
{
closed = 1;
nodes = (
(78,0,o),
(80,23,o),
(80,40,cs),
(80,342,l),
(111,363,l),
(95,311,o),
(9,239,o),
(-41,215,c),
(-35,238,l),
(3,226,o),
(0,146,o),
(0,80,cs),
(0,40,ls),
(0,23,o),
(2,0,o),
(40,0,cs)
);
},
{
closed = 1;
nodes = (
(40,0,l),
(40,70,l),
(-20,70,l),
(-20,0,l)
);
},
{
closed = 1;
nodes = (
(120,0,l),
(120,70,l),
(82,70,o),
(80,93,o),
(80,110,c),
(0,110,l),
(0,0,l)
);
}
);
width = 100;
}
);
metricLeft = "=beh-ar.init";
metricRight = "=-20";
metricWidth = "=beh-ar.init";
script = arabic;
sortName = arL0010a;
sortNameKeep = arL0010a;
}
{
category = Letter;
color = 9;
glyphname = "behDotless-ar.fina";
layers = (
{
anchors = (
{
name = damma;
pos = (-85,50);
},
{
name = kasra;
pos = (486,-60);
}
);
layerId = m01;
shapes = (
{
closed = 1;
nodes = (
(-23,0,l),
(920,0,l),
(920,70,l),
(293,70,ls),
(241,70,o),
(120,79,o),
(104,105,c),
(132,121,l),
(104,71,o),
(6,-6,o),
(-43,-21,c)
);
},
{
pos = (840,0);
ref = "behDotless-ar.medi";
}
);
width = 940;
},
{
anchors = (
{
name = damma;
pos = (-85,50);
},
{
name = kasra;
pos = (3026,-60);
}
);
associatedMasterId = m01;
attr = {
coordinates = (
100
);
};
layerId = "F12C8E8A-FF78-45E3-A48F-D527A8739E99";
name = "17 May 23 at 02:25";
shapes = (
{
closed = 1;
nodes = (
(-23,0,l),
(5960,0,l),
(5960,70,l),
(293,70,ls),
(241,70,o),
(120,79,o),
(104,105,c),
(130,121,l),
(102,71,o),
(6,-6,o),
(-43,-21,c)
);
},
{
pos = (5900,0);
ref = "behDotless-ar.medi";
}
);
width = 6000;
},
{
anchors = (
{
name = damma;
pos = (-85,50);
},
{
name = kasra;
pos = (486,-60);
}
);
associatedMasterId = m01;
attr = {
coordinates = (
0
);
};
layerId = "0EF9B9D9-058E-4647-B518-1DB8D2AF4DB1";
name = "{0, 0} 23 Sep 25 at 11:57";
shapes = (
{
closed = 1;
nodes = (
(-23,0,l),
(470,0,l),
(470,70,l),
(293,70,ls),
(241,70,o),
(120,79,o),
(104,105,c),
(130,121,l),
(102,71,o),
(6,-6,o),
(-43,-21,c)
);
},
{
pos = (410,0);
ref = "behDotless-ar.medi";
}
);
width = 510;
}
);
metricLeft = "=behDotless-ar";
metricRight = "=behDotless-ar.medi";
metricWidth = "=behDotless-ar";
script = arabic;
sortName = arL0009;
sortNameKeep = arL0009;
}
{
category = Letter;
glyphname = "behDotless-ar.init";
kernLeft = beh;
kernRight = beh.init;
layers = (
{
anchors = (
{
name = bottom;
pos = (40,-10);
},
{
name = exit;
},
{
name = top;
pos = (52,283);
}
);
backgroundImage = {
alpha = 80;
imagePath = "images/behDotless-ar.init.jpg";
locked = 1;
pos = (-443,-546);
scale = (14.67,14.67);
};
layerId = m01;
shapes = (
{
closed = 1;
nodes = (
(78,0,o),
(80,23,o),
(80,40,cs),
(80,342,l),
(111,363,l),
(95,311,o),
(9,239,o),
(-41,215,c),
(-35,238,l),
(3,226,o),
(0,146,o),
(0,80,cs),
(0,40,ls),
(0,23,o),
(2,0,o),
(40,0,cs)
);
},
{
closed = 1;
nodes = (
(40,0,l),
(40,70,l),
(-20,70,l),
(-20,0,l)
);
}
);
width = 100;
}
);
metricLeft = "=-20";
metricRight = "=20";
script = arabic;
sortName = arL0012;
sortNameKeep = arL0012;
}
{
category = Letter;
glyphname = "behDotless-ar.init.high";
kernLeft = beh;
kernRight = beh.init;
layers = (
{
anchors = (
{
name = bottom;
pos = (40,-20);
},
{
name = bottom.hist;
pos = (40,-10);
},
{
name = exit;
},
{
name = top;
pos = (42,416);
},
{
name = top.hist;
pos = (52,383);
}
);
layerId = m01;
shapes = (
{
closed = 1;
nodes = (
(40,0,l),
(40,70,l),
(-20,70,l),
(-20,0,l)
);
},
{
closed = 1;
nodes = (
(78,0,o),
(80,23,o),
(80,40,cs),
(80,442,l),
(111,463,l),
(96,414,o),
(19,348,o),
(-31,320,c),
(-25,334,l),
(2,312,o),
(0,240,o),
(0,180,cs),
(0,40,ls),
(0,23,o),
(2,0,o),
(40,0,cs)
);
}
);
width = 100;
}
);
metricLeft = "=behDotless-ar.init";
metricRight = "=behDotless-ar.init";
metricWidth = "=behDotless-ar.init";
script = arabic;
sortName = arL0013;
sortNameKeep = arL0013;
}
{
category = Letter;
glyphname = "behDotless-ar.medi.high";
kernLeft = beh;
kernRight = beh;
layers = (
{
anchors = (
{
name = bottom;
pos = (40,-20);
},
{
name = bottom.hist;
pos = (40,-10);
},
{
name = entry;
pos = (100,0);
},
{
name = exit;
},
{
name = top;
pos = (42,416);
},
{
name = top.hist;
pos = (52,383);
}
);
layerId = m01;
shapes = (
{
closed = 1;
nodes = (
(40,0,l),
(40,70,l),
(-20,70,l),
(-20,0,l)
);
},
{
closed = 1;
nodes = (
(78,0,o),
(80,23,o),
(80,40,cs),
(80,442,l),
(111,463,l),
(96,414,o),
(19,348,o),
(-31,320,c),
(-25,334,l),
(2,312,o),
(0,240,o),
(0,180,cs),
(0,40,ls),
(0,23,o),
(2,0,o),
(40,0,cs)
);
},
{
closed = 1;
nodes = (
(120,0,l),
(120,70,l),
(82,70,o),
(80,93,o),
(80,110,c),
(0,110,l),
(0,0,l)
);
}
);
width = 100;
}
);
metricLeft = "=behDotless-ar.medi";
metricRight = "=behDotless-ar.medi";
metricWidth = "=behDotless-ar.medi";
script = arabic;
sortName = arL0010d;
sortNameKeep = arL0010d;
}
{
category = Letter;
color = 9;
glyphname = "dal-ar.fina";
kernLeft = beh;
kernRight = dal;
layers = (
{
anchors = (
{
name = bottom;
pos = (532,-20);
},
{
name = entry;
pos = (940,0);
},
{
name = top;
pos = (532,220);
},
{
name = top.hist;
pos = (532,285);
}
);
layerId = m01;
shapes = (
{
closed = 1;
nodes = (
(960,0,l),
(960,70,l),
(923,70,o),
(914,88,o),
(911,98,cs),
(906,114,o),
(903,127,o),
(897,145,cs),
(893,157,o),
(882,160,o),
(875,160,cs),
(391,160,ls),
(355,160,o),
(267,164,o),
(236,184,c),
(302,281,l),
(291,290,l),
(125,111,l),
(166,96,o),
(252,90,o),
(293,90,cs),
(805,90,l),
(808,70,l),
(293,70,ls),
(247,70,o),
(149,77,o),
(114,96,c),
(86,62,o),
(40,24,o),
(0,0,c)
);
}
);
width = 940;
},
{
anchors = (
{
name = bottom;
pos = (250,-20);
},
{
name = entry;
pos = (510,0);
},
{
name = top;
pos = (362,220);
},
{
name = top.hist;
pos = (402,285);
}
);
associatedMasterId = m01;
attr = {
coordinates = (
0,
-50
);
};
layerId = "9CB05318-11DB-41E8-9F5B-4E2DC5E8F10B";
name = "{0} 22 Feb 26 at 00:02";
shapes = (
{
closed = 1;
nodes = (
(530,0,l),
(530,70,l),
(493,70,o),
(484,88,o),
(481,98,cs),
(476,114,o),
(473,127,o),
(467,145,cs),
(463,157,o),
(452,160,o),
(445,160,cs),
(411,160,ls),
(375,160,o),
(270,164,o),
(236,184,c),
(302,281,l),
(291,290,l),
(126,112,l),
(167,97,o),
(252,92,o),
(293,91,cs),
(375,90,l),
(378,70,l),
(293,70,ls),
(247,70,o),
(149,77,o),
(114,96,c),
(86,62,o),
(40,24,o),
(0,0,c)
);
}
);
width = 510;
},
{
anchors = (
{
name = bottom;
pos = (3032,-20);
},
{
name = entry;
pos = (6000,0);
},
{
name = top;
pos = (3032,220);
},
{
name = top.hist;
pos = (3032,285);
}
);
associatedMasterId = m01;
attr = {
coordinates = (
100,
-50
);
};
layerId = "96D4FC97-756E-4E59-A367-02A2EFB15A88";
name = "{100} 22 Feb 26 at 00:02";
shapes = (
{
closed = 1;
nodes = (
(6020,0,l),
(6020,70,l),
(5983,70,o),
(5974,88,o),
(5971,98,cs),
(5966,114,o),
(5963,127,o),
(5957,145,cs),
(5953,157,o),
(5942,160,o),
(5935,160,cs),
(391,160,ls),
(355,160,o),
(267,164,o),
(236,184,c),
(302,281,l),
(291,290,l),
(125,111,l),
(166,96,o),
(252,90,o),
(293,90,cs),
(5865,90,l),
(5868,70,l),
(293,70,ls),
(247,70,o),
(149,77,o),
(114,96,c),
(86,62,o),
(40,24,o),
(0,0,c)
);
}
);
width = 6000;
},
{
anchors = (
{
name = bottom;
pos = (250,-20);
},
{
name = entry;
pos = (510,0);
},
{
name = top;
pos = (362,220);
},
{
name = top.hist;
pos = (402,285);
}
);
associatedMasterId = m01;
layerId = "DE254147-8D56-4ECF-9DB1-F3ECAF2BC0B4";
name = "17 May 23 at 04:00";
shapes = (
{
closed = 1;
nodes = (
(-23,0,l),
(450,0,ls),
(488,0,o),
(492,23,o),
(490,40,cs),
(486,83,o),
(479,108,o),
(467,145,cs),
(463,157,o),
(452,160,o),
(445,160,cs),
(411,160,ls),
(372,160,o),
(253,165,o),
(230,189,c),
(222,163,l),
(345,345,l),
(340,252,l),
(259,315,l),
(338,341,l),
(113,98,l),
(104,126,l),
(120,100,o),
(241,92,o),
(293,91,cs),
(391,90,l),
(359,145,l),
(371,108,o),
(378,83,o),
(382,40,c),
(397,70,l),
(293,70,ls),
(241,70,o),
(120,79,o),
(104,105,c),
(132,121,l),
(104,71,o),
(6,-6,o),
(-43,-21,c)
);
},
{
closed = 1;
nodes = (
(530,0,l),
(530,70,l),
(493,70,o),
(485,88,o),
(481,98,c),
(448,98,l),
(448,0,l)
);
}
);
width = 510;
},
{
anchors = (
{
name = bottom;
pos = (3032,-20);
},
{
name = entry;
pos = (6000,0);
},
{
name = top;
pos = (3032,220);
},
{
name = top.hist;
pos = (3032,285);
}
);
associatedMasterId = m01;
layerId = "1C08AE65-7D33-4305-928A-8761C156C024";
name = "15 May 23 at 22:26";
shapes = (
{
closed = 1;
nodes = (
(-23,0,l),
(5940,0,ls),
(5978,0,o),
(5982,23,o),
(5980,40,cs),
(5976,83,o),
(5969,108,o),
(5957,145,cs),
(5953,157,o),
(5942,160,o),
(5935,160,cs),
(391,160,ls),
(352,160,o),
(253,165,o),
(230,189,c),
(222,163,l),
(345,345,l),
(340,252,l),
(259,315,l),
(338,341,l),
(113,98,l),
(104,125,l),
(120,99,o),
(241,90,o),
(293,90,cs),
(5881,90,l),
(5849,145,l),
(5861,108,o),
(5868,83,o),
(5872,40,c),
(5887,70,l),
(293,70,ls),
(241,70,o),
(120,79,o),
(104,105,c),
(132,121,l),
(104,71,o),
(6,-6,o),
(-43,-21,c)
);
},
{
closed = 1;
nodes = (
(6020,0,l),
(6020,70,l),
(5983,70,o),
(5975,88,o),
(5971,98,c),
(5938,98,l),
(5938,0,l)
);
}
);
width = 6000;
},
{
anchors = (
{
name = bottom;
pos = (470,-20);
},
{
name = entry;
pos = (940,0);
},
{
name = top;
pos = (532,220);
},
{
name = top.hist;
pos = (532,285);
}
);
associatedMasterId = m01;
layerId = "9EBDB078-398D-4012-B3A9-5E7DF63DB1D5";
name = "22 Feb 26 at 00:02";
shapes = (
{
closed = 1;
nodes = (
(-23,0,l),
(880,0,ls),
(918,0,o),
(922,23,o),
(920,40,cs),
(916,83,o),
(909,108,o),
(897,145,cs),
(893,157,o),
(882,160,o),
(875,160,cs),
(391,160,ls),
(352,160,o),
(253,165,o),
(230,189,c),
(222,163,l),
(345,345,l),
(340,252,l),
(259,315,l),
(338,341,l),
(113,98,l),
(104,125,l),
(120,99,o),
(241,90,o),
(293,90,cs),
(821,90,l),
(789,145,l),
(801,108,o),
(808,83,o),
(812,40,c),
(827,70,l),
(293,70,ls),
(241,70,o),
(120,79,o),
(104,105,c),
(132,121,l),
(104,71,o),
(6,-6,o),
(-43,-21,c)
);
},
{
closed = 1;
nodes = (
(960,0,l),
(960,70,l),
(923,70,o),
(915,88,o),
(911,98,c),
(878,98,l),
(878,0,l)
);
}
);
width = 940;
}
);
metricLeft = "=dal-ar.isol";
metricRight = "=-20";
metricWidth = "=dal-ar.isol";
script = arabic;
sortName = arL0019;
sortNameKeep = arL0019;
}
{
category = Letter;
color = 9;
glyphname = "dal-ar.isol";
kernLeft = beh;
kernRight = dal;
layers = (
{
anchors = (
{
name = bottom;
pos = (532,-20);
},
{
name = top;
pos = (532,220);
},
{
name = top.hist;
pos = (532,285);
}
);
backgroundImage = {
alpha = 80;
imagePath = "images/image-0056.jpg";
locked = 1;
pos = (-9509,-2379);
scale = (14.67,14.67);
};
layerId = m01;
shapes = (
{
closed = 1;
nodes = (
(880,0,ls),
(918,0,o),
(922,23,o),
(920,40,cs),
(916,83,o),
(909,108,o),
(897,145,cs),
(893,157,o),
(882,160,o),
(875,160,cs),
(391,160,ls),
(355,160,o),
(267,164,o),
(236,184,c),
(302,281,l),
(291,290,l),
(125,111,l),
(166,96,o),
(252,90,o),
(293,90,cs),
(805,90,l),
(808,70,l),
(293,70,ls),
(247,70,o),
(149,77,o),
(114,96,c),
(86,62,o),
(40,24,o),
(0,0,c)
);
}
);
width = 940;
},
{
anchors = (
{
name = bottom;
pos = (250,-20);
},
{
name = top;
pos = (362,220);
},
{
name = top.hist;
pos = (402,285);
}
);
associatedMasterId = m01;
attr = {
coordinates = (
0,
-50
);
};
layerId = "523B2D32-CE8B-40CF-9925-7E1083F3F3A1";
name = "{0} 22 Feb 26 at 00:01";
shapes = (
{
closed = 1;
nodes = (
(450,0,ls),
(488,0,o),
(492,23,o),
(490,40,cs),
(486,83,o),
(479,108,o),
(467,145,cs),
(463,157,o),
(452,160,o),
(445,160,cs),
(411,160,ls),
(375,160,o),
(270,164,o),
(236,184,c),
(302,281,l),
(291,290,l),
(126,112,l),
(167,97,o),
(252,92,o),
(293,91,cs),
(375,90,l),
(378,70,l),
(293,70,ls),
(247,70,o),
(149,77,o),
(114,96,c),
(86,62,o),
(40,24,o),
(0,0,c)
);
}
);
width = 510;
},
{
anchors = (
{
name = bottom;
pos = (3032,-20);
},
{
name = top;
pos = (3032,220);
},
{
name = top.hist;
pos = (3032,285);
}
);
associatedMasterId = m01;
attr = {
coordinates = (
100,
-50
);
};
layerId = "DBDBEFCB-B7A6-4ABB-9587-03D2AA9CD792";
name = "{100} 22 Feb 26 at 00:01";
shapes = (
{
closed = 1;
nodes = (
(5940,0,ls),
(5978,0,o),
(5982,23,o),
(5980,40,cs),
(5976,83,o),
(5969,108,o),
(5957,145,cs),
(5953,157,o),
(5942,160,o),
(5935,160,cs),
(391,160,ls),
(355,160,o),
(267,164,o),
(236,184,c),
(302,281,l),
(291,290,l),
(125,111,l),
(166,96,o),
(252,90,o),
(293,90,cs),
(5865,90,l),
(5868,70,l),
(293,70,ls),
(247,70,o),
(149,77,o),
(114,96,c),
(86,62,o),
(40,24,o),
(0,0,c)
);
}
);
width = 6000;
},
{
anchors = (
{
name = bottom;
pos = (250,-20);
},
{
name = top;
pos = (362,220);
},
{
name = top.hist;
pos = (402,285);
}
);
associatedMasterId = m01;
layerId = "1CF62968-A63C-40D2-BEE2-002831AB3E2E";
name = "{0, -100} 17 May 23 at 03:58";
shapes = (
{
closed = 1;
nodes = (
(-23,0,l),
(450,0,ls),
(488,0,o),
(492,23,o),
(490,40,cs),
(486,83,o),
(479,108,o),
(467,145,cs),
(463,157,o),
(452,160,o),
(445,160,cs),
(411,160,ls),
(372,160,o),
(253,165,o),
(230,189,c),
(222,163,l),
(345,345,l),
(340,252,l),
(259,315,l),
(338,341,l),
(113,98,l),
(104,126,l),
(120,100,o),
(241,92,o),
(293,91,cs),
(391,90,l),
(359,145,l),
(371,108,o),
(378,83,o),
(382,40,c),
(397,70,l),
(293,70,ls),
(241,70,o),
(120,79,o),
(104,105,c),
(132,121,l),
(104,71,o),
(6,-6,o),
(-43,-21,c)
);
}
);
width = 510;
},
{
anchors = (
{
name = bottom;
pos = (3032,-20);
},
{
name = top;
pos = (3032,220);
},
{
name = top.hist;
pos = (3032,285);
}
);
associatedMasterId = m01;
layerId = "9D20955F-C25B-4264-B142-35B8B72C809D";
name = "15 May 23 at 00:58";
shapes = (
{
closed = 1;
nodes = (
(-23,0,l),
(5940,0,ls),
(5978,0,o),
(5982,23,o),
(5980,40,cs),
(5976,83,o),
(5969,108,o),
(5957,145,cs),
(5953,157,o),
(5942,160,o),
(5935,160,cs),
(391,160,ls),
(352,160,o),
(253,165,o),
(230,189,c),
(222,163,l),
(345,345,l),
(340,252,l),
(259,315,l),
(338,341,l),
(113,98,l),
(104,125,l),
(120,99,o),
(241,90,o),
(293,90,cs),
(5881,90,l),
(5849,145,l),
(5861,108,o),
(5868,83,o),
(5872,40,c),
(5887,70,l),
(293,70,ls),
(241,70,o),
(120,79,o),
(104,105,c),
(132,121,l),
(104,71,o),
(6,-6,o),
(-43,-21,c)
);
}
);
width = 6000;
},
{
anchors = (
{
name = bottom;
pos = (470,-20);
},
{
name = top;
pos = (532,220);
},
{
name = top.hist;
pos = (532,285);
}
);
associatedMasterId = m01;
backgroundImage = {
alpha = 80;
imagePath = "images/image-0056.jpg";
locked = 1;
pos = (-9509,-2379);
scale = (14.67,14.67);
};
layerId = "FC377DFF-78AF-47F8-888A-07748C9F3FF2";
name = "22 Feb 26 at 00:01";
shapes = (
{
closed = 1;
nodes = (
(-23,0,l),
(880,0,ls),
(918,0,o),
(922,23,o),
(920,40,cs),
(916,83,o),
(909,108,o),
(897,145,cs),
(893,157,o),
(882,160,o),
(875,160,cs),
(391,160,ls),
(352,160,o),
(253,165,o),
(230,189,c),
(222,163,l),
(345,345,l),
(340,252,l),
(259,315,l),
(338,341,l),
(113,98,l),
(104,125,l),
(120,99,o),
(241,90,o),
(293,90,cs),
(821,90,l),
(789,145,l),
(801,108,o),
(808,83,o),
(812,40,c),
(827,70,l),
(293,70,ls),
(241,70,o),
(120,79,o),
(104,105,c),
(132,121,l),
(104,71,o),
(6,-6,o),
(-43,-21,c)
);
}
);
width = 940;
}
);
metricLeft = "=beh-ar.isol";
metricRight = "=beh-ar.isol";
metricWidth = "=beh-ar.isol";
script = arabic;
sortName = arL0018;
sortNameKeep = arL0018;
}
{
category = Mark;
glyphname = "dotabove-ar";
layers = (
{
anchors = (
{
name = _top;
pos = (79,38);
}
);
backgroundImage = {
alpha = 80;
angle = -11.97341;
imagePath = "images/MS-Arabe-350-0000001.png";
locked = 1;
pos = (-655,-506);
scale = (2.1,2.1);
};
layerId = m01;
shapes = (
{
closed = 1;
nodes = (
(48,28,o),
(87,75,o),
(117,115,cs),
(119,118,o),
(118,120,o),
(116,122,cs),
(111,126,ls),
(109,128,o),
(106,128,o),
(104,125,cs),
(63,83,o),
(26,47,o),
(-2,21,cs),
(-5,19,o),
(-4,15,o),
(-1,14,cs),
(19,4,ls),
(21,3,o),
(24,3,o),
(26,5,cs)
);
}
);
width = 110;
},
{
anchors = (
{
name = _top;
pos = (90,50);
}
);
associatedMasterId = m01;
layerId = "1951D83C-027C-46A2-BBE7-A485E6845D98";
name = "1 May 21, 00:30";
shapes = (
{
closed = 1;
nodes = (
(128,152,l),
(112,164,l),
(0,12,l),
(16,0,l)
);
}
);
width = 128;
},
{
anchors = (
{
name = _top;
pos = (79,38);
}
);
associatedMasterId = m01;
layerId = "35FFA398-3489-4430-A27C-01EFA9C459D5";
name = "25 Feb 23 at 15:48";
shapes = (
{
closed = 1;
nodes = (
(52,38,o),
(81,71,o),
(106,100,cs),
(117,113,o),
(101,126,o),
(91,113,cs),
(67,84,o),
(36,52,o),
(6,27,cs),
(-8,14,o),
(4,1,o),
(19,13,cs)
);
}
);
width = 110;
}
);
script = arabic;
sortName = arM1060;
sortNameKeep = arM1060;
subCategory = Nonspacing;
}
{
category = Mark;
glyphname = "dotabove-ar.hist.beh";
layers = (
{
anchors = (
{
name = _top.hist.hist;
pos = (87,38);
}
);
layerId = m01;
shapes = (
{
closed = 1;
nodes = (
(45,14,o),
(113,81,o),
(140,135,c),
(159,89,l),
(84,149,l),
(132,147,l),
(88,83,o),
(34,42,o),
(-15,5,c),
(-29,39,l),
(58,-27,l),
(10,-8,l)
);
}
);
width = 128;
},
{
anchors = (
{
name = _top.hist.hist;
pos = (90,50);
}
);
associatedMasterId = m01;
layerId = "1951D83C-027C-46A2-BBE7-A485E6845D98";
name = "1 May 21, 00:30";
shapes = (
{
closed = 1;
nodes = (
(128,152,l),
(112,164,l),
(0,12,l),
(16,0,l)
);
}
);
width = 128;
},
{
anchors = (
{
name = _top.hist.hist;
pos = (79,38);
}
);
associatedMasterId = m01;
layerId = "35FFA398-3489-4430-A27C-01EFA9C459D5";
name = "25 Feb 23 at 15:48";
shapes = (
{
closed = 1;
nodes = (
(52,38,o),
(81,71,o),
(106,100,cs),
(117,113,o),
(101,126,o),
(91,113,cs),
(67,84,o),
(36,52,o),
(6,27,cs),
(-8,14,o),
(4,1,o),
(19,13,cs)
);
}
);
width = 110;
}
);
metricLeft = "=0";
metricRight = "=0";
production = dotabovear.beh;
script = arabic;
sortName = arM1060.beh;
sortNameKeep = arM1060.beh;
subCategory = Nonspacing;
}
{
category = Mark;
glyphname = "dotabove-ar.hist.noon";
layers = (
{
anchors = (
{
name = _top.hist;
pos = (76,24);
}
);
backgroundImage = {
alpha = 80;
angle = -11.97341;
imagePath = "images/MS-Arabe-350-0000001.png";
locked = 1;
pos = (-658,-506);
scale = (2.1,2.1);
};
layerId = m01;
shapes = (
{
closed = 1;
nodes = (
(-32,38,l),
(43,-36,l),
(6,-26,l),
(38,8,o),
(80,66,o),
(127,145,c),
(118,79,l),
(57,131,l),
(115,146,l),
(78,92,o),
(24,29,o),
(-9,2,c)
);
}
);
width = 114;
},
{
anchors = (
{
name = _top.hist;
pos = (90,50);
}
);
associatedMasterId = m01;
layerId = "1951D83C-027C-46A2-BBE7-A485E6845D98";
name = "1 May 21, 00:30";
shapes = (
{
closed = 1;
nodes = (
(128,152,l),
(112,164,l),
(0,12,l),
(16,0,l)
);
}
);
width = 128;
},
{
anchors = (
{
name = _top.hist;
pos = (79,38);
}
);
associatedMasterId = m01;
layerId = "35FFA398-3489-4430-A27C-01EFA9C459D5";
name = "25 Feb 23 at 15:48";
shapes = (
{
closed = 1;
nodes = (
(52,38,o),
(81,71,o),
(106,100,cs),
(117,113,o),
(101,126,o),
(91,113,cs),
(67,84,o),
(36,52,o),
(6,27,cs),
(-8,14,o),
(4,1,o),
(19,13,cs)
);
}
);
width = 110;
}
);
script = arabic;
sortName = arM1060;
sortNameKeep = arM1060;
subCategory = Nonspacing;
}
{
category = Mark;
glyphname = "dotabove-ar.hist.reh";
layers = (
{
anchors = (
{
name = _top.hist;
pos = (60,57);
}
);
layerId = m01;
shapes = (
{
closed = 1;
nodes = (
(31,45,o),
(86,107,o),
(125,151,c),
(117,92,l),
(58,145,l),
(121,163,l),
(60,105,o),
(8,56,o),
(-32,19,c),
(-46,54,l),
(38,-9,l),
(-1,8,l)
);
}
);
width = 103;
}
);
production = dotabovear.reh;
script = arabic;
sortName = arM1060.reh;
sortNameKeep = arM1060.reh;
subCategory = Nonspacing;
}
{
category = Letter;
color = 9;
glyphname = "feh-ar.fina";
kernLeft = beh;
kernRight = beh;
layers = (
{
anchors = (
{
name = bottom;
pos = (786,-20);
},
{
name = bottom.hist;
pos = (786,-44);
},
{
name = entry;
pos = (940,0);
},
{
name = top;
pos = (785,347);
},
{
name = top.hist;
pos = (707,308);
}
);
backgroundImage = {
alpha = 80;
angle = 0.2;
imagePath = "images/fehDotless-ar.fina.jpg";
locked = 1;
pos = (-252,-224);
scale = (14.67,14.67);
};
layerId = m01;
shapes = (
{
closed = 1;
nodes = (
(-23,0,l),
(670,0,l),
(670,70,l),
(293,70,ls),
(241,70,o),
(120,79,o),
(104,105,c),
(132,121,l),
(104,71,o),
(6,-6,o),
(-43,-21,c)
);
},
{
closed = 1;
nodes = (
(920,0,l),
(920,168,ls),
(920,267,o),
(852,317,o),
(785,317,cs),
(694,317,o),
(651,247,o),
(651,175,cs),
(651,97,o),
(722,37,o),
(799,36,c),
(764,70,l),
(631,70,l),
(631,0,l)
);
},
{
closed = 1;
nodes = (
(960,0,l),
(960,70,l),
(922,70,o),
(920,93,o),
(920,110,c),
(840,110,l),
(840,0,l)
);
},
{
closed = 1;
nodes = (
(774,174,o),
(767,181,o),
(767,189,cs),
(767,197,o),
(774,204,o),
(782,204,cs),
(790,204,o),
(797,197,o),
(797,189,cs),
(797,181,o),
(790,174,o),
(782,174,cs)
);
}
);
width = 940;
},
{
anchors = (
{
name = bottom;
pos = (356,-20);
},
{
name = bottom.hist;
pos = (356,-44);
},
{
name = entry;
pos = (510,0);
},
{
name = top;
pos = (355,347);
},
{
name = top.hist;
pos = (277,308);
}
);
associatedMasterId = m01;
attr = {
coordinates = (
0
);
};
layerId = "FF04A85A-4637-4F86-8F13-07935D0179A3";
name = "17 May 23 at 17:51";
shapes = (
{
closed = 1;
nodes = (
(-23,0,l),
(350,0,l),
(350,70,l),
(293,70,ls),
(241,70,o),
(120,79,o),
(104,105,c),
(132,121,l),
(104,71,o),
(6,-6,o),
(-43,-21,c)
);
},
{
closed = 1;
nodes = (
(490,0,l),
(490,168,ls),
(490,267,o),
(422,317,o),
(355,317,cs),
(264,317,o),
(221,247,o),
(221,175,cs),
(221,97,o),
(292,37,o),
(369,36,c),
(334,70,l),
(201,70,l),
(201,0,l)
);
},
{
closed = 1;
nodes = (
(530,0,l),
(530,70,l),
(492,70,o),
(490,93,o),
(490,110,c),
(410,110,l),
(410,0,l)
);
},
{
closed = 1;
nodes = (
(350,181,o),
(345,186,o),
(345,192,cs),
(345,198,o),
(350,203,o),
(356,203,cs),
(362,203,o),
(367,198,o),
(367,192,cs),
(367,186,o),
(362,181,o),
(356,181,cs)
);
}
);
width = 510;
},
{
anchors = (
{
name = bottom;
pos = (5846,-20);
},
{
name = bottom.hist;
pos = (5846,-44);
},
{
name = entry;
pos = (6000,0);
},
{
name = top;
pos = (5845,347);
},
{
name = top.hist;
pos = (5767,308);
}
);
associatedMasterId = m01;
attr = {
coordinates = (
100
);
};
layerId = "8DA8B023-25F4-4741-AFF4-D0E0186CAD99";
name = "{0, 100} 17 May 23 at 17:50";
shapes = (
{
closed = 1;
nodes = (
(-23,0,l),
(5730,0,l),
(5730,70,l),
(293,70,ls),
(241,70,o),
(120,79,o),
(104,105,c),
(132,121,l),
(104,71,o),
(6,-6,o),
(-43,-21,c)
);
},
{
closed = 1;
nodes = (
(5980,0,l),
(5980,168,ls),
(5980,267,o),
(5912,317,o),
(5845,317,cs),
(5754,317,o),
(5711,247,o),
(5711,175,cs),
(5711,97,o),
(5782,37,o),
(5859,36,c),
(5824,70,l),
(5691,70,l),
(5691,0,l)
);
},
{
closed = 1;
nodes = (
(6020,0,l),
(6020,70,l),
(5982,70,o),
(5980,93,o),
(5980,110,c),
(5900,110,l),
(5900,0,l)
);
},
{
closed = 1;
nodes = (
(5840,181,o),
(5835,186,o),
(5835,192,cs),
(5835,198,o),
(5840,203,o),
(5846,203,cs),
(5852,203,o),
(5857,198,o),
(5857,192,cs),
(5857,186,o),
(5852,181,o),
(5846,181,cs)
);
}
);
width = 6000;
}
);
metricLeft = "=beh-ar.fina";
metricRight = "=beh-ar.fina";
metricWidth = "=beh-ar.fina";
script = arabic;
sortName = arL0040;
sortNameKeep = arL0040;
}
{
category = Letter;
glyphname = "feh-ar.init";
kernRight = dal;
layers = (
{
anchors = (
{
name = bottom;
pos = (176,-18);
},
{
name = bottom.hist;
pos = (326,6);
},
{
name = exit;
},
{
name = top;
pos = (137,385);
},
{
name = top.hist;
pos = (68,332);
}
);
backgroundImage = {
alpha = 80;
angle = 0.1;
imagePath = "images/fehDotless-ar.init.jpg";
locked = 1;
pos = (-1333,-175);
scale = (13.203,13.203);
};
layerId = m01;
shapes = (
{
closed = 1;
nodes = (
(327,127,o),
(265,358,o),
(137,358,cs),
(59,358,o),
(0,264,o),
(0,191,cs),
(0,157,o),
(13,127,o),
(40,111,cs),
(89,81,o),
(210,88,o),
(246,88,c),
(217,138,l),
(228,104,o),
(234,82,o),
(238,43,c),
(251,70,l),
(-20,70,l),
(-20,0,l),
(299,0,ls),
(333,0,o),
(337,28,o),
(335,43,cs)
);
},
{
closed = 1;
nodes = (
(125,202,o),
(118,209,o),
(118,217,cs),
(118,225,o),
(125,232,o),
(133,232,cs),
(141,232,o),
(148,225,o),
(148,217,cs),
(148,209,o),
(141,202,o),
(133,202,cs)
);
}
);
width = 355;
}
);
metricLeft = "=-20@0";
metricRight = "=20";
script = arabic;
sortName = arL0042;
sortNameKeep = arL0042;
}
{
category = Letter;
color = 9;
glyphname = "feh-ar.isol";
kernLeft = beh;
kernRight = dal;
layers = (
{
anchors = (
{
name = bottom;
pos = (761,-18);
},
{
name = bottom.hist;
pos = (911,6);
},
{
name = top;
pos = (722,385);
},
{
name = top.hist;
pos = (653,332);
}
);
layerId = m01;
shapes = (
{
closed = 1;
nodes = (
(884,0,ls),
(918,0,o),
(922,28,o),
(920,43,cs),
(912,127,o),
(850,358,o),
(722,358,cs),
(644,358,o),
(585,264,o),
(585,191,cs),
(585,157,o),
(598,127,o),
(625,111,cs),
(669,84,o),
(768,87,o),
(816,88,c),
(820,70,l),
(293,70,ls),
(247,70,o),
(149,77,o),
(114,96,c),
(86,62,o),
(40,24,o),
(0,0,c)
);
},
{
closed = 1;
nodes = (
(710,202,o),
(703,209,o),
(703,217,cs),
(703,225,o),
(710,232,o),
(718,232,cs),
(726,232,o),
(733,225,o),
(733,217,cs),
(733,209,o),
(726,202,o),
(718,202,cs)
);
}
);
width = 940;
},
{
anchors = (
{
name = bottom;
pos = (331,-18);
},
{
name = bottom.hist;
pos = (481,6);
},
{
name = top;
pos = (292,385);
},
{
name = top.hist;
pos = (223,332);
}
);
associatedMasterId = m01;
attr = {
coordinates = (
0
);
};
layerId = "54EADB78-A817-442E-848C-CA145BB808FF";
name = "{0} 22 Feb 26 at 00:23";
shapes = (
{
closed = 1;
nodes = (
(454,0,ls),
(488,0,o),
(492,28,o),
(490,43,cs),
(482,127,o),
(420,358,o),
(292,358,cs),
(214,358,o),
(155,264,o),
(155,191,cs),
(155,157,o),
(168,127,o),
(195,111,cs),
(239,84,o),
(338,87,o),
(386,88,c),
(390,70,l),
(293,70,ls),
(247,70,o),
(149,77,o),
(114,96,c),
(86,62,o),
(40,24,o),
(0,0,c)
);
},
{
closed = 1;
nodes = (
(286,206,o),
(281,211,o),
(281,217,cs),
(281,223,o),
(286,228,o),
(292,228,cs),
(298,228,o),
(303,223,o),
(303,217,cs),
(303,211,o),
(298,206,o),
(292,206,cs)
);
}
);
width = 510;
},
{
anchors = (
{
name = bottom;
pos = (5821,-18);
},
{
name = bottom.hist;
pos = (5971,6);
},
{
name = top;
pos = (5782,385);
},
{
name = top.hist;
pos = (5713,332);
}
);
associatedMasterId = m01;
attr = {
coordinates = (
100
);
};
layerId = "83E4FDA3-30BC-4C02-A584-0FA225B6A24B";
name = "{100} 22 Feb 26 at 00:23";
shapes = (
{
closed = 1;
nodes = (
(5944,0,ls),
(5978,0,o),
(5982,28,o),
(5980,43,cs),
(5972,127,o),
(5910,358,o),
(5782,358,cs),
(5704,358,o),
(5645,264,o),
(5645,191,cs),
(5645,157,o),
(5658,127,o),
(5685,111,cs),
(5729,84,o),
(5828,87,o),
(5876,88,c),
(5880,70,l),
(293,70,ls),
(247,70,o),
(149,77,o),
(114,96,c),
(86,62,o),
(40,24,o),
(0,0,c)
);
},
{
closed = 1;
nodes = (
(5776,206,o),
(5771,211,o),
(5771,217,cs),
(5771,223,o),
(5776,228,o),
(5782,228,cs),
(5788,228,o),
(5793,223,o),
(5793,217,cs),
(5793,211,o),
(5788,206,o),
(5782,206,cs)
);
}
);
width = 6000;
},
{
anchors = (
{
name = bottom;
pos = (331,-18);
},
{
name = bottom.hist;
pos = (481,6);
},
{
name = top;
pos = (292,385);
},
{
name = top.hist;
pos = (223,332);
}
);
associatedMasterId = m01;
layerId = "32CE617B-9BC0-4F91-998B-D8877494DCA0";
name = "17 May 23 at 17:31";
shapes = (
{
closed = 1;
nodes = (
(-23,0,l),
(340,0,l),
(340,70,l),
(293,70,ls),
(241,70,o),
(120,79,o),
(104,105,c),
(132,121,l),
(104,71,o),
(6,-6,o),
(-43,-21,c)
);
},
{
closed = 1;
nodes = (
(482,127,o),
(420,358,o),
(292,358,cs),
(214,358,o),
(155,264,o),
(155,191,cs),
(155,157,o),
(168,127,o),
(195,111,cs),
(244,81,o),
(365,88,o),
(401,88,c),
(372,138,l),
(383,104,o),
(389,82,o),
(393,43,c),
(406,70,l),
(135,70,l),
(135,0,l),
(454,0,ls),
(488,0,o),
(492,28,o),
(490,43,cs)
);
},
{
closed = 1;
nodes = (
(286,206,o),
(281,211,o),
(281,217,cs),
(281,223,o),
(286,228,o),
(292,228,cs),
(298,228,o),
(303,223,o),
(303,217,cs),
(303,211,o),
(298,206,o),
(292,206,cs)
);
}
);
width = 510;
},
{
anchors = (
{
name = bottom;
pos = (5821,-18);
},
{
name = bottom.hist;
pos = (5971,6);
},
{
name = top;
pos = (5782,385);
},
{
name = top.hist;
pos = (5713,332);
}
);
associatedMasterId = m01;
layerId = "CD47D3D8-91E7-4A64-A046-25B89C87F1C6";
name = "17 May 23 at 17:31";
shapes = (
{
closed = 1;
nodes = (
(-23,0,l),
(5730,0,l),
(5730,70,l),
(293,70,ls),
(241,70,o),
(120,79,o),
(104,105,c),
(132,121,l),
(104,71,o),
(6,-6,o),
(-43,-21,c)
);
},
{
closed = 1;
nodes = (
(5972,127,o),
(5910,358,o),
(5782,358,cs),
(5704,358,o),
(5645,264,o),
(5645,191,cs),
(5645,157,o),
(5658,127,o),
(5685,111,cs),
(5734,81,o),
(5855,88,o),
(5891,88,c),
(5862,138,l),
(5873,104,o),
(5879,82,o),
(5883,43,c),
(5896,70,l),
(5625,70,l),
(5625,0,l),
(5944,0,ls),
(5978,0,o),
(5982,28,o),
(5980,43,cs)
);
},
{
closed = 1;
nodes = (
(5776,206,o),
(5771,211,o),
(5771,217,cs),
(5771,223,o),
(5776,228,o),
(5782,228,cs),
(5788,228,o),
(5793,223,o),
(5793,217,cs),
(5793,211,o),
(5788,206,o),
(5782,206,cs)
);
}
);
width = 6000;
},
{
anchors = (
{
name = bottom;
pos = (761,-18);
},
{
name = bottom.hist;
pos = (911,6);
},
{
name = top;
pos = (722,385);
},
{
name = top.hist;
pos = (653,332);
}
);
associatedMasterId = m01;
layerId = "66D0B30D-41E7-4407-AE08-0A35071634CF";
name = "22 Feb 26 at 00:23";
shapes = (
{
closed = 1;
nodes = (
(-23,0,l),
(670,0,l),
(670,70,l),
(293,70,ls),
(241,70,o),
(120,79,o),
(104,105,c),
(132,121,l),
(104,71,o),
(6,-6,o),
(-43,-21,c)
);
},
{
closed = 1;
nodes = (
(912,127,o),
(850,358,o),
(722,358,cs),
(644,358,o),
(585,264,o),
(585,191,cs),
(585,157,o),
(598,127,o),
(625,111,cs),
(674,81,o),
(795,88,o),
(831,88,c),
(802,138,l),
(813,104,o),
(819,82,o),
(823,43,c),
(836,70,l),
(565,70,l),
(565,0,l),
(884,0,ls),
(918,0,o),
(922,28,o),
(920,43,cs)
);
},
{
closed = 1;
nodes = (
(710,202,o),
(703,209,o),
(703,217,cs),
(703,225,o),
(710,232,o),
(718,232,cs),
(726,232,o),
(733,225,o),
(733,217,cs),
(733,209,o),
(726,202,o),
(718,202,cs)
);
}
);
width = 940;
}
);
metricLeft = "=beh-ar.isol";
metricRight = "=beh-ar.isol";
metricWidth = "=beh-ar.isol";
script = arabic;
sortName = arL0039;
sortNameKeep = arL0039;
}
{
category = Letter;
color = 9;
glyphname = "fehDotless-ar.fina";
kernRight = beh;
layers = (
{
backgroundImage = {
alpha = 80;
angle = 0.2;
imagePath = "images/fehDotless-ar.fina.jpg";
locked = 1;
pos = (-252,-224);
scale = (14.67,14.67);
};
layerId = m01;
shapes = (
{
closed = 1;
nodes = (
(-23,0,l),
(670,0,l),
(670,70,l),
(293,70,ls),
(241,70,o),
(120,79,o),
(104,105,c),
(132,121,l),
(104,71,o),
(6,-6,o),
(-43,-21,c)
);
},
{
pos = (651,0);
ref = "fehDotless-ar.medi";
}
);
width = 940;
},
{
associatedMasterId = m01;
attr = {
coordinates = (
100
);
};
layerId = "8DA8B023-25F4-4741-AFF4-D0E0186CAD99";
name = "{0, 100} 17 May 23 at 17:50";
shapes = (
{
closed = 1;
nodes = (
(-23,0,l),
(5730,0,l),
(5730,70,l),
(293,70,ls),
(241,70,o),
(120,79,o),
(104,105,c),
(132,121,l),
(104,71,o),
(6,-6,o),
(-43,-21,c)
);
},
{
pos = (5711,0);
ref = "fehDotless-ar.medi";
}
);
width = 6000;
},
{
associatedMasterId = m01;
attr = {
coordinates = (
0
);
};
layerId = "FF04A85A-4637-4F86-8F13-07935D0179A3";
name = "17 May 23 at 17:51";
shapes = (
{
closed = 1;
nodes = (
(-23,0,l),
(350,0,l),
(350,70,l),
(293,70,ls),
(241,70,o),
(120,79,o),
(104,105,c),
(132,121,l),
(104,71,o),
(6,-6,o),
(-43,-21,c)
);
},
{
pos = (221,0);
ref = "fehDotless-ar.medi";
}
);
width = 510;
}
);
metricLeft = "=behDotless-ar.fina";
metricRight = "=behDotless-ar.fina";
metricWidth = "=behDotless-ar.fina";
script = arabic;
sortName = arL0040;
sortNameKeep = arL0040;
}
{
category = Letter;
glyphname = "fehDotless-ar.init";
kernRight = dal;
layers = (
{
anchors = (
{
name = bottom.hist;
pos = (362,7);
},
{
name = exit;
},
{
name = top.hist;
pos = (75,361);
}
);
backgroundImage = {
alpha = 80;
angle = 0.1;
imagePath = "images/fehDotless-ar.init.jpg";
locked = 1;
pos = (-1333,-175);
scale = (14.67,14.67);
};
layerId = m01;
shapes = (
{
closed = 1;
nodes = (
(363,133,o),
(294,390,o),
(152,390,cs),
(66,390,o),
(0,285,o),
(0,204,cs),
(0,167,o),
(14,133,o),
(44,115,cs),
(99,82,o),
(233,90,o),
(273,90,c),
(241,145,l),
(253,108,o),
(260,83,o),
(264,40,c),
(279,70,l),
(-20,70,l),
(-20,0,l),
(332,0,ls),
(370,0,o),
(374,23,o),
(372,40,cs)
);
},
{
closed = 1;
nodes = (
(146,222,o),
(141,227,o),
(141,233,cs),
(141,239,o),
(146,244,o),
(152,244,cs),
(158,244,o),
(163,239,o),
(163,233,cs),
(163,227,o),
(158,222,o),
(152,222,cs)
);
}
);
width = 392;
},
{
associatedMasterId = m01;
backgroundImage = {
alpha = 80;
angle = 0.1;
imagePath = "images/fehDotless-ar.init.jpg";
locked = 1;
pos = (-1379,-175);
scale = (14.67,14.67);
};
layerId = "71AD453E-8813-4266-8DA0-1D16992F2BE2";
name = "29 Sep 25 at 00:16";
shapes = (
{
closed = 1;
nodes = (
(-571,0,l),
(332,0,ls),
(370,0,o),
(372,23,o),
(372,40,cs),
(365,145,o),
(301,262,o),
(240,321,c),
(313,361,l),
(261,244,o),
(220,203,o),
(129,143,c),
(105,192,l),
(198,152,o),
(256,102,o),
(266,64,c),
(283,70,l),
(-255,70,ls),
(-307,70,o),
(-428,79,o),
(-444,105,c),
(-418,121,l),
(-446,71,o),
(-542,-6,o),
(-591,-21,c)
);
}
);
width = 392;
}
);
metricLeft = "=-20@0";
metricRight = "=20";
script = arabic;
sortName = arL0042;
sortNameKeep = arL0042;
}
{
category = Letter;
glyphname = "fehDotless-ar.medi";
kernRight = beh;
layers = (
{
anchors = (
{
name = bottom;
pos = (135,-20);
},
{
name = bottom.hist;
pos = (135,-44);
},
{
name = entry;
pos = (289,0);
},
{
name = exit;
},
{
name = top;
pos = (134,347);
},
{
name = top.hist;
pos = (56,308);
}
);
backgroundImage = {
alpha = 80;
angle = 1.7;
imagePath = "images/fehDotless-ar.medi.jpg";
locked = 1;
pos = (-1534,-684);
scale = (14.67,14.67);
};
layerId = m01;
shapes = (
{
closed = 1;
nodes = (
(269,0,l),
(269,168,ls),
(269,267,o),
(201,317,o),
(134,317,cs),
(43,317,o),
(0,247,o),
(0,175,cs),
(0,97,o),
(71,37,o),
(148,36,c),
(113,70,l),
(-20,70,l),
(-20,0,l)
);
},
{
pos = (169,0);
ref = _c.beh;
},
{
closed = 1;
nodes = (
(123,174,o),
(116,181,o),
(116,189,cs),
(116,197,o),
(123,204,o),
(131,204,cs),
(139,204,o),
(146,197,o),
(146,189,cs),
(146,181,o),
(139,174,o),
(131,174,cs)
);
}
);
width = 289;
}
);
metricLeft = "=0@175";
metricRight = "=behDotless-ar.medi";
script = arabic;
sortName = arL0041;
sortNameKeep = arL0041;
}
{
glyphname = "fourFarsi-ar.locl";
kernLeft = "one-ar";
layers = (
{
layerId = m01;
shapes = (
{
closed = 1;
nodes = (
(253,22,l),
(220,92,o),
(120,319,o),
(120,408,cs),
(120,456,o),
(145,480,o),
(180,480,cs),
(210,480,o),
(240,443,o),
(240,360,c),
(288,324,l),
(420,498,l),
(372,534,l),
(293,428,l),
(277,499,o),
(234,540,o),
(180,540,cs),
(114,540,o),
(60,491,o),
(60,408,cs),
(60,306,o),
(158,84,o),
(197,0,c)
);
}
);
width = 480;
},
{
associatedMasterId = m01;
layerId = "F3E9B518-EA84-48B5-8A08-1073CDD72847";
name = "22 Feb 26 at 00:40";
shapes = (
{
closed = 1;
nodes = (
(253,22,l),
(220,92,o),
(120,319,o),
(120,408,cs),
(120,456,o),
(145,480,o),
(180,480,cs),
(210,480,o),
(240,443,o),
(240,360,c),
(288,324,l),
(420,498,l),
(372,534,l),
(268,394,l),
(300,378,l),
(295,480,o),
(245,540,o),
(180,540,cs),
(114,540,o),
(60,491,o),
(60,408,cs),
(60,306,o),
(158,84,o),
(197,0,c)
);
}
);
width = 480;
}
);
metricLeft = "=two-ar";
metricRight = "=fourFarsi-ar";
sortName = ar3140;
sortNameKeep = ar3168.urdu;
}
{
category = Mark;
glyphname = "gafsarkashabove-ar";
layers = (
{
anchors = (
{
name = _gaf;
pos = (108,315);
}
);
layerId = m01;
shapes = (
{
closed = 1;
nodes = (
(190,406,l),
(176,416,l),
(0,234,l),
(19,219,l)
);
}
);
width = 190;
}
);
script = arabic;
sortName = arM1085;
sortNameKeep = arM1085;
subCategory = Nonspacing;
}
{
category = Letter;
color = 7;
glyphname = "hah-ar.fina.hist";
kernLeft = hah.hist;
kernRight = hah;
layers = (
{
anchors = (
{
name = bottom.hist;
pos = (581,-38);
},
{
name = entry;
pos = (351,90);
},
{
name = top.hist;
pos = (234,175);
}
);
layerId = m01;
shapes = (
{
closed = 1;
nodes = (
(195,-124,o),
(507,-66,o),
(580,-16,c),
(581,-20,l),
(220,-20,ls),
(126,-20,o),
(72,16,o),
(63,79,c),
(26,21,l),
(89,57,l),
(108,18,o),
(154,0,o),
(225,0,cs),
(754,0,l),
(735,-7,l),
(760,12,o),
(797,52,o),
(859,81,c),
(896,68,l),
(775,64,o),
(736,67,o),
(640,70,cs),
(415,78,o),
(331,171,o),
(257,233,c),
(286,242,l),
(252,192,o),
(214,153,o),
(174,116,c),
(174,151,l),
(211,114,o),
(262,80,o),
(308,56,c),
(298,73,l),
(234,73,o),
(218,75,o),
(183,118,cs),
(159,151,o),
(137,163,o),
(100,158,cs),
(56,153,o),
(0,99,o),
(0,30,cs),
(0,-31,o),
(28,-66,o),
(83,-85,cs)
);
}
);
width = 851;
}
);
metricLeft = "=hah-ar.hist";
metricRight = "=hah-ar.hist";
metricWidth = "=hah-ar.hist";
script = arabic;
sortName = arL0015.xhist;
sortNameKeep = arL0015.alt;
}
{
category = Letter;
color = 7;
glyphname = "hah-ar.hist";
kernRight = hah;
layers = (
{
anchors = (
{
name = bottom;
pos = (581,-38);
},
{
name = top;
pos = (234,175);
}
);
backgroundImage = {
alpha = 80;
imagePath = "images/hah-ar.1.jpg";
locked = 1;
pos = (-409,-299);
scale = (14.67,14.67);
};
layerId = m01;
shapes = (
{
closed = 1;
nodes = (
(195,-124,o),
(507,-66,o),
(580,-16,c),
(581,-20,l),
(220,-20,ls),
(126,-20,o),
(72,16,o),
(63,79,c),
(26,21,l),
(89,57,l),
(108,18,o),
(154,0,o),
(225,0,cs),
(754,0,l),
(735,-7,l),
(760,12,o),
(797,52,o),
(859,81,c),
(896,68,l),
(775,64,o),
(736,67,o),
(640,70,cs),
(415,78,o),
(331,171,o),
(257,233,c),
(286,242,l),
(252,192,o),
(214,153,o),
(174,116,c),
(174,151,l),
(211,114,o),
(262,80,o),
(308,56,c),
(298,73,l),
(234,73,o),
(218,75,o),
(183,118,cs),
(159,151,o),
(137,163,o),
(100,158,cs),
(56,153,o),
(0,99,o),
(0,30,cs),
(0,-31,o),
(28,-66,o),
(83,-85,cs)
);
}
);
width = 851;
},
{
anchors = (
{
name = bottom;
pos = (892,-50);
},
{
name = top;
pos = (360,290);
}
);
associatedMasterId = m01;
backgroundImage = {
alpha = 80;
imagePath = "images/hah-ar.1.jpg";
locked = 1;
pos = (-400,-299);
scale = (14.67,14.67);
};
layerId = "267ADC0A-2207-4F63-B57B-79457B80DB41";
name = "29 Sep 25 at 00:39";
shapes = (
{
closed = 1;
nodes = (
(320,-94,o),
(375,-89,o),
(471,-78,cs),
(535,-71,o),
(588,-41,o),
(618,-26,cs),
(621,-24,o),
(620,-21,o),
(616,-21,cs),
(459,-22,o),
(326,-27,o),
(225,-20,cs),
(168,-16,o),
(110,3,o),
(96,56,cs),
(93,65,o),
(107,68,o),
(110,60,cs),
(126,4,o),
(192,-8,o),
(283,-12,cs),
(341,-14,o),
(625,-12,o),
(792,-5,cs),
(807,-5,o),
(828,-2,o),
(842,7,cs),
(861,19,o),
(889,36,o),
(914,47,cs),
(917,48,o),
(917,51,o),
(913,51,cs),
(822,49,o),
(779,51,o),
(695,54,cs),
(485,61,o),
(360,156,o),
(289,217,cs),
(287,219,o),
(285,219,o),
(284,217,cs),
(261,187,o),
(237,161,o),
(212,137,cs),
(210,135,o),
(210,133,o),
(212,132,cs),
(246,103,o),
(287,77,o),
(325,57,c),
(309,76,l),
(298,74,o),
(287,74,o),
(276,76,cs),
(240,83,o),
(208,112,o),
(177,143,cs),
(157,161,o),
(125,163,o),
(96,152,cs),
(26,124,o),
(-20,35,o),
(9,-28,cs),
(33,-82,o),
(83,-97,o),
(210,-96,cs)
);
}
);
width = 847;
}
);
metricLeft = "=ain-ar.hist";
metricRight = "=ain-ar.hist";
metricWidth = "=ain-ar.hist";
script = arabic;
sortName = arL0014;
sortNameKeep = arL0014;
}
{
category = Letter;
glyphname = "hah-ar.init";
kernLeft = hah;
kernRight = hah;
layers = (
{
anchors = (
{
name = bottom;
pos = (91,-20);
},
{
name = exit;
},
{
name = top;
pos = (226,230);
}
);
layerId = m01;
shapes = (
{
closed = 1;
nodes = (
(405,0,l),
(424,16,o),
(449,40,o),
(484,62,c),
(336,63,o),
(189,88,o),
(54,215,c),
(34,188,o),
(13,165,o),
(-10,143,c),
(19,116,o),
(55,90,o),
(90,70,c),
(-20,70,l),
(-20,0,l)
);
}
);
width = 504;
},
{
anchors = (
{
name = top;
pos = (245,230);
}
);
associatedMasterId = m01;
layerId = "6D5AB749-6AA8-4A62-8FCC-3F12A222E1D4";
name = "2 Nov 25 at 00:46";
shapes = (
{
closed = 1;
nodes = (
(251,-78,o),
(288,-38,o),
(350,-9,c),
(374,-20,l),
(97,-20,ls),
(91,-20,o),
(87,-16,o),
(87,-10,cs),
(87,-4,o),
(91,0,o),
(97,0,cs),
(595,0,l),
(416,-7,l),
(441,12,o),
(478,52,o),
(540,81,c),
(707,68,l),
(457,61,o),
(264,29,o),
(55,233,c),
(94,242,l),
(60,192,o),
(22,153,o),
(-18,116,c),
(2,151,l),
(39,114,o),
(90,80,o),
(136,56,c),
(136,70,l),
(91,70,ls),
(47,70,o),
(11,34,o),
(11,-10,cs),
(11,-54,o),
(47,-90,o),
(91,-90,cs),
(259,-90,l),
(226,-97,l)
);
}
);
visible = 1;
width = 525;
},
{
anchors = (
{
name = bottom;
pos = (250,-20);
},
{
name = exit;
},
{
name = top;
pos = (245,230);
}
);
associatedMasterId = m01;
layerId = "58A93AA5-9014-4142-9F8F-A7CDB42CC143";
name = "22 Feb 26 at 00:01";
shapes = (
{
closed = 1;
nodes = (
(564,0,l),
(415,-7,l),
(440,12,o),
(477,52,o),
(539,81,c),
(706,68,l),
(489,61,o),
(263,29,o),
(64,224,c),
(93,242,l),
(59,192,o),
(21,153,o),
(-19,116,c),
(1,151,l),
(38,114,o),
(89,80,o),
(135,56,c),
(125,70,l),
(-20,70,l),
(-20,0,l)
);
}
);
width = 523;
}
);
metricLeft = "=-20";
metricRight = "=hah-ar.isol";
script = arabic;
sortName = arL0017;
sortNameKeep = arL0017;
}
{
category = Letter;
glyphname = "hah-ar.isol";
kernLeft = hah;
kernRight = hah;
layers = (
{
anchors = (
{
name = bottom;
pos = (177,-16);
},
{
name = top;
pos = (235,230);
}
);
layerId = m01;
shapes = (
{
closed = 1;
nodes = (
(160,-183,o),
(88,-132,o),
(88,-69,cs),
(88,-12,o),
(144,0,o),
(188,0,cs),
(415,0,l),
(434,16,o),
(459,40,o),
(495,62,c),
(342,62,o),
(206,85,o),
(64,215,c),
(44,188,o),
(23,165,o),
(0,143,c),
(31,114,o),
(67,89,o),
(104,68,c),
(51,57,o),
(0,7,o),
(0,-60,cs),
(0,-202,o),
(179,-232,o),
(287,-175,c)
);
}
);
width = 515;
},
{
anchors = (
{
name = bottom;
pos = (160,-100);
},
{
name = top;
pos = (132,325);
}
);
associatedMasterId = m01;
layerId = "561A1AE6-9BBD-43CA-8614-ADFFC3657DA7";
name = "2 Nov 25 at 00:30";
shapes = (
{
closed = 1;
nodes = (
(240,-78,o),
(277,-38,o),
(339,-9,c),
(363,-20,l),
(86,-20,ls),
(80,-20,o),
(76,-16,o),
(76,-10,cs),
(76,-4,o),
(80,0,o),
(86,0,cs),
(584,0,l),
(355,-7,l),
(380,12,o),
(417,52,o),
(479,81,c),
(673,74,l),
(539,67,o),
(385,44,o),
(254,76,cs),
(108,112,o),
(47,249,o),
(205,307,c),
(11,285,o),
(-16,91,o),
(147,32,c),
(125,70,l),
(80,70,ls),
(36,70,o),
(0,34,o),
(0,-10,cs),
(0,-54,o),
(36,-90,o),
(80,-90,cs),
(248,-90,l),
(215,-97,l)
);
}
);
width = 508;
},
{
anchors = (
{
name = bottom;
pos = (160,-100);
},
{
name = top;
pos = (132,325);
}
);
associatedMasterId = m01;
layerId = "539FAB03-1BEF-4840-BAB7-5CA0E5A58538";
name = "2 Nov 25 at 00:32";
shapes = (
{
alignment = -1;
pos = (-38,0);
ref = "hah-ar.init";
}
);
width = 457;
},
{
anchors = (
{
name = bottom;
pos = (200,-100);
},
{
name = top;
pos = (274,230);
}
);
associatedMasterId = m01;
layerId = "F9398594-10FF-44F3-A5F0-53260C0D784E";
name = "3 Nov 25 at 09:24";
shapes = (
{
closed = 1;
nodes = (
(280,-78,o),
(317,-38,o),
(379,-9,c),
(403,-20,l),
(86,-20,ls),
(80,-20,o),
(76,-16,o),
(76,-10,cs),
(76,-4,o),
(80,0,o),
(86,0,cs),
(624,0,l),
(445,-7,l),
(470,12,o),
(507,52,o),
(569,81,c),
(736,68,l),
(486,61,o),
(293,29,o),
(84,233,c),
(123,242,l),
(89,192,o),
(51,153,o),
(11,116,c),
(31,151,l),
(68,114,o),
(119,80,o),
(165,56,c),
(165,70,l),
(80,70,ls),
(36,70,o),
(0,34,o),
(0,-10,cs),
(0,-54,o),
(36,-90,o),
(80,-90,cs),
(288,-90,l),
(255,-97,l)
);
}
);
width = 554;
},
{
anchors = (
{
name = bottom;
pos = (177,-16);
},
{
name = top;
pos = (235,230);
}
);
associatedMasterId = m01;
layerId = "3437ACA4-8AA4-4F21-AF77-4CE26B071617";
name = "22 Feb 26 at 00:00";
shapes = (
{
closed = 1;
nodes = (
(179,-232,o),
(287,-175,c),
(160,-183,o),
(88,-132,o),
(88,-69,cs),
(88,-12,o),
(144,0,o),
(188,0,cs),
(585,0,l),
(406,-7,l),
(431,12,o),
(468,52,o),
(530,81,c),
(697,68,l),
(447,61,o),
(254,29,o),
(45,233,c),
(84,242,l),
(50,192,o),
(12,153,o),
(-28,116,c),
(-8,151,l),
(29,114,o),
(80,80,o),
(126,56,c),
(126,70,l),
(66,70,o),
(0,16,o),
(0,-60,cs),
(0,-202,o)
);
}
);
width = 515;
}
);
metricLeft = "=0";
metricRight = "=20@62";
script = arabic;
sortName = arL0014;
sortNameKeep = arL0014;
}
{
category = Letter;
glyphname = "hah-ar.isol.salt2";
kernLeft = hah;
kernRight = hah;
layers = (
{
anchors = (
{
name = bottom;
pos = (184,-90);
},
{
name = top;
pos = (234,230);
}
);
layerId = m01;
shapes = (
{
closed = 1;
nodes = (
(304,-385,o),
(395,-313,o),
(479,-228,c),
(414,-268,o),
(324,-293,o),
(243,-293,cs),
(150,-293,o),
(44,-258,o),
(44,-163,cs),
(44,-113,o),
(74,-55,o),
(117,0,c),
(355,0,l),
(386,23,o),
(426,49,o),
(468,70,c),
(239,71,o),
(146,157,o),
(73,221,c),
(53,194,o),
(31,170,o),
(9,148,c),
(45,113,o),
(91,82,o),
(134,59,c),
(48,-25,o),
(0,-130,o),
(0,-218,cs),
(0,-312,o),
(56,-385,o),
(176,-385,cs)
);
}
);
width = 488;
}
);
metricLeft = "=0";
metricRight = "=20@70";
script = arabic;
sortName = arL0014.salt2;
sortNameKeep = arL0014;
}
{
category = Letter;
glyphname = "hah-ar.medi";
kernLeft = hah;
kernRight = hah;
layers = (
{
anchors = (
{
name = bottom;
pos = (110,-20);
},
{
name = bottom.hist;
pos = (388,-38);
},
{
name = entry;
pos = (160,90);
},
{
name = exit;
},
{
name = top;
pos = (40,230);
},
{
name = top.hist;
pos = (41,175);
}
);
backgroundImage = {
alpha = 80;
angle = 1.74003;
imagePath = "images/CBL-MS-1407-000005.png";
locked = 1;
pos = (-5244,-2491);
scale = (3.4,3.4);
};
layerId = m01;
shapes = (
{
closed = 1;
nodes = (
(564,0,l),
(545,-7,l),
(570,12,o),
(607,52,o),
(669,81,c),
(706,68,l),
(585,64,o),
(543,67,o),
(447,70,cs),
(222,78,o),
(138,171,o),
(64,233,c),
(93,242,l),
(59,192,o),
(21,153,o),
(-19,116,c),
(-19,151,l),
(18,114,o),
(69,80,o),
(115,56,c),
(105,70,l),
(-20,70,l),
(-20,0,l)
);
}
);
width = 661;
}
);
metricLeft = "=hah-ar.init";
metricRight = "=hah-ar.init";
metricWidth = "=hah-ar.init";
script = arabic;
sortName = arL0016;
sortNameKeep = arL0016;
}
{
category = Letter;
glyphname = "hah-ar.salt2";
kernLeft = hah;
kernRight = hah;
layers = (
{
anchors = (
{
name = bottom;
pos = (184,-90);
},
{
name = top;
pos = (234,230);
}
);
layerId = m01;
shapes = (
{
closed = 1;
nodes = (
(306,-385,o),
(397,-311,o),
(482,-224,c),
(481,-226,l),
(416,-267,o),
(325,-293,o),
(243,-293,cs),
(150,-293,o),
(44,-258,o),
(44,-163,cs),
(44,-96,o),
(98,-15,o),
(166,56,c),
(155,79,l),
(57,-7,o),
(0,-123,o),
(0,-218,cs),
(0,-312,o),
(56,-385,o),
(176,-385,cs)
);
},
{
closed = 1;
nodes = (
(337,-13,o),
(408,44,o),
(483,77,c),
(492,70,l),
(229,65,o),
(138,167,o),
(59,233,c),
(88,242,l),
(54,192,o),
(16,153,o),
(-24,116,c),
(6,151,l),
(50,107,o),
(113,68,o),
(165,44,c),
(161,96,l),
(90,0,l),
(399,0,l),
(308,-37,l)
);
}
);
width = 488;
}
);
metricLeft = "=0";
metricRight = "=20@70";
script = arabic;
sortName = arL0014.salt2;
sortNameKeep = arL0014;
}
{
category = Letter;
glyphname = "heh-ar.fina";
kernLeft = heh;
kernRight = beh;
layers = (
{
anchors = (
{
name = bottom;
pos = (145,-20);
},
{
name = entry;
pos = (290,0);
},
{
name = top;
pos = (145,420);
},
{
name = top.hist;
pos = (242,423);
}
);
backgroundImage = {
alpha = 80;
angle = 0.1;
imagePath = "images/heh-ar.fina.jpg";
locked = 1;
pos = (-45,-188);
scale = (14.67,14.67);
};
layerId = m01;
shapes = (
{
closed = 1;
nodes = (
(268,1,o),
(270,23,o),
(270,40,cs),
(270,482,l),
(301,503,l),
(286,454,o),
(209,388,o),
(159,360,c),
(165,374,l),
(192,352,o),
(190,280,o),
(190,220,c),
(226,306,l),
(124,301,o),
(0,230,o),
(0,119,cs),
(0,-4,o),
(154,-2,o),
(230,0,cs)
);
},
{
closed = 1;
nodes = (
(158,144,o),
(151,151,o),
(151,159,cs),
(151,167,o),
(158,174,o),
(166,174,cs),
(174,174,o),
(181,167,o),
(181,159,cs),
(181,151,o),
(174,144,o),
(166,144,cs)
);
},
{
closed = 1;
nodes = (
(310,0,l),
(310,70,l),
(272,70,o),
(270,93,o),
(270,110,c),
(190,110,l),
(190,0,l)
);
}
);
width = 290;
}
);
metricLeft = "=0";
metricRight = "=behDotless-ar.medi";
script = arabic;
sortName = arL0065;
sortNameKeep = arL0065;
}
{
category = Letter;
glyphname = "heh-ar.init.round";
kernRight = beh.init;
layers = (
{
anchors = (
{
name = exit;
}
);
backgroundImage = {
alpha = 80;
angle = -0.8;
imagePath = "images/seen-ar.init.jpg";
locked = 1;
pos = (-974,-185);
scale = (14.67,14.67);
};
layerId = m01;
shapes = (
{
closed = 1;
nodes = (
(268,1,o),
(270,23,o),
(270,40,cs),
(270,482,l),
(301,503,l),
(286,454,o),
(209,388,o),
(159,360,c),
(165,374,l),
(192,352,o),
(190,280,o),
(190,220,c),
(226,326,l),
(124,321,o),
(0,250,o),
(0,139,cs),
(0,-4,o),
(154,-2,o),
(230,0,cs)
);
},
{
closed = 1;
nodes = (
(164,90,o),
(159,95,o),
(159,101,cs),
(159,107,o),
(164,112,o),
(170,112,cs),
(176,112,o),
(181,107,o),
(181,101,cs),
(181,95,o),
(176,90,o),
(170,90,cs)
);
},
{
closed = 1;
nodes = (
(164,194,o),
(159,199,o),
(159,205,cs),
(159,211,o),
(164,216,o),
(170,216,cs),
(176,216,o),
(181,211,o),
(181,205,cs),
(181,199,o),
(176,194,o),
(170,194,cs)
);
}
);
width = 290;
}
);
metricLeft = "=heh-ar";
metricRight = "=heh-ar";
production = hehar.init.round;
script = arabic;
sortName = arL0067.round;
sortNameKeep = arL0067.round;
}
{
category = Letter;
glyphname = "heh-ar.isol";
kernLeft = heh;
kernRight = beh.init;
layers = (
{
anchors = (
{
name = bottom;
pos = (145,-20);
},
{
name = top;
pos = (145,420);
},
{
name = top.hist;
pos = (242,423);
}
);
backgroundImage = {
alpha = 80;
imagePath = "images/heh-ar.jpg";
pos = (-144,-213);
scale = (14.67,14.67);
};
layerId = m01;
shapes = (
{
closed = 1;
nodes = (
(268,1,o),
(270,23,o),
(270,40,cs),
(270,452,l),
(243,419,o),
(203,387,o),
(171,367,c),
(182,353,o),
(187,328,o),
(189,301,c),
(96,283,o),
(0,217,o),
(0,119,cs),
(0,-4,o),
(154,-2,o),
(230,0,cs)
);
},
{
closed = 1;
nodes = (
(158,144,o),
(151,151,o),
(151,159,cs),
(151,167,o),
(158,174,o),
(166,174,cs),
(174,174,o),
(181,167,o),
(181,159,cs),
(181,151,o),
(174,144,o),
(166,144,cs)
);
}
);
width = 290;
},
{
anchors = (
{
name = bottom;
pos = (145,-20);
},
{
name = top;
pos = (145,420);
},
{
name = top.hist;
pos = (242,423);
}
);
associatedMasterId = m01;
backgroundImage = {
alpha = 80;
imagePath = "images/heh-ar.jpg";
pos = (-144,-213);
scale = (14.67,14.67);
};
layerId = "F4750BCF-A877-4A98-B1E7-A78E928CA527";
name = "22 Feb 26 at 00:37";
shapes = (
{
closed = 1;
nodes = (
(268,1,o),
(270,23,o),
(270,40,cs),
(270,482,l),
(301,503,l),
(286,454,o),
(209,388,o),
(159,360,c),
(165,374,l),
(192,352,o),
(190,280,o),
(190,220,c),
(226,306,l),
(124,301,o),
(0,230,o),
(0,119,cs),
(0,-4,o),
(154,-2,o),
(230,0,cs)
);
},
{
closed = 1;
nodes = (
(158,144,o),
(151,151,o),
(151,159,cs),
(151,167,o),
(158,174,o),
(166,174,cs),
(174,174,o),
(181,167,o),
(181,159,cs),
(181,151,o),
(174,144,o),
(166,144,cs)
);
}
);
width = 290;
}
);
metricLeft = "=0";
metricRight = "=beh-ar.init";
script = arabic;
sortName = arL0063;
sortNameKeep = arL0063;
}
{
category = Letter;
glyphname = "heh-ar.medi";
kernLeft = heh;
kernRight = beh;
layers = (
{
anchors = (
{
name = entry;
pos = (290,0);
},
{
name = exit;
},
{
name = top;
pos = (145,420);
}
);
layerId = m01;
shapes = (
{
closed = 1;
nodes = (
(245,-10,o),
(256,-5,o),
(261,0,c),
(310,0,l),
(310,70,l),
(272,70,o),
(270,93,o),
(270,110,cs),
(270,442,l),
(243,409,o),
(203,377,o),
(171,357,c),
(179,347,o),
(184,331,o),
(187,311,c),
(94,292,o),
(0,226,o),
(0,129,cs),
(0,106,o),
(4,86,o),
(11,70,c),
(-20,70,l),
(-20,0,l),
(103,0,l),
(148,-12,o),
(195,-11,o),
(230,-10,cs)
);
},
{
closed = 1;
nodes = (
(158,76,o),
(151,83,o),
(151,91,cs),
(151,99,o),
(158,106,o),
(166,106,cs),
(174,106,o),
(181,99,o),
(181,91,cs),
(181,83,o),
(174,76,o),
(166,76,cs)
);
},
{
closed = 1;
nodes = (
(158,180,o),
(151,187,o),
(151,195,cs),
(151,203,o),
(158,210,o),
(166,210,cs),
(174,210,o),
(181,203,o),
(181,195,cs),
(181,187,o),
(174,180,o),
(166,180,cs)
);
}
);
width = 290;
},
{
anchors = (
{
name = entry;
pos = (290,0);
},
{
name = exit;
},
{
name = top;
pos = (145,420);
}
);
associatedMasterId = m01;
layerId = "5B20164A-72EB-4F96-AEF1-D2DE5CB241D2";
name = "22 Feb 26 at 00:37";
shapes = (
{
closed = 1;
nodes = (
(268,-9,o),
(270,13,o),
(270,30,cs),
(270,472,l),
(301,493,l),
(286,444,o),
(209,378,o),
(159,350,c),
(165,364,l),
(192,342,o),
(190,270,o),
(190,210,c),
(226,316,l),
(124,311,o),
(0,240,o),
(0,129,cs),
(0,-14,o),
(154,-12,o),
(230,-10,cs)
);
},
{
closed = 1;
nodes = (
(158,180,o),
(151,187,o),
(151,195,cs),
(151,203,o),
(158,210,o),
(166,210,cs),
(174,210,o),
(181,203,o),
(181,195,cs),
(181,187,o),
(174,180,o),
(166,180,cs)
);
},
{
closed = 1;
nodes = (
(158,76,o),
(151,83,o),
(151,91,cs),
(151,99,o),
(158,106,o),
(166,106,cs),
(174,106,o),
(181,99,o),
(181,91,cs),
(181,83,o),
(174,76,o),
(166,76,cs)
);
},
{
closed = 1;
nodes = (
(310,0,l),
(310,70,l),
(272,70,o),
(270,93,o),
(270,110,c),
(190,110,l),
(190,0,l)
);
},
{
closed = 1;
nodes = (
(220,0,l),
(220,70,l),
(-20,70,l),
(-20,0,l)
);
}
);
width = 290;
}
);
metricLeft = "=heh-ar.init";
metricRight = "=heh-ar.fina";
script = arabic;
sortName = arL0066;
sortNameKeep = arL0066;
}
{
category = Letter;
color = 9;
glyphname = "kaf-ar.fina";
kernLeft = beh;
kernRight = dal;
layers = (
{
anchors = (
{
name = bottom;
pos = (470,-20);
},
{
name = entry;
pos = (940,0);
},
{
name = gaf;
pos = (289,315);
},
{
name = top;
pos = (532,220);
}
);
layerId = m01;
shapes = (
{
closed = 1;
nodes = (
(-23,0,l),
(880,0,ls),
(918,0,o),
(922,23,o),
(920,40,cs),
(916,83,o),
(909,108,o),
(897,145,cs),
(893,157,o),
(882,160,o),
(875,160,cs),
(391,160,ls),
(352,160,o),
(253,165,o),
(230,189,c),
(446,436,ls),
(463,456,o),
(458,478,o),
(445,503,cs),
(380,644,l),
(314,573,l),
(386,422,ls),
(391,412,o),
(391,399,o),
(381,388,cs),
(113,98,l),
(104,125,l),
(120,99,o),
(241,90,o),
(293,90,cs),
(821,90,l),
(789,145,l),
(801,108,o),
(808,83,o),
(812,40,c),
(827,70,l),
(293,70,ls),
(241,70,o),
(120,79,o),
(104,105,c),
(132,121,l),
(104,71,o),
(6,-6,o),
(-43,-21,c)
);
},
{
closed = 1;
nodes = (
(960,0,l),
(960,70,l),
(923,70,o),
(915,88,o),
(911,98,c),
(878,98,l),
(878,0,l)
);
}
);
width = 940;
},
{
anchors = (
{
name = bottom;
pos = (250,-20);
},
{
name = entry;
pos = (510,0);
},
{
name = gaf;
pos = (299,315);
},
{
name = top;
pos = (362,220);
}
);
associatedMasterId = m01;
attr = {
coordinates = (
0
);
};
layerId = "FE820BC1-EB00-4A0D-9792-2680AE048399";
name = "17 May 23 at 05:15";
shapes = (
{
closed = 1;
nodes = (
(-23,0,l),
(450,0,ls),
(488,0,o),
(492,23,o),
(490,40,cs),
(486,83,o),
(479,108,o),
(467,145,cs),
(463,157,o),
(452,160,o),
(445,160,cs),
(411,160,ls),
(372,160,o),
(253,165,o),
(230,189,c),
(446,436,ls),
(463,456,o),
(458,478,o),
(445,503,cs),
(380,644,l),
(314,573,l),
(386,422,ls),
(391,412,o),
(391,399,o),
(381,388,cs),
(113,98,l),
(104,125,l),
(120,99,o),
(241,90,o),
(293,90,cs),
(391,90,l),
(359,145,l),
(371,108,o),
(378,83,o),
(382,40,c),
(397,70,l),
(293,70,ls),
(241,70,o),
(120,79,o),
(104,105,c),
(132,121,l),
(104,71,o),
(6,-6,o),
(-43,-21,c)
);
},
{
closed = 1;
nodes = (
(530,0,l),
(530,70,l),
(493,70,o),
(485,88,o),
(481,98,c),
(448,98,l),
(448,0,l)
);
}
);
width = 510;
},
{
anchors = (
{
name = bottom;
pos = (3032,-20);
},
{
name = entry;
pos = (6000,0);
},
{
name = gaf;
pos = (299,315);
},
{
name = top;
pos = (3032,220);
}
);
associatedMasterId = m01;
attr = {
coordinates = (
100
);
};
layerId = "0BD1BE9B-54C3-449E-BE31-FDCBF2D30B5F";
name = "17 May 23 at 02:07";
shapes = (
{
closed = 1;
nodes = (
(-23,0,l),
(5940,0,ls),
(5978,0,o),
(5982,23,o),
(5980,40,cs),
(5976,83,o),
(5969,108,o),
(5957,145,cs),
(5953,157,o),
(5942,160,o),
(5935,160,cs),
(391,160,ls),
(352,160,o),
(253,165,o),
(230,189,c),
(446,436,ls),
(463,456,o),
(458,478,o),
(445,503,cs),
(380,644,l),
(314,573,l),
(386,422,ls),
(391,412,o),
(391,399,o),
(381,388,cs),
(113,98,l),
(104,125,l),
(120,99,o),
(241,90,o),
(293,90,cs),
(5881,90,l),
(5849,145,l),
(5861,108,o),
(5868,83,o),
(5872,40,c),
(5887,70,l),
(293,70,ls),
(241,70,o),
(120,79,o),
(104,105,c),
(132,121,l),
(104,71,o),
(6,-6,o),
(-43,-21,c)
);
},
{
closed = 1;
nodes = (
(6020,0,l),
(6020,70,l),
(5983,70,o),
(5975,88,o),
(5971,98,c),
(5938,98,l),
(5938,0,l)
);
}
);
width = 6000;
}
);
metricLeft = "=kaf-ar";
metricRight = "=dal-ar.fina";
metricWidth = "=kaf-ar";
script = arabic;
sortName = arL0047;
sortNameKeep = arL0047;
}
{
category = Letter;
color = 7;
glyphname = "kaf-ar.fina.hist";
kernLeft = beh;
kernRight = dal;
layers = (
{
anchors = (
{
name = bottom;
pos = (470,-20);
},
{
name = entry;
pos = (940,0);
},
{
name = top;
pos = (532,220);
}
);
layerId = m01;
shapes = (
{
closed = 1;
nodes = (
(960,0,l),
(960,70,l),
(923,70,o),
(914,88,o),
(911,98,cs),
(906,114,o),
(903,127,o),
(897,145,cs),
(893,157,o),
(882,160,o),
(875,160,cs),
(391,160,ls),
(331,160,o),
(230,159,o),
(230,187,cs),
(230,769,l),
(204,731,o),
(167,690,o),
(136,666,c),
(151,628,o),
(150,536,o),
(150,492,cs),
(150,129,ls),
(150,114,o),
(152,90,o),
(262,90,cs),
(805,90,l),
(808,70,l),
(293,70,ls),
(247,70,o),
(149,77,o),
(114,96,c),
(86,62,o),
(40,24,o),
(0,0,c)
);
}
);
width = 940;
},
{
anchors = (
{
name = bottom;
pos = (250,-20);
},
{
name = entry;
pos = (510,0);
},
{
name = top;
pos = (362,220);
}
);
associatedMasterId = m01;
attr = {
coordinates = (
0,
-50
);
};
layerId = "AF99F83A-5F6A-4418-A5FF-A31F9803F9EB";
name = "{0} 22 Feb 26 at 00:30";
shapes = (
{
closed = 1;
nodes = (
(530,0,l),
(530,70,l),
(493,70,o),
(484,88,o),
(481,98,cs),
(476,114,o),
(473,127,o),
(467,145,cs),
(463,157,o),
(452,160,o),
(445,160,cs),
(391,160,ls),
(331,160,o),
(230,159,o),
(230,187,cs),
(230,907,l),
(204,869,o),
(167,828,o),
(136,804,c),
(151,766,o),
(150,674,o),
(150,630,cs),
(150,129,ls),
(150,114,o),
(152,90,o),
(262,90,cs),
(375,90,l),
(378,70,l),
(293,70,ls),
(247,70,o),
(149,77,o),
(114,96,c),
(86,62,o),
(40,24,o),
(0,0,c)
);
}
);
width = 510;
},
{
anchors = (
{
name = bottom;
pos = (3032,-20);
},
{
name = entry;
pos = (6000,0);
},
{
name = top;
pos = (3032,220);
}
);
associatedMasterId = m01;
attr = {
coordinates = (
100,
-50
);
};
layerId = "5B76EDCE-7E82-409F-A5CB-1625A64AA37C";
name = "{100} 22 Feb 26 at 00:30";
shapes = (
{
closed = 1;
nodes = (
(6020,0,l),
(6020,70,l),
(5983,70,o),
(5974,88,o),
(5971,98,cs),
(5966,114,o),
(5963,127,o),
(5957,145,cs),
(5953,157,o),
(5942,160,o),
(5935,160,cs),
(391,160,ls),
(331,160,o),
(230,159,o),
(230,187,cs),
(230,907,l),
(204,869,o),
(167,828,o),
(136,804,c),
(151,766,o),
(150,674,o),
(150,630,cs),
(150,129,ls),
(150,114,o),
(152,90,o),
(262,90,cs),
(5865,90,l),
(5868,70,l),
(293,70,ls),
(247,70,o),
(149,77,o),
(114,96,c),
(86,62,o),
(40,24,o),
(0,0,c)
);
}
);
width = 6000;
},
{
anchors = (
{
name = bottom;
pos = (250,-20);
},
{
name = entry;
pos = (510,0);
},
{
name = top;
pos = (362,220);
}
);
associatedMasterId = m01;
layerId = "FE820BC1-EB00-4A0D-9792-2680AE048399";
name = "17 May 23 at 05:15";
shapes = (
{
closed = 1;
nodes = (
(-23,0,l),
(450,0,ls),
(488,0,o),
(492,23,o),
(490,40,cs),
(486,83,o),
(479,108,o),
(467,145,cs),
(463,157,o),
(452,160,o),
(445,160,cs),
(391,160,ls),
(331,160,o),
(230,159,o),
(230,187,cs),
(230,946,l),
(261,966,l),
(246,917,o),
(169,821,o),
(119,793,c),
(125,819,l),
(151,803,o),
(150,682,o),
(150,630,cs),
(150,129,ls),
(150,114,o),
(152,90,o),
(262,90,cs),
(391,90,l),
(359,145,l),
(371,108,o),
(378,83,o),
(382,40,c),
(397,70,l),
(293,70,ls),
(241,70,o),
(120,79,o),
(104,105,c),
(132,121,l),
(104,71,o),
(6,-6,o),
(-43,-21,c)
);
},
{
closed = 1;
nodes = (
(530,0,l),
(530,70,l),
(493,70,o),
(485,88,o),
(481,98,c),
(448,98,l),
(448,0,l)
);
}
);
width = 510;
},
{
anchors = (
{
name = bottom;
pos = (3032,-20);
},
{
name = entry;
pos = (6000,0);
},
{
name = top;
pos = (3032,220);
}
);
associatedMasterId = m01;
layerId = "0BD1BE9B-54C3-449E-BE31-FDCBF2D30B5F";
name = "17 May 23 at 02:07";
shapes = (
{
closed = 1;
nodes = (
(-23,0,l),
(5940,0,ls),
(5978,0,o),
(5982,23,o),
(5980,40,cs),
(5976,83,o),
(5969,108,o),
(5957,145,cs),
(5953,157,o),
(5942,160,o),
(5935,160,cs),
(391,160,ls),
(331,160,o),
(230,159,o),
(230,187,cs),
(230,946,l),
(261,966,l),
(246,917,o),
(169,821,o),
(119,793,c),
(125,819,l),
(151,803,o),
(150,682,o),
(150,630,cs),
(150,129,ls),
(150,114,o),
(152,90,o),
(262,90,cs),
(5881,90,l),
(5849,145,l),
(5861,108,o),
(5868,83,o),
(5872,40,c),
(5887,70,l),
(293,70,ls),
(241,70,o),
(120,79,o),
(104,105,c),
(132,121,l),
(104,71,o),
(6,-6,o),
(-43,-21,c)
);
},
{
closed = 1;
nodes = (
(6020,0,l),
(6020,70,l),
(5983,70,o),
(5975,88,o),
(5971,98,c),
(5938,98,l),
(5938,0,l)
);
}
);
width = 6000;
},
{
anchors = (
{
name = bottom;
pos = (470,-20);
},
{
name = entry;
pos = (940,0);
},
{
name = top;
pos = (532,220);
}
);
associatedMasterId = m01;
layerId = "6E62AE6A-966B-4F29-967A-C1B2C3DCF184";
name = "22 Feb 26 at 00:30";
shapes = (
{
closed = 1;
nodes = (
(-23,0,l),
(880,0,ls),
(918,0,o),
(922,23,o),
(920,40,cs),
(916,83,o),
(909,108,o),
(897,145,cs),
(893,157,o),
(882,160,o),
(875,160,cs),
(391,160,ls),
(331,160,o),
(230,159,o),
(230,187,cs),
(230,808,l),
(261,828,l),
(246,779,o),
(169,683,o),
(119,655,c),
(125,681,l),
(151,665,o),
(150,544,o),
(150,492,cs),
(150,129,ls),
(150,114,o),
(152,90,o),
(262,90,cs),
(821,90,l),
(789,145,l),
(801,108,o),
(808,83,o),
(812,40,c),
(827,70,l),
(293,70,ls),
(241,70,o),
(120,79,o),
(104,105,c),
(132,121,l),
(104,71,o),
(6,-6,o),
(-43,-21,c)
);
},
{
closed = 1;
nodes = (
(960,0,l),
(960,70,l),
(923,70,o),
(915,88,o),
(911,98,c),
(878,98,l),
(878,0,l)
);
}
);
width = 940;
}
);
metricLeft = "=kaf-ar.isol";
metricRight = "=dal-ar.fina";
metricWidth = "=kaf-ar.isol";
script = arabic;
sortName = arL0047.xhist;
sortNameKeep = arL0047;
}
{
category = Letter;
color = 7;
glyphname = "kaf-ar.hist";
kernRight = dal;
layers = (
{
anchors = (
{
name = damma;
pos = (-65,70);
},
{
name = fatha;
pos = (526,248);
},
{
name = kasra;
pos = (469,-60);
}
);
backgroundImage = {
alpha = 80;
imagePath = "images/kaf-ar.jpg";
pos = (-130,-148);
scale = (13.45,13.45);
};
layerId = m01;
shapes = (
{
closed = 1;
nodes = (
(-23,0,l),
(880,0,ls),
(918,0,o),
(922,23,o),
(920,40,cs),
(916,83,o),
(909,108,o),
(897,145,cs),
(893,157,o),
(882,160,o),
(875,160,cs),
(391,160,ls),
(331,160,o),
(230,159,o),
(230,187,cs),
(230,946,l),
(261,966,l),
(246,917,o),
(169,821,o),
(119,793,c),
(125,819,l),
(151,803,o),
(150,682,o),
(150,630,cs),
(150,129,ls),
(150,114,o),
(152,90,o),
(262,90,cs),
(821,90,l),
(789,145,l),
(801,108,o),
(808,83,o),
(812,40,c),
(827,70,l),
(293,70,ls),
(241,70,o),
(120,79,o),
(104,105,c),
(132,121,l),
(104,71,o),
(6,-6,o),
(-43,-21,c)
);
}
);
width = 940;
},
{
anchors = (
{
name = damma;
pos = (-65,70);
},
{
name = fatha;
pos = (2969,248);
},
{
name = kasra;
pos = (2969,-60);
}
);
associatedMasterId = m01;
attr = {
coordinates = (
100
);
};
layerId = "74D6E443-AAA2-4E7E-A54D-56928A737A53";
name = "17 May 23 at 02:07";
shapes = (
{
closed = 1;
nodes = (
(-23,0,l),
(5940,0,ls),
(5978,0,o),
(5982,23,o),
(5980,40,cs),
(5976,83,o),
(5969,108,o),
(5957,145,cs),
(5953,157,o),
(5942,160,o),
(5935,160,cs),
(391,160,ls),
(331,160,o),
(230,159,o),
(230,187,cs),
(230,946,l),
(261,966,l),
(246,917,o),
(169,821,o),
(119,793,c),
(125,819,l),
(151,803,o),
(150,682,o),
(150,630,cs),
(150,129,ls),
(150,114,o),
(152,90,o),
(262,90,cs),
(5881,90,l),
(5849,145,l),
(5861,108,o),
(5868,83,o),
(5872,40,c),
(5887,70,l),
(293,70,ls),
(241,70,o),
(120,79,o),
(104,105,c),
(132,121,l),
(104,71,o),
(6,-6,o),
(-43,-21,c)
);
}
);
width = 6000;
},
{
anchors = (
{
name = damma;
pos = (-65,70);
},
{
name = fatha;
pos = (356,248);
},
{
name = kasra;
pos = (249,-80);
}
);
associatedMasterId = m01;
attr = {
coordinates = (
0
);
};
layerId = "0D282A75-1740-4E75-802F-0DDF4FEE7E15";
name = "{0, 0} 27 Sep 25 at 12:58";
shapes = (
{
closed = 1;
nodes = (
(-23,0,l),
(450,0,ls),
(488,0,o),
(492,23,o),
(490,40,cs),
(486,83,o),
(479,108,o),
(467,145,cs),
(463,157,o),
(452,160,o),
(445,160,cs),
(391,160,ls),
(331,160,o),
(230,159,o),
(230,187,cs),
(230,946,l),
(261,966,l),
(246,917,o),
(169,821,o),
(119,793,c),
(125,819,l),
(151,803,o),
(150,682,o),
(150,630,cs),
(150,129,ls),
(150,114,o),
(152,90,o),
(262,90,cs),
(391,90,l),
(359,145,l),
(371,108,o),
(378,83,o),
(382,40,c),
(397,70,l),
(293,70,ls),
(241,70,o),
(120,79,o),
(104,105,c),
(132,121,l),
(104,71,o),
(6,-6,o),
(-43,-21,c)
);
}
);
width = 510;
}
);
metricLeft = "=dal-ar";
metricRight = "=dal-ar";
script = arabic;
sortName = arL0046;
sortNameKeep = arL0046;
}
{
category = Letter;
color = 9;
glyphname = "kaf-ar.init.alt";
kernLeft = kaf;
kernRight = dal;
layers = (
{
anchors = (
{
name = damma;
pos = (23,175);
},
{
name = exit;
},
{
name = fatha;
pos = (573,314);
},
{
name = gaf;
pos = (131,292);
},
{
name = kasra;
pos = (851,-53);
}
);
backgroundImage = {
alpha = 80;
angle = -0.3;
imagePath = "images/kaf-ar.init.jpg";
pos = (-168,-349);
scale = (14.67,14.67);
};
layerId = m01;
shapes = (
{
closed = 1;
nodes = (
(364,2,o),
(547,0,o),
(967,0,cs),
(990,0,o),
(1009,6,o),
(1006,31,cs),
(1002,69,o),
(984,140,o),
(951,198,cs),
(948,204,o),
(940,208,o),
(933,208,cs),
(524,201,o),
(378,204,o),
(216,216,cs),
(190,218,o),
(140,228,o),
(159,252,cs),
(192,301,o),
(228,352,o),
(260,401,cs),
(270,416,o),
(258,427,o),
(246,410,cs),
(169,314,o),
(102,236,o),
(24,137,cs),
(20,131,o),
(23,127,o),
(31,127,cs),
(278,113,o),
(644,110,o),
(841,118,c),
(844,117,o),
(845,110,o),
(847,106,c),
(460,95,o),
(334,102,o),
(-10,110,c),
(-10,0,l)
);
}
);
width = 1006;
},
{
anchors = (
{
name = damma;
pos = (23,175);
},
{
name = exit;
},
{
name = fatha;
pos = (573,314);
},
{
name = gaf;
pos = (131,292);
},
{
name = kasra;
pos = (5845,-53);
}
);
associatedMasterId = m01;
attr = {
coordinates = (
100
);
};
layerId = "F7B304CE-F14F-4C45-8F42-E525D4807B96";
name = "17 May 23 at 02:07";
shapes = (
{
closed = 1;
nodes = (
(2764,7,o),
(2941,7,o),
(5961,0,cs),
(5984,0,o),
(6003,6,o),
(6000,31,cs),
(5996,69,o),
(5978,140,o),
(5945,198,cs),
(5942,204,o),
(5934,208,o),
(5927,208,cs),
(2918,191,o),
(2778,191,o),
(216,216,cs),
(190,216,o),
(140,228,o),
(159,252,cs),
(192,301,o),
(228,352,o),
(260,401,cs),
(270,416,o),
(258,427,o),
(246,410,cs),
(169,314,o),
(102,236,o),
(24,137,cs),
(20,131,o),
(23,127,o),
(31,127,cs),
(278,113,o),
(3038,120,o),
(5835,118,c),
(5838,117,o),
(5839,110,o),
(5841,106,c),
(2854,91,o),
(2734,91,o),
(-10,110,c),
(-10,0,l)
);
}
);
width = 6000;
},
{
anchors = (
{
name = damma;
pos = (23,175);
},
{
name = exit;
},
{
name = fatha;
pos = (284,281);
},
{
name = gaf;
pos = (131,292);
},
{
name = kasra;
pos = (246,-53);
}
);
associatedMasterId = m01;
attr = {
coordinates = (
0
);
};
layerId = "B0B8F656-AA24-40E2-8C38-6EE158BEAEDB";
name = "{0, 0} 27 Sep 25 at 13:23";
shapes = (
{
closed = 1;
nodes = (
(64,0,o),
(142,0,o),
(362,0,cs),
(385,0,o),
(404,6,o),
(401,31,cs),
(397,69,o),
(379,140,o),
(346,198,cs),
(343,204,o),
(335,209,o),
(328,208,cs),
(275,204,o),
(226,205,o),
(195,205,cs),
(169,205,o),
(123,207,o),
(142,231,cs),
(175,280,o),
(228,352,o),
(260,401,cs),
(270,416,o),
(258,427,o),
(246,410,cs),
(169,314,o),
(98,232,o),
(20,133,cs),
(16,127,o),
(19,124,o),
(27,123,cs),
(107,117,o),
(189,115,o),
(236,118,c),
(239,117,o),
(240,110,o),
(242,106,c),
(167,104,o),
(34,110,o),
(-10,110,c),
(-10,0,l)
);
}
);
width = 401;
}
);
metricLeft = "=-10";
metricRight = "=0";
script = arabic;
sortName = arL0049.alt;
sortNameKeep = arL0049;
}
{
category = Letter;
color = 9;
glyphname = "kaf-ar.init";
kernLeft = kaf;
kernRight = dal;
layers = (
{
anchors = (
{
name = bottom;
pos = (345,-20);
},
{
name = exit;
},
{
name = gaf;
pos = (164,315);
},
{
name = top;
pos = (407,220);
}
);
backgroundImage = {
alpha = 80;
imagePath = "images/MS-Arabe-350-0000003.png";
pos = (-1077,-920);
scale = (2.5,2.5);
};
layerId = m01;
shapes = (
{
closed = 1;
nodes = (
(755,0,ls),
(793,0,o),
(797,23,o),
(795,40,cs),
(791,83,o),
(784,108,o),
(772,145,cs),
(768,157,o),
(757,160,o),
(750,160,cs),
(266,160,ls),
(227,160,o),
(128,165,o),
(105,189,c),
(321,436,ls),
(338,456,o),
(333,478,o),
(320,503,cs),
(255,644,l),
(189,573,l),
(261,422,ls),
(266,412,o),
(266,399,o),
(256,388,cs),
(0,111,l),
(41,96,o),
(127,90,o),
(168,90,cs),
(680,90,l),
(683,70,l),
(-20,70,l),
(-20,0,l)
);
}
);
width = 815;
},
{
anchors = (
{
name = bottom;
pos = (124,-20);
},
{
name = exit;
},
{
name = gaf;
pos = (164,315);
},
{
name = top;
pos = (236,220);
}
);
associatedMasterId = m01;
attr = {
coordinates = (
0,
-50
);
};
layerId = "79FAE3D6-9BE6-456E-BC43-B866344D2279";
name = "{0} 22 Feb 26 at 00:31";
shapes = (
{
closed = 1;
nodes = (
(324,0,ls),
(362,0,o),
(366,23,o),
(364,40,cs),
(360,83,o),
(353,108,o),
(341,145,cs),
(337,157,o),
(326,160,o),
(319,160,cs),
(285,160,ls),
(246,160,o),
(127,165,o),
(104,189,c),
(320,436,ls),
(337,456,o),
(332,478,o),
(319,503,cs),
(254,644,l),
(188,573,l),
(260,422,ls),
(265,412,o),
(265,399,o),
(255,388,cs),
(0,112,l),
(41,97,o),
(126,92,o),
(167,91,cs),
(249,90,l),
(252,70,l),
(-20,70,l),
(-20,0,l)
);
}
);
width = 384;
},
{
anchors = (
{
name = bottom;
pos = (2906,-20);
},
{
name = exit;
},
{
name = gaf;
pos = (164,315);
},
{
name = top;
pos = (2906,220);
}
);
associatedMasterId = m01;
attr = {
coordinates = (
100,
-50
);
};
backgroundImage = {
alpha = 80;
imagePath = "images/MS-Arabe-350-0000003.png";
pos = (-1082,-920);
scale = (2.5,2.5);
};
layerId = "D0AB9541-FBEF-40A1-A873-4DB61BFB0938";
name = "{100} 22 Feb 26 at 00:31";
shapes = (
{
closed = 1;
nodes = (
(5814,0,ls),
(5852,0,o),
(5856,23,o),
(5854,40,cs),
(5850,83,o),
(5843,108,o),
(5831,145,cs),
(5827,157,o),
(5816,160,o),
(5809,160,cs),
(265,160,ls),
(226,160,o),
(127,165,o),
(104,189,c),
(320,436,ls),
(337,456,o),
(332,478,o),
(319,503,cs),
(254,644,l),
(188,573,l),
(260,422,ls),
(265,412,o),
(265,399,o),
(255,388,cs),
(0,112,l),
(41,97,o),
(126,91,o),
(167,91,cs),
(5739,90,l),
(5742,70,l),
(-20,70,l),
(-20,0,l)
);
}
);
width = 5874;
},
{
anchors = (
{
name = bottom;
pos = (124,-20);
},
{
name = exit;
},
{
name = gaf;
pos = (164,315);
},
{
name = top;
pos = (236,220);
}
);
associatedMasterId = m01;
layerId = "602B23C6-C93C-4353-A108-CCF0EA74D0B1";
name = "{0, 0} 27 Sep 25 at 13:54";
shapes = (
{
closed = 1;
nodes = (
(324,0,ls),
(362,0,o),
(366,23,o),
(364,40,cs),
(360,83,o),
(353,108,o),
(341,145,cs),
(337,157,o),
(326,160,o),
(319,160,cs),
(285,160,ls),
(246,160,o),
(127,165,o),
(104,189,c),
(320,436,ls),
(337,456,o),
(332,478,o),
(319,503,cs),
(254,644,l),
(188,573,l),
(260,422,ls),
(265,412,o),
(265,399,o),
(255,388,cs),
(-13,98,l),
(-22,126,l),
(-6,100,o),
(115,92,o),
(167,91,cs),
(265,90,l),
(233,145,l),
(245,108,o),
(252,83,o),
(256,40,c),
(271,70,l),
(-20,70,l),
(-20,0,l)
);
}
);
width = 384;
},
{
anchors = (
{
name = bottom;
pos = (2906,-20);
},
{
name = exit;
},
{
name = gaf;
pos = (164,315);
},
{
name = top;
pos = (2906,220);
}
);
associatedMasterId = m01;
backgroundImage = {
alpha = 80;
imagePath = "images/MS-Arabe-350-0000003.png";
pos = (-1082,-920);
scale = (2.5,2.5);
};
layerId = "257FD885-0504-49F8-8406-A1FC5AE13C98";
name = "{0, 100} 27 Sep 25 at 13:51";
shapes = (
{
closed = 1;
nodes = (
(5814,0,ls),
(5852,0,o),
(5856,23,o),
(5854,40,cs),
(5850,83,o),
(5843,108,o),
(5831,145,cs),
(5827,157,o),
(5816,160,o),
(5809,160,cs),
(265,160,ls),
(226,160,o),
(127,165,o),
(104,189,c),
(320,436,ls),
(337,456,o),
(332,478,o),
(319,503,cs),
(254,644,l),
(188,573,l),
(260,422,ls),
(265,412,o),
(265,399,o),
(255,388,cs),
(-13,98,l),
(-22,126,l),
(-6,100,o),
(115,91,o),
(167,91,cs),
(5755,90,l),
(5723,145,l),
(5735,108,o),
(5742,83,o),
(5746,40,c),
(5761,70,l),
(-20,70,l),
(-20,0,l)
);
}
);
width = 5874;
},
{
anchors = (
{
name = bottom;
pos = (345,-20);
},
{
name = exit;
},
{
name = gaf;
pos = (164,315);
},
{
name = top;
pos = (407,220);
}
);
associatedMasterId = m01;
backgroundImage = {
alpha = 80;
imagePath = "images/MS-Arabe-350-0000003.png";
pos = (-1077,-920);
scale = (2.5,2.5);
};
layerId = "28A8B19A-219D-41B9-8CC1-6869CC7FD73D";
name = "22 Feb 26 at 00:31";
shapes = (
{
closed = 1;
nodes = (
(755,0,ls),
(793,0,o),
(797,23,o),
(795,40,cs),
(791,83,o),
(784,108,o),
(772,145,cs),
(768,157,o),
(757,160,o),
(750,160,cs),
(266,160,ls),
(227,160,o),
(128,165,o),
(105,189,c),
(321,436,ls),
(338,456,o),
(333,478,o),
(320,503,cs),
(255,644,l),
(189,573,l),
(261,422,ls),
(266,412,o),
(266,399,o),
(256,388,cs),
(-12,98,l),
(-21,125,l),
(-5,99,o),
(116,90,o),
(168,90,cs),
(696,90,l),
(664,145,l),
(676,108,o),
(683,83,o),
(687,40,c),
(702,70,l),
(-20,70,l),
(-20,0,l)
);
}
);
width = 815;
}
);
metricLeft = "=-20";
metricRight = "=kaf-ar.isol";
script = arabic;
sortName = arL0049;
sortNameKeep = arL0049;
}
{
category = Letter;
color = 7;
glyphname = "kaf-ar.init.hist";
kernLeft = kaf;
kernRight = dal;
layers = (
{
anchors = (
{
name = bottom;
pos = (345,-20);
},
{
name = exit;
},
{
name = top;
pos = (407,220);
}
);
backgroundImage = {
alpha = 80;
imagePath = "images/MS-Arabe-350-0000003.png";
pos = (-1077,-920);
scale = (2.5,2.5);
};
layerId = m01;
shapes = (
{
closed = 1;
nodes = (
(755,0,ls),
(793,0,o),
(797,23,o),
(795,40,cs),
(791,83,o),
(784,108,o),
(772,145,cs),
(768,157,o),
(757,160,o),
(750,160,cs),
(266,160,ls),
(227,160,o),
(128,165,o),
(105,189,c),
(97,163,l),
(220,345,l),
(215,252,l),
(134,315,l),
(213,341,l),
(-12,98,l),
(-21,125,l),
(-5,99,o),
(116,90,o),
(168,90,cs),
(696,90,l),
(664,145,l),
(676,108,o),
(683,83,o),
(687,40,c),
(702,70,l),
(-20,70,l),
(-20,0,l)
);
}
);
width = 815;
},
{
anchors = (
{
name = bottom;
pos = (2906,-20);
},
{
name = exit;
},
{
name = top;
pos = (2906,220);
}
);
associatedMasterId = m01;
attr = {
coordinates = (
100,
0
);
};
backgroundImage = {
alpha = 80;
imagePath = "images/MS-Arabe-350-0000003.png";
pos = (-1082,-920);
scale = (2.5,2.5);
};
layerId = "257FD885-0504-49F8-8406-A1FC5AE13C98";
name = "{0, 100} 27 Sep 25 at 13:51";
shapes = (
{
closed = 1;
nodes = (
(5814,0,ls),
(5852,0,o),
(5856,23,o),
(5854,40,cs),
(5850,83,o),
(5843,108,o),
(5831,145,cs),
(5827,157,o),
(5816,160,o),
(5809,160,cs),
(266,160,ls),
(227,160,o),
(128,165,o),
(105,189,c),
(97,163,l),
(220,345,l),
(215,252,l),
(134,315,l),
(213,341,l),
(-12,98,l),
(-21,125,l),
(-5,99,o),
(116,90,o),
(168,90,cs),
(5755,90,l),
(5723,145,l),
(5735,108,o),
(5742,83,o),
(5746,40,c),
(5761,70,l),
(-20,70,l),
(-20,0,l)
);
}
);
width = 5874;
},
{
anchors = (
{
name = bottom;
pos = (124,-20);
},
{
name = exit;
},
{
name = top;
pos = (236,220);
}
);
associatedMasterId = m01;
attr = {
coordinates = (
0,
0
);
};
layerId = "602B23C6-C93C-4353-A108-CCF0EA74D0B1";
name = "{0, 0} 27 Sep 25 at 13:54";
shapes = (
{
closed = 1;
nodes = (
(324,0,ls),
(362,0,o),
(366,23,o),
(364,40,cs),
(360,83,o),
(353,108,o),
(341,145,cs),
(337,157,o),
(326,160,o),
(319,160,cs),
(266,160,ls),
(227,160,o),
(128,165,o),
(105,189,c),
(97,163,l),
(220,345,l),
(215,252,l),
(134,315,l),
(213,341,l),
(-12,98,l),
(-21,125,l),
(-5,99,o),
(116,90,o),
(168,90,cs),
(265,90,l),
(233,145,l),
(245,108,o),
(252,83,o),
(256,40,c),
(271,70,l),
(-20,70,l),
(-20,0,l)
);
}
);
width = 384;
}
);
metricLeft = "=-20";
metricRight = "=kaf-ar";
production = kafar.init.alt.001;
script = arabic;
sortName = arL0049;
sortNameKeep = arL0049;
}
{
category = Letter;
color = 9;
glyphname = "kaf-ar.isol";
kernLeft = beh;
kernRight = dal;
layers = (
{
anchors = (
{
name = bottom;
pos = (470,-20);
},
{
name = gaf;
pos = (289,315);
},
{
name = top;
pos = (532,220);
}
);
backgroundImage = {
alpha = 80;
imagePath = "images/kaf-ar.jpg";
pos = (-130,-148);
scale = (13.45,13.45);
};
layerId = m01;
shapes = (
{
closed = 1;
nodes = (
(880,0,ls),
(918,0,o),
(922,23,o),
(920,40,cs),
(916,83,o),
(909,108,o),
(897,145,cs),
(893,157,o),
(882,160,o),
(875,160,cs),
(391,160,ls),
(352,160,o),
(253,165,o),
(230,189,c),
(446,436,ls),
(463,456,o),
(458,478,o),
(445,503,cs),
(380,644,l),
(314,573,l),
(386,422,ls),
(391,412,o),
(391,399,o),
(381,388,cs),
(125,111,l),
(166,96,o),
(252,90,o),
(293,90,cs),
(805,90,l),
(808,70,l),
(293,70,ls),
(247,70,o),
(149,77,o),
(114,96,c),
(86,62,o),
(40,24,o),
(0,0,c)
);
}
);
width = 940;
},
{
anchors = (
{
name = bottom;
pos = (250,-20);
},
{
name = gaf;
pos = (299,315);
},
{
name = top;
pos = (362,220);
}
);
associatedMasterId = m01;
attr = {
coordinates = (
0,
-50
);
};
layerId = "6454D720-B0B7-43EF-8BC5-AD26687149CB";
name = "{0} 22 Feb 26 at 00:28";
shapes = (
{
closed = 1;
nodes = (
(450,0,ls),
(488,0,o),
(492,23,o),
(490,40,cs),
(486,83,o),
(479,108,o),
(467,145,cs),
(463,157,o),
(452,160,o),
(445,160,cs),
(411,160,ls),
(372,160,o),
(253,165,o),
(230,189,c),
(446,436,ls),
(463,456,o),
(458,478,o),
(445,503,cs),
(380,644,l),
(314,573,l),
(386,422,ls),
(391,412,o),
(391,399,o),
(381,388,cs),
(125,111,l),
(166,96,o),
(252,90,o),
(293,90,cs),
(375,90,l),
(378,70,l),
(293,70,ls),
(247,70,o),
(149,77,o),
(114,96,c),
(86,62,o),
(40,24,o),
(0,0,c)
);
}
);
width = 510;
},
{
anchors = (
{
name = bottom;
pos = (3032,-20);
},
{
name = gaf;
pos = (299,315);
},
{
name = top;
pos = (3032,220);
}
);
associatedMasterId = m01;
attr = {
coordinates = (
100,
-50
);
};
layerId = "D900405F-2809-4099-9A60-C52AA97E9EFE";
name = "{100} 22 Feb 26 at 00:28";
shapes = (
{
closed = 1;
nodes = (
(5940,0,ls),
(5978,0,o),
(5982,23,o),
(5980,40,cs),
(5976,83,o),
(5969,108,o),
(5957,145,cs),
(5953,157,o),
(5942,160,o),
(5935,160,cs),
(391,160,ls),
(352,160,o),
(253,165,o),
(230,189,c),
(446,436,ls),
(463,456,o),
(458,478,o),
(445,503,cs),
(380,644,l),
(314,573,l),
(386,422,ls),
(391,412,o),
(391,399,o),
(381,388,cs),
(125,111,l),
(166,96,o),
(252,90,o),
(293,90,cs),
(5865,90,l),
(5868,70,l),
(293,70,ls),
(247,70,o),
(149,77,o),
(114,96,c),
(86,62,o),
(40,24,o),
(0,0,c)
);
}
);
width = 6000;
},
{
anchors = (
{
name = bottom;
pos = (250,-20);
},
{
name = gaf;
pos = (299,315);
},
{
name = top;
pos = (362,220);
}
);
associatedMasterId = m01;
layerId = "0D282A75-1740-4E75-802F-0DDF4FEE7E15";
name = "{0, 0} 27 Sep 25 at 12:58";
shapes = (
{
closed = 1;
nodes = (
(-23,0,l),
(450,0,ls),
(488,0,o),
(492,23,o),
(490,40,cs),
(486,83,o),
(479,108,o),
(467,145,cs),
(463,157,o),
(452,160,o),
(445,160,cs),
(411,160,ls),
(372,160,o),
(253,165,o),
(230,189,c),
(446,436,ls),
(463,456,o),
(458,478,o),
(445,503,cs),
(380,644,l),
(314,573,l),
(386,422,ls),
(391,412,o),
(391,399,o),
(381,388,cs),
(113,98,l),
(104,125,l),
(120,99,o),
(241,90,o),
(293,90,cs),
(391,90,l),
(359,145,l),
(371,108,o),
(378,83,o),
(382,40,c),
(397,70,l),
(293,70,ls),
(241,70,o),
(120,79,o),
(104,105,c),
(132,121,l),
(104,71,o),
(6,-6,o),
(-43,-21,c)
);
}
);
width = 510;
},
{
anchors = (
{
name = bottom;
pos = (3032,-20);
},
{
name = gaf;
pos = (299,315);
},
{
name = top;
pos = (3032,220);
}
);
associatedMasterId = m01;
layerId = "74D6E443-AAA2-4E7E-A54D-56928A737A53";
name = "17 May 23 at 02:07";
shapes = (
{
closed = 1;
nodes = (
(-23,0,l),
(5940,0,ls),
(5978,0,o),
(5982,23,o),
(5980,40,cs),
(5976,83,o),
(5969,108,o),
(5957,145,cs),
(5953,157,o),
(5942,160,o),
(5935,160,cs),
(391,160,ls),
(352,160,o),
(253,165,o),
(230,189,c),
(446,436,ls),
(463,456,o),
(458,478,o),
(445,503,cs),
(380,644,l),
(314,573,l),
(386,422,ls),
(391,412,o),
(391,399,o),
(381,388,cs),
(113,98,l),
(104,125,l),
(120,99,o),
(241,90,o),
(293,90,cs),
(5881,90,l),
(5849,145,l),
(5861,108,o),
(5868,83,o),
(5872,40,c),
(5887,70,l),
(293,70,ls),
(241,70,o),
(120,79,o),
(104,105,c),
(132,121,l),
(104,71,o),
(6,-6,o),
(-43,-21,c)
);
}
);
width = 6000;
},
{
anchors = (
{
name = bottom;
pos = (470,-20);
},
{
name = gaf;
pos = (289,315);
},
{
name = top;
pos = (532,220);
}
);
associatedMasterId = m01;
backgroundImage = {
alpha = 80;
imagePath = "images/kaf-ar.jpg";
pos = (-130,-148);
scale = (13.45,13.45);
};
layerId = "1B6B06F3-EFC9-4B2B-9154-887D1E775214";
name = "22 Feb 26 at 00:28";
shapes = (
{
closed = 1;
nodes = (
(-23,0,l),
(880,0,ls),
(918,0,o),
(922,23,o),
(920,40,cs),
(916,83,o),
(909,108,o),
(897,145,cs),
(893,157,o),
(882,160,o),
(875,160,cs),
(391,160,ls),
(352,160,o),
(253,165,o),
(230,189,c),
(446,436,ls),
(463,456,o),
(458,478,o),
(445,503,cs),
(380,644,l),
(314,573,l),
(386,422,ls),
(391,412,o),
(391,399,o),
(381,388,cs),
(113,98,l),
(104,125,l),
(120,99,o),
(241,90,o),
(293,90,cs),
(821,90,l),
(789,145,l),
(801,108,o),
(808,83,o),
(812,40,c),
(827,70,l),
(293,70,ls),
(241,70,o),
(120,79,o),
(104,105,c),
(132,121,l),
(104,71,o),
(6,-6,o),
(-43,-21,c)
);
}
);
width = 940;
}
);
metricLeft = "=dal-ar.isol";
metricRight = "=dal-ar.isol";
script = arabic;
sortName = arL0046;
sortNameKeep = arL0046;
}
{
category = Letter;
color = 7;
glyphname = "kaf-ar.isol.hist";
kernLeft = beh;
kernRight = dal;
layers = (
{
anchors = (
{
name = bottom;
pos = (470,-20);
},
{
name = top;
pos = (532,220);
}
);
backgroundImage = {
alpha = 80;
imagePath = "images/kaf-ar.jpg";
pos = (-130,-148);
scale = (13.45,13.45);
};
guides = (
{
name = "700";
pos = (501,770);
}
);
layerId = m01;
shapes = (
{
closed = 1;
nodes = (
(880,0,ls),
(918,0,o),
(922,23,o),
(920,40,cs),
(916,83,o),
(909,108,o),
(897,145,cs),
(893,157,o),
(882,160,o),
(875,160,cs),
(391,160,ls),
(331,160,o),
(230,159,o),
(230,187,cs),
(230,769,l),
(204,731,o),
(167,690,o),
(136,666,c),
(151,628,o),
(150,536,o),
(150,492,cs),
(150,129,ls),
(150,114,o),
(152,90,o),
(262,90,cs),
(805,90,l),
(808,70,l),
(293,70,ls),
(247,70,o),
(149,77,o),
(114,96,c),
(86,62,o),
(40,24,o),
(0,0,c)
);
}
);
width = 940;
},
{
anchors = (
{
name = bottom;
pos = (250,-20);
},
{
name = top;
pos = (362,220);
}
);
associatedMasterId = m01;
attr = {
coordinates = (
0
);
};
layerId = "0B352165-E0BE-4D71-AA24-1B9E688A0617";
name = "{0} 22 Feb 26 at 00:28";
shapes = (
{
closed = 1;
nodes = (
(450,0,ls),
(488,0,o),
(492,23,o),
(490,40,cs),
(486,83,o),
(479,108,o),
(467,145,cs),
(463,157,o),
(452,160,o),
(445,160,cs),
(391,160,ls),
(331,160,o),
(230,159,o),
(230,187,cs),
(230,907,l),
(204,869,o),
(167,828,o),
(136,804,c),
(151,766,o),
(150,674,o),
(150,630,cs),
(150,129,ls),
(150,114,o),
(152,90,o),
(262,90,cs),
(375,90,l),
(378,70,l),
(293,70,ls),
(247,70,o),
(149,77,o),
(114,96,c),
(86,62,o),
(40,24,o),
(0,0,c)
);
}
);
width = 510;
},
{
anchors = (
{
name = bottom;
pos = (3032,-20);
},
{
name = top;
pos = (3032,220);
}
);
associatedMasterId = m01;
attr = {
coordinates = (
100
);
};
layerId = "083968F5-D68D-4A57-9E3B-FC710417A979";
name = "{100} 22 Feb 26 at 00:28";
shapes = (
{
closed = 1;
nodes = (
(5940,0,ls),
(5978,0,o),
(5982,23,o),
(5980,40,cs),
(5976,83,o),
(5969,108,o),
(5957,145,cs),
(5953,157,o),
(5942,160,o),
(5935,160,cs),
(391,160,ls),
(331,160,o),
(230,159,o),
(230,187,cs),
(230,907,l),
(204,869,o),
(167,828,o),
(136,804,c),
(151,766,o),
(150,674,o),
(150,630,cs),
(150,129,ls),
(150,114,o),
(152,90,o),
(262,90,cs),
(5865,90,l),
(5868,70,l),
(293,70,ls),
(247,70,o),
(149,77,o),
(114,96,c),
(86,62,o),
(40,24,o),
(0,0,c)
);
}
);
width = 6000;
},
{
anchors = (
{
name = bottom;
pos = (250,-20);
},
{
name = top;
pos = (362,220);
}
);
associatedMasterId = m01;
layerId = "0D282A75-1740-4E75-802F-0DDF4FEE7E15";
name = "{0, 0} 27 Sep 25 at 12:58";
shapes = (
{
closed = 1;
nodes = (
(-23,0,l),
(450,0,ls),
(488,0,o),
(492,23,o),
(490,40,cs),
(486,83,o),
(479,108,o),
(467,145,cs),
(463,157,o),
(452,160,o),
(445,160,cs),
(391,160,ls),
(331,160,o),
(230,159,o),
(230,187,cs),
(230,946,l),
(261,966,l),
(246,917,o),
(169,821,o),
(119,793,c),
(125,819,l),
(151,803,o),
(150,682,o),
(150,630,cs),
(150,129,ls),
(150,114,o),
(152,90,o),
(262,90,cs),
(391,90,l),
(359,145,l),
(371,108,o),
(378,83,o),
(382,40,c),
(397,70,l),
(293,70,ls),
(241,70,o),
(120,79,o),
(104,105,c),
(132,121,l),
(104,71,o),
(6,-6,o),
(-43,-21,c)
);
}
);
width = 510;
},
{
anchors = (
{
name = bottom;
pos = (3032,-20);
},
{
name = top;
pos = (3032,220);
}
);
associatedMasterId = m01;
layerId = "74D6E443-AAA2-4E7E-A54D-56928A737A53";
name = "17 May 23 at 02:07";
shapes = (
{
closed = 1;
nodes = (
(-23,0,l),
(5940,0,ls),
(5978,0,o),
(5982,23,o),
(5980,40,cs),
(5976,83,o),
(5969,108,o),
(5957,145,cs),
(5953,157,o),
(5942,160,o),
(5935,160,cs),
(391,160,ls),
(331,160,o),
(230,159,o),
(230,187,cs),
(230,946,l),
(261,966,l),
(246,917,o),
(169,821,o),
(119,793,c),
(125,819,l),
(151,803,o),
(150,682,o),
(150,630,cs),
(150,129,ls),
(150,114,o),
(152,90,o),
(262,90,cs),
(5881,90,l),
(5849,145,l),
(5861,108,o),
(5868,83,o),
(5872,40,c),
(5887,70,l),
(293,70,ls),
(241,70,o),
(120,79,o),
(104,105,c),
(132,121,l),
(104,71,o),
(6,-6,o),
(-43,-21,c)
);
}
);
width = 6000;
},
{
anchors = (
{
name = bottom;
pos = (470,-20);
},
{
name = top;
pos = (532,220);
}
);
associatedMasterId = m01;
backgroundImage = {
alpha = 80;
imagePath = "images/kaf-ar.jpg";
pos = (-130,-148);
scale = (13.45,13.45);
};
guides = (
{
name = "700";
pos = (501,770);
}
);
layerId = "01F9DC6C-1EF8-442B-98AA-BAE7DC462663";
name = "22 Feb 26 at 00:28";
shapes = (
{
closed = 1;
nodes = (
(-23,0,l),
(880,0,ls),
(918,0,o),
(922,23,o),
(920,40,cs),
(916,83,o),
(909,108,o),
(897,145,cs),
(893,157,o),
(882,160,o),
(875,160,cs),
(391,160,ls),
(331,160,o),
(230,159,o),
(230,187,cs),
(230,808,l),
(261,828,l),
(246,779,o),
(169,683,o),
(119,655,c),
(125,681,l),
(151,665,o),
(150,544,o),
(150,492,cs),
(150,129,ls),
(150,114,o),
(152,90,o),
(262,90,cs),
(821,90,l),
(789,145,l),
(801,108,o),
(808,83,o),
(812,40,c),
(827,70,l),
(293,70,ls),
(241,70,o),
(120,79,o),
(104,105,c),
(132,121,l),
(104,71,o),
(6,-6,o),
(-43,-21,c)
);
}
);
width = 940;
}
);
metricLeft = "=dal-ar.isol";
metricRight = "=dal-ar.isol";
script = arabic;
sortName = arL0046.xhist;
sortNameKeep = arL0046;
}
{
category = Letter;
color = 7;
glyphname = "kaf-ar.medi.hist";
kernLeft = kaf;
kernRight = dal;
layers = (
{
anchors = (
{
name = bottom;
pos = (345,-20);
},
{
name = entry;
pos = (815,0);
},
{
name = exit;
},
{
name = top;
pos = (407,220);
}
);
layerId = m01;
shapes = (
{
closed = 1;
nodes = (
(835,0,l),
(835,70,l),
(798,70,o),
(789,88,o),
(786,98,cs),
(781,114,o),
(778,127,o),
(772,145,cs),
(768,157,o),
(757,160,o),
(750,160,cs),
(266,160,ls),
(230,160,o),
(142,164,o),
(111,184,c),
(177,281,l),
(166,290,l),
(0,111,l),
(41,96,o),
(127,90,o),
(168,90,cs),
(680,90,l),
(683,70,l),
(-20,70,l),
(-20,0,l)
);
}
);
width = 815;
},
{
anchors = (
{
name = bottom;
pos = (124,-20);
},
{
name = entry;
pos = (384,0);
},
{
name = exit;
},
{
name = top;
pos = (236,220);
}
);
associatedMasterId = m01;
attr = {
coordinates = (
0,
-50
);
};
layerId = "DCEF77DF-6403-49C1-AE69-1CDD4D8A54D0";
name = "{0} 22 Feb 26 at 00:31";
shapes = (
{
closed = 1;
nodes = (
(404,0,l),
(404,70,l),
(367,70,o),
(358,88,o),
(355,98,cs),
(350,114,o),
(347,127,o),
(341,145,cs),
(337,157,o),
(326,160,o),
(319,160,cs),
(266,160,ls),
(230,160,o),
(142,164,o),
(111,184,c),
(177,281,l),
(166,290,l),
(0,111,l),
(41,96,o),
(127,90,o),
(168,90,cs),
(249,90,l),
(252,70,l),
(-20,70,l),
(-20,0,l)
);
}
);
width = 384;
},
{
anchors = (
{
name = bottom;
pos = (2906,-20);
},
{
name = entry;
pos = (5874,0);
},
{
name = exit;
},
{
name = top;
pos = (2906,220);
}
);
associatedMasterId = m01;
attr = {
coordinates = (
100,
-50
);
};
layerId = "2BFB3791-DF98-4967-9D2C-48133B98F284";
name = "{100} 22 Feb 26 at 00:31";
shapes = (
{
closed = 1;
nodes = (
(5894,0,l),
(5894,70,l),
(5857,70,o),
(5848,88,o),
(5845,98,cs),
(5840,114,o),
(5837,127,o),
(5831,145,cs),
(5827,157,o),
(5816,160,o),
(5809,160,cs),
(266,160,ls),
(230,160,o),
(142,164,o),
(111,184,c),
(177,281,l),
(166,290,l),
(0,111,l),
(41,96,o),
(127,90,o),
(168,90,cs),
(5739,90,l),
(5742,70,l),
(-20,70,l),
(-20,0,l)
);
}
);
width = 5874;
},
{
anchors = (
{
name = bottom;
pos = (124,-20);
},
{
name = entry;
pos = (384,0);
},
{
name = exit;
},
{
name = top;
pos = (236,220);
}
);
associatedMasterId = m01;
layerId = "28EC70D9-F0B5-4C86-945B-568F26E866FE";
name = "17 May 23 at 13:22";
shapes = (
{
closed = 1;
nodes = (
(324,0,ls),
(362,0,o),
(366,23,o),
(364,40,cs),
(360,83,o),
(353,108,o),
(341,145,cs),
(337,157,o),
(326,160,o),
(319,160,cs),
(266,160,ls),
(227,160,o),
(128,165,o),
(105,189,c),
(97,163,l),
(220,345,l),
(215,252,l),
(134,315,l),
(213,341,l),
(-12,98,l),
(-21,125,l),
(-5,99,o),
(116,90,o),
(168,90,cs),
(265,90,l),
(233,145,l),
(245,108,o),
(252,83,o),
(256,40,c),
(271,70,l),
(-20,70,l),
(-20,0,l)
);
},
{
closed = 1;
nodes = (
(404,0,l),
(404,70,l),
(367,70,o),
(359,88,o),
(355,98,c),
(322,98,l),
(322,0,l)
);
}
);
width = 384;
},
{
anchors = (
{
name = bottom;
pos = (2906,-20);
},
{
name = entry;
pos = (5874,0);
},
{
name = exit;
},
{
name = top;
pos = (2906,220);
}
);
associatedMasterId = m01;
layerId = "79BB94E9-709B-4B8D-A308-DC550F0444BD";
name = "17 May 23 at 02:07";
shapes = (
{
closed = 1;
nodes = (
(5814,0,ls),
(5852,0,o),
(5856,23,o),
(5854,40,cs),
(5850,83,o),
(5843,108,o),
(5831,145,cs),
(5827,157,o),
(5816,160,o),
(5809,160,cs),
(266,160,ls),
(227,160,o),
(128,165,o),
(105,189,c),
(97,163,l),
(220,345,l),
(215,252,l),
(134,315,l),
(213,341,l),
(-12,98,l),
(-21,125,l),
(-5,99,o),
(116,90,o),
(168,90,cs),
(5755,90,l),
(5723,145,l),
(5735,108,o),
(5742,83,o),
(5746,40,c),
(5761,70,l),
(-20,70,l),
(-20,0,l)
);
},
{
closed = 1;
nodes = (
(5894,0,l),
(5894,70,l),
(5857,70,o),
(5849,88,o),
(5845,98,c),
(5812,98,l),
(5812,0,l)
);
}
);
width = 5874;
},
{
anchors = (
{
name = bottom;
pos = (345,-20);
},
{
name = entry;
pos = (815,0);
},
{
name = exit;
},
{
name = top;
pos = (407,220);
}
);
associatedMasterId = m01;
layerId = "448F44DB-29D9-4EDE-BF2A-9417D6C9BBEF";
name = "22 Feb 26 at 00:31";
shapes = (
{
closed = 1;
nodes = (
(755,0,ls),
(793,0,o),
(797,23,o),
(795,40,cs),
(791,83,o),
(784,108,o),
(772,145,cs),
(768,157,o),
(757,160,o),
(750,160,cs),
(266,160,ls),
(227,160,o),
(128,165,o),
(105,189,c),
(97,163,l),
(220,345,l),
(215,252,l),
(134,315,l),
(213,341,l),
(-12,98,l),
(-21,125,l),
(-5,99,o),
(116,90,o),
(168,90,cs),
(696,90,l),
(664,145,l),
(676,108,o),
(683,83,o),
(687,40,c),
(702,70,l),
(-20,70,l),
(-20,0,l)
);
},
{
closed = 1;
nodes = (
(835,0,l),
(835,70,l),
(798,70,o),
(790,88,o),
(786,98,c),
(753,98,l),
(753,0,l)
);
}
);
width = 815;
}
);
metricLeft = "=kaf-ar.init";
metricRight = "=kaf-ar.fina";
metricWidth = "=kaf-ar.init";
script = arabic;
sortName = arL0048.xhist;
sortNameKeep = arL0048.alt;
}
{
category = Letter;
glyphname = "lam-ar.fina";
kernLeft = lam.fina;
kernRight = beh;
layers = (
{
anchors = (
{
name = bottom;
pos = (92,-250);
},
{
name = entry;
pos = (273,0);
},
{
name = top;
pos = (216,780);
}
);
backgroundImage = {
alpha = 80;
angle = -0.6;
imagePath = "images/lam-ar.fina.jpg";
locked = 1;
pos = (-293,-499);
scale = (14.67,14.67);
};
layerId = m01;
shapes = (
{
closed = 1;
nodes = (
(-143,-230,l),
(213,-230,ls),
(251,-230,o),
(253,-207,o),
(253,-190,cs),
(248,143,o),
(248,475,o),
(253,808,c),
(284,828,l),
(269,779,o),
(192,683,o),
(142,655,c),
(148,681,l),
(197,651,o),
(179,13,o),
(175,-185,c),
(191,-140,l),
(161,-143,o),
(2,-135,o),
(-16,-105,c),
(12,-109,l),
(-16,-159,o),
(-114,-236,o),
(-163,-251,c)
);
},
{
closed = 1;
nodes = (
(293,0,l),
(293,70,l),
(255,70,o),
(249,93,o),
(249,110,c),
(193,110,l),
(193,0,l)
);
}
);
width = 273;
}
);
metricLeft = "=lam-ar.isol";
metricRight = "=beh-ar.medi";
metricWidth = "=lam-ar.isol";
script = arabic;
sortName = arL0054;
sortNameKeep = arL0054;
}
{
category = Letter;
glyphname = "lam-ar.fina.short";
kernLeft = lam.fina;
kernRight = beh;
layers = (
{
layerId = m01;
shapes = (
{
closed = 1;
nodes = (
(-143,-230,l),
(213,-230,ls),
(251,-230,o),
(253,-207,o),
(253,-190,cs),
(253,138,l),
(173,138,l),
(173,-150,l),
(121,-150,o),
(0,-141,o),
(-16,-115,c),
(12,-109,l),
(-16,-159,o),
(-114,-236,o),
(-163,-251,c)
);
},
{
pos = (153,0);
ref = _c.beh;
},
{
closed = 1;
nodes = (
(251,0,o),
(253,23,o),
(253,40,cs),
(253,698,l),
(284,718,l),
(269,669,o),
(192,573,o),
(142,545,c),
(148,571,l),
(174,555,o),
(173,434,o),
(173,382,cs),
(173,40,ls),
(173,23,o),
(173,0,o),
(213,0,cs)
);
}
);
width = 273;
}
);
metricLeft = "=lam-ar.fina";
metricRight = "=lam-ar.fina";
metricWidth = "=lam-ar.fina";
production = lamar.fina.short;
script = arabic;
sortName = arL0054.short;
sortNameKeep = arL0054.short;
}
{
category = Letter;
glyphname = "lam-ar.init";
kernLeft = beh;
kernRight = beh;
layers = (
{
anchors = (
{
name = exit;
}
);
backgroundImage = {
alpha = 80;
imagePath = "images/lam-ar.init.jpg";
pos = (-388,-151);
scale = (14.67,14.67);
};
guides = (
{
name = "700";
pos = (501,770);
}
);
layerId = m01;
shapes = (
{
closed = 1;
nodes = (
(78,0,o),
(80,23,o),
(80,40,cs),
(80,808,l),
(111,828,l),
(96,779,o),
(19,683,o),
(-31,655,c),
(-25,681,l),
(1,665,o),
(0,544,o),
(0,492,cs),
(0,40,ls),
(0,23,o),
(0,0,o),
(40,0,cs)
);
},
{
closed = 1;
nodes = (
(40,0,l),
(40,70,l),
(-20,70,l),
(-20,0,l)
);
}
);
width = 100;
}
);
metricLeft = "=behDotless-ar.init";
metricRight = "=behDotless-ar.init";
metricWidth = "=behDotless-ar.init";
script = arabic;
sortName = arL0056;
sortNameKeep = arL0056;
}
{
category = Letter;
glyphname = "lam-ar.init.hah1";
kernLeft = beh;
kernRight = lam;
layers = (
{
anchors = (
{
name = exit;
pos = (0,90);
}
);
guides = (
{
name = "700";
pos = (501,770);
}
);
layerId = m01;
shapes = (
{
closed = 1;
nodes = (
(78,90,o),
(80,113,o),
(80,130,cs),
(80,808,l),
(111,828,l),
(96,779,o),
(19,683,o),
(-31,655,c),
(-25,681,l),
(1,665,o),
(0,544,o),
(0,492,cs),
(0,130,ls),
(0,113,o),
(0,90,o),
(40,90,cs)
);
},
{
closed = 1;
nodes = (
(40,90,l),
(40,170,l),
(-20,170,l),
(-20,90,l)
);
}
);
width = 100;
}
);
metricLeft = "=lam-ar.init";
metricRight = "=lam-ar.init";
metricWidth = "=lam-ar.init";
production = lamar.init.hah1;
script = arabic;
sortName = arL0056.hah1;
sortNameKeep = arL0056.hah1;
}
{
category = Letter;
glyphname = "lam-ar.init.hah2";
kernLeft = beh;
kernRight = lam;
layers = (
{
anchors = (
{
name = bottom;
pos = (40,160);
},
{
name = exit;
pos = (0,180);
},
{
name = top;
pos = (43,780);
}
);
guides = (
{
name = "700";
pos = (501,770);
}
);
layerId = m01;
shapes = (
{
closed = 1;
nodes = (
(40,180,ls),
(78,180,o),
(80,203,o),
(80,220,cs),
(80,769,l),
(54,731,o),
(17,690,o),
(-14,666,c),
(1,628,o),
(0,536,o),
(0,492,cs),
(0,260,l),
(-20,260,l),
(-20,180,l)
);
}
);
width = 100;
},
{
anchors = (
{
name = bottom;
pos = (40,160);
},
{
name = exit;
pos = (0,180);
},
{
name = top;
pos = (43,780);
}
);
associatedMasterId = m01;
guides = (
{
name = "700";
pos = (501,770);
}
);
layerId = "C2A252F4-CA49-40C5-AC86-A79EC1731CD9";
name = "22 Feb 26 at 00:33";
shapes = (
{
closed = 1;
nodes = (
(78,180,o),
(80,203,o),
(80,220,cs),
(80,808,l),
(111,828,l),
(96,779,o),
(19,683,o),
(-31,655,c),
(-25,681,l),
(1,665,o),
(0,544,o),
(0,492,cs),
(0,220,ls),
(0,203,o),
(0,180,o),
(40,180,cs)
);
},
{
closed = 1;
nodes = (
(40,180,l),
(40,260,l),
(-20,260,l),
(-20,180,l)
);
}
);
width = 100;
}
);
metricLeft = "=lam-ar.init";
metricRight = "=lam-ar.init";
metricWidth = "=lam-ar.init";
script = arabic;
sortName = arL0056.hah2;
sortNameKeep = arL0056.hah2;
}
{
category = Letter;
glyphname = "lam-ar.init.short";
kernLeft = beh;
kernRight = lam;
layers = (
{
anchors = (
{
name = bottom;
pos = (40,-20);
},
{
name = exit;
},
{
name = top;
pos = (43,670);
}
);
guides = (
{
name = "700";
pos = (501,770);
}
);
layerId = m01;
shapes = (
{
closed = 1;
nodes = (
(78,0,o),
(80,23,o),
(80,40,cs),
(80,698,l),
(111,718,l),
(96,669,o),
(19,573,o),
(-31,545,c),
(-25,571,l),
(1,555,o),
(0,434,o),
(0,382,cs),
(0,40,ls),
(0,23,o),
(0,0,o),
(40,0,cs)
);
},
{
closed = 1;
nodes = (
(40,0,l),
(40,80,l),
(-20,80,l),
(-20,0,l)
);
}
);
width = 100;
}
);
metricLeft = "=lam-ar.init";
metricRight = "=lam-ar.init";
metricWidth = "=lam-ar.init";
script = arabic;
sortName = arL0056.short;
sortNameKeep = arL0056.hah1;
}
{
category = Letter;
glyphname = "lam-ar.isol";
kernLeft = lam.fina;
kernRight = lam;
layers = (
{
anchors = (
{
name = bottom;
pos = (92,-250);
},
{
name = top;
pos = (216,780);
}
);
backgroundImage = {
alpha = 80;
imagePath = "images/lam-ar.jpg";
pos = (-378,-514);
scale = (14.67,14.67);
};
layerId = m01;
shapes = (
{
closed = 1;
nodes = (
(213,-230,ls),
(251,-230,o),
(253,-207,o),
(253,-190,cs),
(248,130,o),
(248,449,o),
(252,769,c),
(226,730,o),
(189,689,o),
(158,665,c),
(191,569,o),
(181,77,o),
(176,-140,c),
(136,-141,o),
(47,-135,o),
(6,-119,c),
(-19,-156,o),
(-74,-203,o),
(-120,-230,c)
);
}
);
width = 273;
},
{
anchors = (
{
name = bottom;
pos = (92,-250);
},
{
name = top;
pos = (216,780);
}
);
associatedMasterId = m01;
backgroundImage = {
alpha = 80;
imagePath = "images/lam-ar.jpg";
pos = (-378,-514);
scale = (14.67,14.67);
};
layerId = "B445A1BE-D056-4E46-9374-9D613DC6D58C";
name = "22 Feb 26 at 00:32";
shapes = (
{
closed = 1;
nodes = (
(-143,-230,l),
(213,-230,ls),
(251,-230,o),
(253,-207,o),
(253,-190,cs),
(248,143,o),
(248,475,o),
(253,808,c),
(284,828,l),
(269,779,o),
(192,683,o),
(142,655,c),
(148,681,l),
(197,651,o),
(179,13,o),
(175,-185,c),
(191,-140,l),
(161,-143,o),
(2,-135,o),
(-16,-105,c),
(12,-109,l),
(-16,-159,o),
(-114,-236,o),
(-163,-251,c)
);
}
);
width = 273;
}
);
metricLeft = "=-120";
metricRight = "=alef-ar.isol";
script = arabic;
sortName = arL0053;
sortNameKeep = arL0053;
}
{
category = Letter;
glyphname = "lam-ar.isol.short";
kernLeft = lam.fina;
kernRight = lam;
layers = (
{
anchors = (
{
name = bottom;
pos = (92,-250);
},
{
name = top;
pos = (216,670);
}
);
layerId = m01;
shapes = (
{
closed = 1;
nodes = (
(213,-230,ls),
(251,-230,o),
(253,-207,o),
(253,-190,cs),
(248,130,o),
(248,347,o),
(252,658,c),
(226,620,o),
(189,579,o),
(158,556,c),
(191,470,o),
(181,65,o),
(176,-140,c),
(136,-141,o),
(47,-135,o),
(6,-119,c),
(-19,-156,o),
(-74,-203,o),
(-120,-230,c)
);
}
);
width = 273;
},
{
anchors = (
{
name = bottom;
pos = (92,-250);
},
{
name = top;
pos = (216,670);
}
);
associatedMasterId = m01;
layerId = "FB783552-0C67-48CF-AB6F-98441F2ED8DE";
name = "22 Feb 26 at 00:32";
shapes = (
{
closed = 1;
nodes = (
(-143,-230,l),
(213,-230,ls),
(251,-230,o),
(253,-207,o),
(253,-190,cs),
(248,143,o),
(248,365,o),
(253,698,c),
(284,718,l),
(269,669,o),
(192,573,o),
(142,545,c),
(148,571,l),
(197,541,o),
(179,13,o),
(175,-185,c),
(191,-140,l),
(161,-143,o),
(2,-135,o),
(-16,-105,c),
(12,-109,l),
(-16,-159,o),
(-114,-236,o),
(-163,-251,c)
);
}
);
width = 273;
}
);
metricLeft = "=lam-ar.isol";
metricRight = "=lam-ar.isol";
metricWidth = "=lam-ar.isol";
script = arabic;
sortName = arL0053.short;
sortNameKeep = arL0054.short;
}
{
category = Letter;
glyphname = "lam-ar.medi.hah1";
kernLeft = beh;
kernRight = beh;
layers = (
{
anchors = (
{
name = entry;
pos = (100,90);
},
{
name = exit;
pos = (0,90);
},
{
name = top;
pos = (43,780);
}
);
layerId = m01;
shapes = (
{
closed = 1;
nodes = (
(78,90,o),
(80,113,o),
(80,130,cs),
(80,808,l),
(111,828,l),
(96,779,o),
(19,683,o),
(-31,655,c),
(-25,681,l),
(1,665,o),
(0,544,o),
(0,492,cs),
(0,130,ls),
(0,113,o),
(0,90,o),
(40,90,cs)
);
},
{
closed = 1;
nodes = (
(40,90,l),
(40,170,l),
(-20,170,l),
(-20,90,l)
);
},
{
closed = 1;
nodes = (
(120,90,l),
(120,160,l),
(82,160,o),
(80,183,o),
(80,200,c),
(0,200,l),
(0,90,l)
);
}
);
width = 100;
}
);
metricLeft = "=lam-ar.medi";
metricRight = "=lam-ar.medi";
metricWidth = "=lam-ar.medi";
production = lamar.medi.hah1;
script = arabic;
sortName = arL0055.hah1;
sortNameKeep = arL0055.hah1;
}
{
category = Letter;
glyphname = "lam-ar.short";
kernLeft = lam.fina;
kernRight = beh;
layers = (
{
layerId = m01;
shapes = (
{
closed = 1;
nodes = (
(-143,-230,l),
(213,-230,ls),
(251,-230,o),
(253,-207,o),
(253,-190,cs),
(248,143,o),
(248,365,o),
(253,698,c),
(284,718,l),
(269,669,o),
(192,573,o),
(142,545,c),
(148,571,l),
(197,541,o),
(179,13,o),
(175,-185,c),
(191,-140,l),
(161,-143,o),
(2,-135,o),
(-16,-105,c),
(12,-109,l),
(-16,-159,o),
(-114,-236,o),
(-163,-251,c)
);
}
);
width = 273;
}
);
metricLeft = "=lam-ar";
metricRight = "=lam-ar";
metricWidth = "=lam-ar";
production = lamar.fina.short.001;
script = arabic;
sortName = arL0053.short;
sortNameKeep = arL0054.short;
}
{
category = Letter;
glyphname = "lam_alef-ar.fina";
kernLeft = "lam-alef";
layers = (
{
anchors = (
{
name = bottom_1;
pos = (338,-9);
},
{
name = bottom_2;
pos = (99,-9);
},
{
name = caret_1;
pos = (202,11);
},
{
name = entry;
pos = (400,0);
},
{
name = top_1;
pos = (306,691);
},
{
name = top_2;
pos = (3,680);
},
{
name = tophamza_1;
pos = (306,761);
}
);
backgroundImage = {
alpha = 80;
angle = 0.6;
imagePath = "images/lam_alef-ar.fina.jpg";
locked = 1;
pos = (-117,-120);
scale = (14.67,14.67);
};
layerId = m01;
shapes = (
{
closed = 1;
nodes = (
(201,89,l),
(201,0,l),
(420,0,l),
(420,70,l),
(392,70,o),
(375,81,o),
(368,89,c)
);
},
{
closed = 1;
nodes = (
(117,-8,o),
(346,-2,o),
(397,14,cs),
(426,24,o),
(424,37,o),
(397,67,cs),
(240,241,o),
(91,501,o),
(-4,680,c),
(8,680,l),
(-7,616,o),
(-33,567,o),
(-71,541,c),
(-66,577,l),
(10,436,o),
(132,225,o),
(216,121,c),
(191,121,l),
(257,261,o),
(343,383,o),
(348,765,c),
(356,782,l),
(347,735,o),
(295,675,o),
(263,661,c),
(272,697,l),
(263,401,o),
(161,178,o),
(-13,-2,c),
(-19,14,l)
);
},
{
closed = 1;
nodes = (
(196,101,o),
(191,106,o),
(191,112,cs),
(191,118,o),
(196,123,o),
(202,123,cs),
(208,123,o),
(213,118,o),
(213,112,cs),
(213,106,o),
(208,101,o),
(202,101,cs)
);
}
);
width = 400;
}
);
metricLeft = "=0@11";
metricRight = "=-20";
script = arabic;
sortName = arL0402;
sortNameKeep = arL0402;
subCategory = Ligature;
}
{
category = Letter;
glyphname = "lam_alef-ar";
layers = (
{
anchors = (
{
name = caret_1;
pos = (189,-4);
}
);
backgroundImage = {
alpha = 80;
imagePath = "images/lam_alef-ar.jpg";
pos = (-156,-112);
scale = (11.0025,11.0025);
};
layerId = m01;
shapes = (
{
closed = 1;
nodes = (
(117,-19,o),
(346,-13,o),
(397,3,cs),
(426,13,o),
(424,26,o),
(397,56,cs),
(240,230,o),
(101,460,o),
(6,639,c),
(18,639,l),
(3,575,o),
(-23,526,o),
(-61,500,c),
(-56,536,l),
(16,403,o),
(119,237,o),
(202,128,c),
(266,261,o),
(288,512,o),
(293,654,c),
(301,671,l),
(292,624,o),
(240,564,o),
(208,550,c),
(217,586,l),
(229,354,o),
(161,167,o),
(-13,-13,c),
(-19,3,l)
);
},
{
closed = 1;
nodes = (
(199,90,o),
(194,95,o),
(194,101,cs),
(194,107,o),
(199,112,o),
(205,112,cs),
(211,112,o),
(216,107,o),
(216,101,cs),
(216,95,o),
(211,90,o),
(205,90,cs)
);
}
);
width = 436;
},
{
anchors = (
{
name = caret_1;
pos = (189,-4);
}
);
associatedMasterId = m01;
backgroundImage = {
alpha = 80;
imagePath = "images/lam_alef-ar.jpg";
pos = (-156,-112);
scale = (11.0025,11.0025);
};
layerId = "DF1562BE-B449-4AF9-ADD0-73E5DE818998";
name = "29 Sep 25 at 19:51";
shapes = (
{
closed = 1;
nodes = (
(117,-19,o),
(346,-13,o),
(397,3,cs),
(426,13,o),
(417,23,o),
(397,56,cs),
(365,108,o),
(231,239,o),
(219,277,c),
(200,308,o),
(46,564,o),
(6,639,c),
(18,639,l),
(3,575,o),
(-23,526,o),
(-61,500,c),
(-56,536,l),
(16,433,o),
(112,237,o),
(195,128,c),
(259,261,o),
(288,512,o),
(293,654,c),
(301,671,l),
(292,624,o),
(240,564,o),
(208,550,c),
(217,586,l),
(224,450,o),
(194,339,o),
(174,267,c),
(150,169,o),
(69,72,o),
(-13,-13,c),
(-19,3,l)
);
},
{
closed = 1;
nodes = (
(199,90,o),
(194,95,o),
(194,101,cs),
(194,107,o),
(199,112,o),
(205,112,cs),
(211,112,o),
(216,107,o),
(216,101,cs),
(216,95,o),
(211,90,o),
(205,90,cs)
);
}
);
width = 436;
}
);
metricLeft = "=0@0";
metricRight = "=20";
script = arabic;
sortName = arL0401;
sortNameKeep = arL0401;
subCategory = Ligature;
}
{
category = Letter;
glyphname = "lam_alef-ar.isol";
kernLeft = "lam-alef";
layers = (
{
anchors = (
{
name = bottom_1;
pos = (338,-20);
},
{
name = bottom_2;
pos = (99,-20);
},
{
name = caret_1;
pos = (202,0);
},
{
name = top_1;
pos = (306,680);
},
{
name = top_2;
pos = (3,669);
},
{
name = tophamza_1;
pos = (306,750);
}
);
backgroundImage = {
alpha = 80;
imagePath = "images/lam_alef-ar.jpg";
pos = (-156,-112);
scale = (11.0025,11.0025);
};
layerId = m01;
shapes = (
{
closed = 1;
nodes = (
(117,-19,o),
(346,-13,o),
(397,3,cs),
(426,13,o),
(424,26,o),
(397,56,cs),
(240,230,o),
(91,490,o),
(-4,669,c),
(8,669,l),
(-7,605,o),
(-33,556,o),
(-71,530,c),
(-66,566,l),
(10,425,o),
(132,214,o),
(216,110,c),
(191,110,l),
(257,250,o),
(343,372,o),
(348,754,c),
(356,771,l),
(347,724,o),
(295,664,o),
(263,650,c),
(272,686,l),
(263,390,o),
(161,167,o),
(-13,-13,c),
(-19,3,l)
);
},
{
closed = 1;
nodes = (
(196,90,o),
(191,95,o),
(191,101,cs),
(191,107,o),
(196,112,o),
(202,112,cs),
(208,112,o),
(213,107,o),
(213,101,cs),
(213,95,o),
(208,90,o),
(202,90,cs)
);
}
);
width = 438;
},
{
anchors = (
{
name = caret_1;
pos = (189,-4);
}
);
associatedMasterId = m01;
backgroundImage = {
alpha = 80;
imagePath = "images/lam_alef-ar.jpg";
pos = (-156,-112);
scale = (11.0025,11.0025);
};
layerId = "DF1562BE-B449-4AF9-ADD0-73E5DE818998";
name = "29 Sep 25 at 19:51";
shapes = (
{
closed = 1;
nodes = (
(117,-19,o),
(346,-13,o),
(397,3,cs),
(426,13,o),
(417,23,o),
(397,56,cs),
(365,108,o),
(231,239,o),
(219,277,c),
(200,308,o),
(46,564,o),
(6,639,c),
(18,639,l),
(3,575,o),
(-23,526,o),
(-61,500,c),
(-56,536,l),
(16,433,o),
(112,237,o),
(195,128,c),
(259,261,o),
(288,512,o),
(293,654,c),
(301,671,l),
(292,624,o),
(240,564,o),
(208,550,c),
(217,586,l),
(224,450,o),
(194,339,o),
(174,267,c),
(150,169,o),
(69,72,o),
(-13,-13,c),
(-19,3,l)
);
},
{
closed = 1;
nodes = (
(199,90,o),
(194,95,o),
(194,101,cs),
(194,107,o),
(199,112,o),
(205,112,cs),
(211,112,o),
(216,107,o),
(216,101,cs),
(216,95,o),
(211,90,o),
(205,90,cs)
);
}
);
width = 436;
}
);
metricLeft = "=0@0";
metricRight = "=20";
script = arabic;
sortName = arL0401;
sortNameKeep = arL0401;
subCategory = Ligature;
}
{
category = Letter;
glyphname = "lam_lam_heh-ar";
kernLeft = heh;
kernRight = lam;
layers = (
{
anchors = (
{
name = caret_1;
pos = (354,0);
},
{
name = caret_2;
pos = (461,0);
}
);
backgroundImage = {
alpha = 80;
imagePath = "images/allah-ar.jpg";
locked = 1;
pos = (-148,-156);
scale = (14.67,14.67);
};
layerId = m01;
shapes = (
{
closed = 1;
nodes = (
(401,-4,o),
(468,-3,o),
(535,5,cs),
(582,11,o),
(586,17,o),
(587,41,cs),
(590,145,o),
(571,346,o),
(569,478,cs),
(568,639,o),
(565,791,o),
(545,952,cs),
(544,963,o),
(537,961,o),
(533,951,cs),
(519,922,o),
(485,860,o),
(453,827,cs),
(447,822,o),
(447,812,o),
(450,803,cs),
(456,788,o),
(468,707,o),
(472,603,cs),
(478,447,o),
(473,238,o),
(472,131,c),
(452,141,o),
(451,163,o),
(451,220,cs),
(451,338,o),
(456,538,o),
(449,687,cs),
(446,740,o),
(439,786,o),
(433,821,cs),
(430,836,o),
(420,837,o),
(412,822,cs),
(392,782,o),
(372,743,o),
(345,714,cs),
(340,709,o),
(338,700,o),
(340,689,cs),
(351,647,o),
(357,596,o),
(359,544,cs),
(365,407,o),
(365,271,o),
(362,134,c),
(347,142,o),
(348,156,o),
(348,182,cs),
(349,301,o),
(338,422,o),
(335,541,cs),
(335,552,o),
(325,555,o),
(322,541,cs),
(315,505,o),
(259,436,o),
(235,411,cs),
(231,407,o),
(228,405,o),
(230,398,cs),
(235,381,o),
(235,364,o),
(233,348,c),
(253,387,l),
(128,376,o),
(0,282,o),
(0,154,cs),
(0,4,o),
(167,-4,o),
(334,-4,cs)
);
},
{
closed = 1;
nodes = (
(200,200,o),
(194,205,o),
(194,211,cs),
(194,217,o),
(200,222,o),
(205,222,cs),
(211,222,o),
(216,217,o),
(216,211,cs),
(216,205,o),
(211,200,o),
(205,200,cs)
);
}
);
width = 587;
}
);
metricLeft = "=0";
metricRight = "=0";
script = arabic;
sortName = arL0053_arL0053_arL0063;
sortNameKeep = arL0053_arL0053_arL0063;
subCategory = Ligature;
}
{
category = Letter;
glyphname = "meem-ar.fina";
kernLeft = beh;
layers = (
{
anchors = (
{
name = bottom;
pos = (446,-30);
},
{
name = entry;
pos = (620,0);
},
{
name = top;
pos = (446,314);
}
);
layerId = m01;
shapes = (
{
closed = 1;
nodes = (
(-23,0,l),
(640,0,l),
(640,70,l),
(293,70,ls),
(241,70,o),
(120,79,o),
(104,105,c),
(130,121,l),
(102,71,o),
(6,-6,o),
(-43,-21,c)
);
},
{
closed = 1;
nodes = (
(569,-10,o),
(600,10,o),
(600,76,cs),
(600,187,o),
(531,294,o),
(446,294,cs),
(361,294,o),
(292,187,o),
(292,76,cs),
(292,10,o),
(323,-10,o),
(446,-10,cs)
);
},
{
closed = 1;
nodes = (
(437,114,o),
(430,121,o),
(430,129,cs),
(430,137,o),
(437,144,o),
(445,144,cs),
(453,144,o),
(460,137,o),
(460,129,cs),
(460,121,o),
(453,114,o),
(445,114,cs)
);
}
);
width = 620;
}
);
metricLeft = "=0";
metricRight = "=-20";
script = arabic;
sortName = arL0058;
sortNameKeep = arL0058;
}
{
category = Letter;
glyphname = "meem-ar.fina.round";
kernLeft = beh;
layers = (
{
anchors = (
{
name = bottom;
pos = (446,-20);
},
{
name = entry;
pos = (590,0);
},
{
name = top;
pos = (446,324);
}
);
layerId = m01;
shapes = (
{
closed = 1;
nodes = (
(446,0,ls),
(569,0,o),
(600,20,o),
(600,86,cs),
(600,197,o),
(531,304,o),
(446,304,cs),
(345,304,o),
(284,165,o),
(293,70,c),
(247,70,o),
(146,77,o),
(113,97,c),
(86,63,o),
(39,24,o),
(0,0,c)
);
},
{
closed = 1;
nodes = (
(437,124,o),
(430,131,o),
(430,139,cs),
(430,147,o),
(437,154,o),
(445,154,cs),
(453,154,o),
(460,147,o),
(460,139,cs),
(460,131,o),
(453,124,o),
(445,124,cs)
);
}
);
width = 590;
},
{
anchors = (
{
name = bottom;
pos = (446,-20);
},
{
name = entry;
pos = (590,0);
},
{
name = top;
pos = (446,324);
}
);
associatedMasterId = m01;
layerId = "C7C782DD-0A69-41E9-B888-4C3C34D5984D";
name = "22 Feb 26 at 00:34";
shapes = (
{
closed = 1;
nodes = (
(-23,0,l),
(446,0,l),
(446,70,l),
(293,70,ls),
(241,70,o),
(120,79,o),
(104,105,c),
(130,121,l),
(102,71,o),
(6,-6,o),
(-43,-21,c)
);
},
{
closed = 1;
nodes = (
(569,0,o),
(600,20,o),
(600,86,cs),
(600,197,o),
(531,304,o),
(446,304,cs),
(361,304,o),
(292,197,o),
(292,86,cs),
(292,20,o),
(323,0,o),
(446,0,cs)
);
},
{
closed = 1;
nodes = (
(437,124,o),
(430,131,o),
(430,139,cs),
(430,147,o),
(437,154,o),
(445,154,cs),
(453,154,o),
(460,147,o),
(460,139,cs),
(460,131,o),
(453,124,o),
(445,124,cs)
);
}
);
visible = 1;
width = 590;
}
);
metricLeft = "=0";
metricRight = "=-10";
script = arabic;
sortName = arL0058.round;
sortNameKeep = arL0058.round;
}
{
category = Letter;
glyphname = "meem-ar.init";
kernLeft = meem;
layers = (
{
anchors = (
{
name = bottom;
pos = (154,-20);
},
{
name = exit;
},
{
name = top;
pos = (154,324);
}
);
backgroundImage = {
alpha = 80;
imagePath = "images/heh-ar.fina.jpg";
locked = 1;
pos = (-2747,-181);
scale = (14.67,14.67);
};
layerId = m01;
shapes = (
{
closed = 1;
nodes = (
(148,0,l),
(148,70,l),
(0,70,l),
(0,0,l)
);
},
{
closed = 1;
nodes = (
(277,0,o),
(308,20,o),
(308,86,cs),
(308,197,o),
(239,304,o),
(154,304,cs),
(69,304,o),
(0,197,o),
(0,86,cs),
(0,20,o),
(31,0,o),
(154,0,cs)
);
},
{
closed = 1;
nodes = (
(145,124,o),
(138,131,o),
(138,139,cs),
(138,147,o),
(145,154,o),
(153,154,cs),
(161,154,o),
(168,147,o),
(168,139,cs),
(168,131,o),
(161,124,o),
(153,124,cs)
);
}
);
width = 328;
}
);
metricLeft = "=meem-ar.medi";
metricRight = "=meem-ar";
script = arabic;
sortName = arL0060;
sortNameKeep = arL0060;
}
